<?xml version="1.0" standalone="no"?>
<!DOCTYPE svg PUBLIC "-//W3C//DTD SVG 1.1//EN" "http://www.w3.org/Graphics/SVG/1.1/DTD/svg11.dtd" >
<svg>
<metadata>
Created by FontForge 20090914 at Tue Sep  6 19:10:33 2016
 By www-data
Copyright (c) Apostrophe (') and VEDI. Distribute freely., 2001. All rights reserved.
</metadata>
<defs>
<font id="Matrix_vs_Miltown" horiz-adv-x="1054" >
  <font-face 
    font-family="Matrix_vs_Miltown"
    font-weight="400"
    font-stretch="normal"
    units-per-em="1000"
    panose-1="2 0 5 5 8 0 0 2 0 4"
    ascent="800"
    descent="-200"
    x-height="542"
    cap-height="754"
    bbox="-149.001 -224.002 1557 997.999"
    underline-thickness="50"
    underline-position="-75"
    unicode-range="U+0006-U+2116"
  />
<missing-glyph horiz-adv-x="500" 
 />
    <glyph glyph-name=".notdef" horiz-adv-x="500" 
 />
    <glyph glyph-name="dotaccent" horiz-adv-x="200" 
d="M37 596h122v106h-122v-106z" />
    <glyph glyph-name="caron" horiz-adv-x="581" 
d="M344 673h79l-139 -247v-69h-14l-13 22l-31 -56h-12v119l4 7l-146 258h81l105 -186z" />
    <glyph glyph-name="dotlessi" unicode="&#xd;" 
d="M1100 212v-24h-497v24h497zM621 22v-23h-696v23h696zM-78 209h602v-24h-602v24zM641 406v-24h-497v24h497z" />
    <glyph glyph-name="fraction" horiz-adv-x="401" 
d="M0 1h97l92 354h-96zM280 684l-89 -338h96l89 338h-96z" />
    <glyph glyph-name="Lslash" horiz-adv-x="901" 
d="M193 73l65.998 254.002v-207c0 -15.333 -1 -28.333 -3 -39l-28 -22.5c-11.333 -9 -25 -13.5 -41 -13.5h-23v-21h-264v-24h334c-7.33301 -6 -16.666 -10.167 -27.999 -12.5s-25.333 -3.5 -42 -3.5h-23v-26h484l16 42h361v24h-220l46 98h-33
c-9.33301 -17.333 -19 -30.5 -29 -39.5s-20.5 -15.667 -31.5 -20s-23 -6.83301 -36 -7.5s-26.833 -1 -41.5 -1l38 110h-33l-14.5 -30l-14.5 -31.5l-13 -28.5c-4 -8.66699 -7.33301 -15.334 -10 -20.001h-128c-14 0 -25.167 0.666992 -33.5 2s-14.5 4.33301 -18.5 9
s-6.66699 11.667 -8 21s-2 21.666 -2 36.999v228h-57v67h20l89 338h-96l-13 -49h-193v-23h17c20 0 36.167 -2.16699 48.5 -6.5s22 -11 29 -20s11.667 -20.5 14 -34.5s3.5 -30.333 3.5 -49h-385v-25h170c26.667 0 51.834 -1 75.501 -3s44 -5.5 61 -10.5
s30.5 -12.167 40.5 -21.5s15 -21.333 15 -36v-51h-70l-93 -354h97z" />
    <glyph glyph-name="lslash" 
d="M-76 210v-24h497v24h-497zM403 20v-23h696v23h-696zM375 578l-454 -1v-23h454v24zM1102 207h-602v-24h602v24zM383 404v-24h497v24h-497z" />
    <glyph glyph-name="Zcaron" horiz-adv-x="999" 
d="M1055 0v23h-352v33h-275l220 288h-53l246 332h-160l40 47h-60l-3 -6v-69h-14l-13 22l-23 -41h82l-227 -290h39l-98 -127h-462v-24h444l-120 -156v-32h789zM588 629l0.00195312 93.999h-456v-121l32 -2c0.666992 16 2.5 29 5.5 39s8 17.833 15 23.5
s16.333 9.33398 28 11.001s26.167 2.5 43.5 2.5v-165h33c0.666992 19.333 3.16699 36.333 7.5 51s11.666 27 21.999 37s24.166 17.5 41.499 22.5s39 7.5 65 7.5h163zM718.002 963.999l-86 -152l-105 186h-81l146 -258l-4 -7v-10h73l136 241h-79zM600.002 613.999l8 15h-20
v-15h12z" />
    <glyph glyph-name="zcaron" horiz-adv-x="203" 
d="M39 479h123v24h-123v-24zM39 210v-24h123v24h-123zM39 653v-24h123v24h-123zM39 335h123v24h-123v-24zM37 1h125v23h-125v-23z" />
    <glyph glyph-name="space" unicode=" " 
d="M1097 188v24h-497v-24h497zM1096 647v23h-696v-23h696zM-54 0l454 1v23h-454v-24zM-2 520h602v24h-602v-24zM752 345v24h-497v-24h497z" />
    <glyph glyph-name="space" unicode="&#xa0;" 
d="M1097 188v24h-497v-24h497zM1096 647v23h-696v-23h696zM-54 0l454 1v23h-454v-24zM-2 520h602v24h-602v-24zM752 345v24h-497v-24h497z" />
    <glyph glyph-name="exclam" unicode="!" horiz-adv-x="292" 
d="M141 685c-16 -0.666992 -29 -5 -39 -13v59c-16 -0.666992 -29 -5 -39 -13v-294l27 -180h28l11 -46h28l56 368h-45c1.33301 9.33301 2.33301 17.833 3 25.5s1.66699 14.5 3 20.5h-33v73zM78 2h122v106h-122v-106z" />
    <glyph glyph-name="quotedbl" unicode="&#x22;" horiz-adv-x="555" 
d="M164 407l1 -3h19l56 220c0 16.667 -6.16699 31 -18.5 43s-27.5 18 -45.5 18c-2 0 -4.5 -0.166992 -7.5 -0.5l-4.5 -0.5v-277zM368 404h18l56 220c0 16.667 -6.33301 31 -19 43s-28 18 -46 18c-4.66699 0 -7.66699 -0.333008 -9 -1v-280z" />
    <glyph glyph-name="numbersign" unicode="#" horiz-adv-x="668" 
d="M671 446v11h27v31h-87l30 143h-81l-30 -143h-183l15 75h-81l-15 -75h-66v-31h-26v31h-63v-81h138l-5 -24h-68l-31 -134h-105v-81h46v18h68v-46h-32l-17 -81h81l23 109h183l-37 -166h24v-1h424v24h-362l32 143h64v81h-47l24 104h69l11 54h104v39h-27zM300 200v49h-74
l24 104h69l11 54h56v30h45v-30h82l-5 -24h-68l-31 -134h-55v-49h-54zM387 679h-81l-21 -100h81zM627 168v81h-76v-81h76z" />
    <glyph glyph-name="dollar" unicode="$" horiz-adv-x="511" 
d="M602 188l0.00292969 23.9971h-169v141c-5.33301 4.66699 -11 9.33398 -17 14.001l-20 15h-140v221c36.667 -6 67.167 -21.667 91.5 -47s40.5 -59 48.5 -101h18v133c-17.333 12.667 -40.333 23.167 -69 31.5s-58.334 13.5 -89.001 15.5v81h-50v-81
c-30 -1.33301 -56.5 -6.33301 -79.5 -15s-42.5 -20.334 -58.5 -35.001v-241h141c19.333 -12.667 40 -25 62 -37v-190h-23v-96c-32 4 -58.833 12.167 -80.5 24.5s-40.167 33.5 -55.5 63.5h13c-1.33301 2.66699 -2.5 6.66699 -3.5 12l-3 16.5l-3 16.5l-2.5 13h-18v-50h-23v-92
h-138v-24h180c19.333 -5.33301 41.166 -9.83301 65.499 -13.5s47.166 -5.5 68.499 -5.5v-81h50v81c22.667 2 43.167 6.33301 61.5 13s35.166 15.334 50.499 26.001v96h-20c-2.66699 -24.667 -12.334 -45.667 -29.001 -63s-37.667 -28 -63 -32v87h23v167
c16 -11.333 29.833 -24.166 41.5 -38.499s21.334 -29.166 29.001 -44.499s13.334 -30.333 17.001 -45s5.5 -27.667 5.5 -39h19v79h169zM206.003 394.997c-34.667 18 -58.333 35.5 -71 52.5s-19 35.167 -19 54.5c0 25.333 8 46.833 24 64.5s38 29.5 66 35.5v-207z" />
    <glyph glyph-name="percent" unicode="%" horiz-adv-x="789" 
d="M595 -11c22.667 0 43.835 6 63.502 18s36.5 28 50.5 48v169h24v158c-14 21.333 -31 38.333 -51 51s-41.667 19 -65 19c-16.667 0 -32.834 -3.5 -48.501 -10.5s-29.834 -16.667 -42.501 -29s-23.667 -26.833 -33 -43.5s-16 -34.667 -20 -54h42v-82h-24v-191
c13.333 -16 29 -28.833 47 -38.5s37 -14.5 57 -14.5zM273.001 464v169c-13.333 16 -29 28.667 -47 38s-36.667 14 -56 14c-28.667 0 -54.667 -9.16699 -78 -27.5s-41.333 -42.5 -54 -72.5l-2 -2v-296c12 -10.667 25.333 -19 40 -25s30 -9 46 -9
c28.667 0 54.667 9.16699 78 27.5s41.333 42.5 54 72.5c15.333 13.333 28.333 29.333 39 48s18 39.667 22 63h-42zM-100.999 213v-24h386l-115 -199h49l202 352h-49l-73 -129h-400zM901.001 661v24h-361l-194 -330h83l7 12h-34l172 294h327zM619.001 323
c26 0 42.666 -30 49.999 -90h-30c-2 -11.333 -4.5 -23.833 -7.5 -37.5s-6.5 -26.167 -10.5 -37.5s-8.33301 -20.833 -13 -28.5s-9.66699 -11.5 -15 -11.5s-10.333 3.33301 -15 10s-9 15.167 -13 25.5s-7.5 21.833 -10.5 34.5s-5.5 24.667 -7.5 36h22
c4.66699 66 21.334 99 50.001 99zM118 502c0 32.667 2 60.667 6 84c16 -1.33301 28.5 -14.666 37.5 -39.999s13.5 -62.333 13.5 -111c0 -16.667 -0.666992 -31.834 -2 -45.501s-3 -26.167 -5 -37.5c-33.333 1.33301 -50 51.333 -50 150zM595 21c-24 0 -39.667 24.667 -47 74
c14 -6 29 -9 45 -9c15.333 0 32 3.66699 50 11c-6.66699 -50.667 -22.667 -76 -48 -76zM619 355c-15.333 0 -32 -3.66699 -50 -11c8 50.667 24 76 48 76s40 -25 48 -75c-14 6.66699 -29.333 10 -46 10zM170 653c24.667 0 41.001 -26.668 49.001 -80.001
c-12 12.667 -25.333 22.834 -40 30.501s-30.334 12.167 -47.001 13.5c8 24 20.667 36 38 36zM160.001 319.999c-9.33301 -23.333 -22 -35 -38 -35c-25.333 0 -41.333 26.333 -48 79c25.333 -26 54 -40.667 86 -44z" />
    <glyph glyph-name="ampersand" unicode="&#x26;" horiz-adv-x="802" 
d="M903 0l0.000976562 23.9971h-345v49c-20.667 4 -42 13.667 -64 29s-42.333 34.666 -61 57.999l19 28h452v24h-438c18.667 32 35.167 62 49.5 90s28.5 49 42.5 63l5 5c2 2 4.33301 3.66699 7 5c-0.666992 -3.33301 -1.16699 -6.66602 -1.5 -9.99902
s-1.16602 -6.66602 -2.49902 -9.99902h64c6.66699 11.333 13 21.5 19 30.5s12 16.5 18 22.5c7.33301 7.33301 17 14 29 20s23.667 9.66699 35 11v32h-110v-43h-40v20h-110v-20h-55v-32c3.33301 -1.33301 8.66602 -4.16602 15.999 -8.49902l22.5 -13.5l21.5 -13.5
c6.66699 -4.33301 11 -7.5 13 -9.5l-71 28c0.666992 -3.33301 1.16699 -6.5 1.5 -9.5s0.5 -6.16699 0.5 -9.5c0 -8.66699 -1.33301 -18 -4 -28h45c-1.33301 -17.333 -7 -37 -17 -59s-25 -47.333 -45 -76l-27 40l-33 52l-34.5 57.5c-11.667 19.667 -22.167 38.5 -31.5 56.5
c41.333 22.667 74.333 46.334 99 71.001v183c-26.667 18.667 -60 28 -100 28c-40.667 0 -75.334 -9.66699 -104.001 -29v-231h-49c6 -16 13 -32 21 -48c-22.667 -11.333 -43 -23.5 -61 -36.5s-34.333 -26.833 -49 -41.5v-261h263v-17c18 10.667 35.333 23.667 52 39
c28 -32 61.667 -54.333 101 -67v-80c21.333 1.33301 41.833 6.5 61.5 15.5s36.5 21.167 50.5 36.5v35h345zM160.001 335.997c4.66699 -11.333 10.665 -23.3311 17.998 -35.998h80v-131c20 -29.333 37.333 -53.333 52 -72c-10.667 -11.333 -23.834 -20.333 -39.501 -27
s-32.167 -10 -49.5 -10c-19.333 0 -37.666 4.16699 -54.999 12.5s-32.666 19.666 -45.999 33.999s-24 30.833 -32 49.5s-12 38.667 -12 60c0 24 7.83301 47.167 23.5 69.5s35.834 39.166 60.501 50.499zM253.999 444.999c-23.333 52.667 -35 94.001 -35 124.001
c0 21.333 5.5 38 16.5 50s26.167 18 45.5 18s35.333 -6.83301 48 -20.5s19 -31.167 19 -52.5c0 -42.667 -31.333 -82.334 -94 -119.001z" />
    <glyph glyph-name="quotesingle" unicode="'" horiz-adv-x="278" 
d="M147 404l3.99805 13.999v265c-5.33301 1.33301 -9.66602 2 -12.999 2c-17.333 0 -32.166 -6.16699 -44.499 -18.5s-18.5 -27.166 -18.5 -44.499c0 -8 0.5 -16.833 1.5 -26.5s3.16699 -19.5 6.5 -29.5l45 -162h19z" />
    <glyph glyph-name="parenleft" unicode="(" horiz-adv-x="400" 
d="M499 186l0.000976562 24h-335v22c0 17.333 0.166992 34.833 0.5 52.5s1.16602 35.5 2.49902 53.5h43c3.33301 30 8.5 59.5 15.5 88.5s16.833 56 29.5 81s28.667 47.5 48 67.5s43 36 71 48v31c-33.333 -7.33301 -64.666 -20.333 -93.999 -39s-56 -41.334 -80 -68.001
s-44.833 -56.667 -62.5 -90s-31.834 -68.333 -42.501 -105h-47c-9.33301 -41.333 -14 -81.666 -14 -120.999v-21h-133v-24h135c2 -20.667 5 -40.334 9 -59.001h30c12 -34.667 27.333 -67.167 46 -97.5s39.667 -57.5 63 -81.5s48.5 -44 75.5 -60s55.167 -27 84.5 -33v32
c-50 19.333 -88 54.333 -114 105s-43 115.334 -51 194.001h320z" />
    <glyph glyph-name="parenright" unicode=")" horiz-adv-x="400" 
d="M500 1l0.000976562 23.998h-216c19.333 30.667 35.666 64.667 48.999 102h30c7.33301 36.667 11 71.334 11 104.001c0 38 -4.66699 78.333 -14 121h-47c-10.667 36.667 -25 71.667 -43 105s-38.833 63.333 -62.5 90s-50.167 49.334 -79.5 68.001
s-60.666 31.667 -93.999 39v-31c28 -12 51.667 -28 71 -48s35.333 -42.5 48 -67.5s22.5 -52 29.5 -81s12.167 -58.5 15.5 -88.5h43c1.33301 -18 2.16602 -35.833 2.49902 -53.5s0.5 -35.167 0.5 -52.5v-18h-344v-24h329c-7.33301 -80.667 -24 -146.5 -50 -197.5
s-64.333 -86.167 -115 -105.5v-32c40 8 77 24.833 111 50.5s65 57.5 93 95.5h232z" />
    <glyph glyph-name="asterisk" unicode="*" horiz-adv-x="500" 
d="M340 577h122v106h-122v-106zM153 577v106h-87v-106h87zM190 452h75v106h-75v-106zM465 321v106h-65v-106h65zM31 328h49v106h-49v-106zM343 321h49v106h-49v-106zM312 452v106h-31v-106h31zM153 328v106h-26v-106h26zM31 577h18v106h-18v-106z" />
    <glyph glyph-name="plus" unicode="+" horiz-adv-x="600" 
d="M704 488v24h-380v88h-90v-204h-131v-90h185v-91h-389v-24h389v-127h90v220h115v129h-169v75h380z" />
    <glyph glyph-name="comma" unicode="," horiz-adv-x="292" 
d="M54 -25l113.001 0.000976562v-1c0 -29.333 -9.83301 -52.833 -29.5 -70.5s-46.834 -27.5 -81.501 -29.5v-33c55.333 2.66699 99.333 19.5 132 50.5s49 71.833 49 122.5c0 12 -1.16699 23.667 -3.5 35s-5.16602 21.666 -8.49902 30.999h3v106h-122v-47
c-2.66699 -1.33301 -4.33398 -2 -5.00098 -2h-35v-32c-5.33301 -7.33301 -8.33301 -15.333 -9 -24h-3v-106z" />
    <glyph glyph-name="hyphen" unicode="-" horiz-adv-x="354" 
d="M27 203h301v106h-301v-106z" />
    <glyph glyph-name="period" unicode="." horiz-adv-x="200" 
d="M37 84h122v106h-122v-106z" />
    <glyph glyph-name="slash" unicode="/" horiz-adv-x="401" 
d="M0 1h97l92 354h-96zM280 684l-89 -338h96l89 338h-96z" />
    <glyph glyph-name="zero" unicode="0" horiz-adv-x="549" 
d="M49 773v-770.002c94.667 -1.33301 170.667 -2.16602 228 -2.49902s102 -0.333008 134 0s53.667 0.833008 65 1.5s18.333 1.33398 21 2.00098v769h-448zM268 416.998h-96l-49 -187v448h218l-71 -270h96l51 193v-501h-232z" />
    <glyph glyph-name="one" unicode="1" horiz-adv-x="577" 
d="M307 100v678h-244v-100h144v-578h-147v-100h394c14.667 0 26.667 4.16699 36 12.5s14 20.833 14 37.5v167h-100v-117h-97z" />
    <glyph glyph-name="two" unicode="2" horiz-adv-x="454" 
d="M164 339l113 -1.00195c36.667 0 64.5 10.333 83.5 31s28.5 49.334 28.5 86.001v205c0 36.667 -9.5 65.334 -28.5 86.001s-46.833 31 -83.5 31h-190v-100h202v-238h-112c-75.333 0 -113 -37.667 -113 -113v-326h292v100h-192v239z" />
    <glyph glyph-name="three" unicode="3" horiz-adv-x="600" 
d="M458 678v-166c0 -26 -4.5 -44.833 -13.5 -56.5s-21.167 -17.5 -36.5 -17.5h-262v-100h262c15.333 0 27.5 -5.5 36.5 -16.5s13.5 -29.5 13.5 -55.5v-166h-214v-100h214c28.667 0 52.5 9.5 71.5 28.5s28.5 42.833 28.5 71.5v192c0 21.333 -2.83301 39.5 -8.5 54.5
s-15.834 29.167 -30.501 42.5c14.667 13.333 24.834 27.5 30.501 42.5s8.5 33.167 8.5 54.5v192c0 28.667 -9.5 52.5 -28.5 71.5s-42.833 28.5 -71.5 28.5h-410v-100h410z" />
    <glyph glyph-name="four" unicode="4" horiz-adv-x="559" 
d="M63 254h294v-204c0 -33.333 16.667 -50 50 -50s50 16.667 50 50v204c14.667 0 26.667 4.16699 36 12.5s14 20.833 14 37.5s-4.66699 29.167 -14 37.5s-21.333 12.5 -36 12.5v287h-100v-291h-194v377h-100v-473z" />
    <glyph glyph-name="five" unicode="5" horiz-adv-x="489" 
d="M236 678h123.001v100h-223v-439h191v-239h-127c-2 0 -7.33301 2.16699 -16 6.5s-19 9 -31 14s-24.167 9.66699 -36.5 14s-22.833 6.5 -31.5 6.5c-12.667 0 -23.834 -5 -33.501 -15s-14.5 -21.667 -14.5 -35c0 -14 4 -24.667 12 -32s20.333 -14 37 -20l112 -39h118
c36 0 63.5 9.66699 82.5 29s28.5 47 28.5 83v214c0 35.333 -9.5 63 -28.5 83s-46.5 30 -82.5 30h-80v239z" />
    <glyph glyph-name="six" unicode="6" horiz-adv-x="455" 
d="M166 678h97v101h-154c-16 0 -27.167 -5 -33.5 -15s-9.5 -22 -9.5 -36v-665c0 -22.667 5 -38.834 15 -48.501s26.667 -14.5 50 -14.5h210c23.333 0 40 4.83301 50 14.5s15 25.834 15 48.501v224c0 24.667 -4 42 -12 52s-24 15 -48 15h-180v324zM306 254v-154h-140v154h140
z" />
    <glyph glyph-name="seven" unicode="7" horiz-adv-x="402" 
d="M256 678l0.000976562 -138c0 -20 -1.66699 -34.333 -5 -43c-2.66699 -6.66699 -11.334 -16.334 -26.001 -29.001l-138 -119c-12.667 -10.667 -20.334 -19 -23.001 -25c-2 -5.33301 -3 -16.333 -3 -33v-290h100v243c0 18 1.33301 29.333 4 34
c3.33301 6.66699 11.333 15.334 24 26.001l140 121c12.667 10.667 20.334 19.334 23.001 26.001c2.66699 5.33301 4 17.666 4 36.999v291h-270v-101h170z" />
    <glyph glyph-name="eight" unicode="8" horiz-adv-x="600" 
d="M459 339c12 0 25.168 1.33301 39.501 4s26.166 7 35.499 13v416h-454v-411c9.33301 -7.33301 22.5 -12.833 39.5 -16.5s32.167 -5.5 45.5 -5.5v-339h294v339zM453.001 678v-239h-288v239h288zM359.001 339v-239h-94v239h94z" />
    <glyph glyph-name="nine" unicode="9" horiz-adv-x="463" 
d="M310 100h-113v-100h163c14.667 -0 26.667 4.83301 36 14.5s14 21.5 14 35.5v678c0 13.333 -4.83301 25 -14.5 35s-21.5 15 -35.5 15h-264c-14 0 -25.833 -5 -35.5 -15s-14.5 -21.667 -14.5 -35v-256c0 -13.333 4.83301 -25 14.5 -35s21.5 -15 35.5 -15h214v-322zM146 522
v156h164v-156h-164z" />
    <glyph glyph-name="colon" unicode=":" horiz-adv-x="209" 
d="M37 84h122v106h-122v-106zM45 436h122v106h-122v-106zM73 253h122v106h-122v-106z" />
    <glyph glyph-name="semicolon" unicode=";" horiz-adv-x="209" 
d="M9 -28h113.001v-1c0 -30 -9.83301 -53.667 -29.5 -71s-46.834 -27 -81.501 -29v-33c56 2.66699 100.167 19.5 132.5 50.5s48.5 71.833 48.5 122.5v10h-183v-49zM45.001 436h122v106h-122v-106zM73.001 253h122v106h-122v-106zM180.001 77h3v23h-164l-4 -10.5
c-1.33301 -3.66699 -2.33301 -7.5 -3 -11.5h-3v-42h181c-1.33301 7.33301 -2.83301 14.5 -4.5 21.5s-3.5 13.5 -5.5 19.5zM183.001 183h-122v-47c-4 -1.33301 -5.66699 -2 -5 -2h-35v-19h162v68z" />
    <glyph glyph-name="less" unicode="&#x3c;" horiz-adv-x="667" 
d="M64 357v-65l538 -225v97l-118 48h-184v75l-113 46l345 140v69h70v57l-459 -192v-50h-79z" />
    <glyph glyph-name="equal" unicode="=" horiz-adv-x="667" 
d="M64 262v-90h169v31h182v-44h187v90h-175v44h-211v-31h-152zM63 486v-90h173v8h177v-29h187v90h-163v29h-221v-8h-153z" />
    <glyph glyph-name="greater" unicode="&#x3e;" horiz-adv-x="667" 
d="M448 392v46l-384 161v-48h56v-72l360 -146l-170 -69v-55h-135l-111 -45v-97l384 160v43h101l53 22v82l-30 12v-48h-18v56l-76 32v-34h-30z" />
    <glyph glyph-name="question" unicode="?" horiz-adv-x="401" 
d="M31 617l0.00390625 -53.9971h49c1.33301 -6 2.66602 -10 3.99902 -12h224v-46l7.5 -5.5c2.33301 -1.66699 4.5 -3.5 6.5 -5.5c6 -6 10.167 -12.333 12.5 -19s3.5 -13.667 3.5 -21c0 -10.667 -1.33301 -19.167 -4 -25.5s-6.66699 -12.166 -12 -17.499
c-2.66699 -2.66699 -6 -5.33398 -10 -8.00098h-94v-37c-6.66699 -2 -11.334 -4.33301 -14.001 -7c-3.33301 -3.33301 -5.83301 -8.5 -7.5 -15.5s-2.5 -19.833 -2.5 -38.5v-106h31l6 48c1.33301 13.333 7.66602 23.166 18.999 29.499s24.666 13.166 39.999 20.499h50v28
c2.66699 2 6.33398 5.33301 11.001 10c6 6 11.667 13.667 17 23v187c-4.66699 10.667 -9.83398 20.167 -15.501 28.5s-11.5 15.5 -17.5 21.5c-2 1.33301 -3.66699 3 -5 5h-250v-14c-6 0.666992 -10 2.66699 -12 6c-4.66699 4.66699 -7.66699 9.16699 -9 13.5
s-2 8.16602 -2 11.499h-26zM117.004 47.0029h122v106h-122v-106z" />
    <glyph glyph-name="at" unicode="@" horiz-adv-x="930" 
d="M115 176c2.66699 -17.333 6.66699 -35.667 12 -55h45c-3.33301 12.667 -6.33301 26.667 -9 42c-2 12 -3.66699 24.167 -5 36.5s-2.33301 24.5 -3 36.5h-48c1.33301 -10 2.5 -20 3.5 -30s2.5 -20 4.5 -30zM609 383.999h-73l15 -85h48zM166 353.999l-50.001 -0.000976562
c-6 -27.333 -9 -55.666 -9 -84.999h48c0.666992 14.667 1.83398 29 3.50098 43s4.16699 28 7.5 42zM486.999 437.998c10 0 19.333 -2.33301 28 -7s16.667 -10.667 24 -18h6l-5 27c-18 14 -39 21 -63 21c-32.667 0 -67 -16 -103 -48h58c16.667 16.667 35 25 55 25z
M342.999 200.998l-12 66h-38l20 -115h27v11c0 11.333 1 24 3 38zM553.999 235.998c-2.66699 -14.667 -6.83203 -28.833 -12.499 -42.5s-12.834 -27.5 -21.501 -41.5h70l-20 115h-12zM333.001 365.999l12 -65.998h22c3.33301 9.33301 7 18.666 11 27.999
s8.66699 18.666 14 27.999l9 15l8 14h-61c-3.33301 -3.33301 -6 -6.5 -8 -9.5s-4.33301 -6.16699 -7 -9.5zM849.001 267.001l-31 0.000976562c-2 -42.667 -10.333 -81 -25 -115h35c13.333 35.333 20.333 73.666 21 114.999zM254.001 -98.998l-11.998 67.998
c-10.667 14.667 -20.334 29.667 -29.001 45h-43c12 -21.333 24.667 -41.166 38 -59.499s28.666 -36.166 45.999 -53.499zM846.003 33c0.666992 2.66699 2.66602 5.66699 5.99902 9h-43c-15.333 -20 -32.666 -38.667 -51.999 -56l5 -36c32.667 22 60.667 49.667 84 83z
M245.002 512l7.00098 -47.001c12 12.667 24.5 24.334 37.5 35.001s26.833 20 41.5 28l-6 34c-14.667 -7.33301 -28.834 -15 -42.501 -23s-26.167 -17 -37.5 -27zM548.003 71.999l1 -6h56l-10 61h-51c0 -12 0.333008 -22 1 -30s1.66699 -16.333 3 -25zM652.003 627.999
l6.00195 -33.999c13.333 -9.33301 26.166 -19.333 38.499 -30s24.166 -22.667 35.499 -36h34c-30.667 39.333 -68.667 72.666 -114 99.999zM645.005 -72l5 -31.0039c16.667 4.66699 32.5 10.334 47.5 17.001s30.167 14.334 45.5 23.001l-6 35
c-14.667 -9.33301 -29.5 -17.666 -44.5 -24.999s-30.833 -13.666 -47.5 -18.999zM284.005 -15.0039l6 -37.999c30 -17.333 62 -31.333 96 -42l-5 32c-18 6 -34.833 13.167 -50.5 21.5s-31.167 17.166 -46.5 26.499zM898.005 152.997l-32.0029 0.000976562
c-5.33301 -15.333 -11.166 -29.833 -17.499 -43.5s-13.166 -26.834 -20.499 -39.501h41c6.66699 13.333 12.334 26.5 17.001 39.5s8.66699 27.5 12 43.5zM661.002 39.998c-8 0 -14.667 1.66699 -20 5h-9l7 -40c34.667 0 66.667 8.33301 96 25l-3 15h-41
c-10 -3.33301 -20 -5 -30 -5zM400.002 -69.002l6.99902 -32.001c29.333 -7.33301 62 -12.666 98 -15.999l-5 30c-35.333 2.66699 -68.666 8.66699 -99.999 18zM798.001 412.997h30c-12.667 34.667 -29 66.667 -49 96h-32c22 -29.333 39 -61.333 51 -96zM343.001 568.997
l5 -31.001c30 14.667 61.667 24.334 95 29.001l-5 27c-35.333 -4 -67 -12.333 -95 -25zM582.001 589.996l5.00195 -26.999c38 -8 73.333 -21.333 106 -40l-5 31c-16.667 8 -33.834 15.167 -51.501 21.5s-35.834 11.166 -54.501 14.499zM497.003 597.997
c-7.33301 0 -14.333 -0.166992 -21 -0.5s-13.667 -0.833008 -21 -1.5l5 -27c14 2 28.667 3 44 3c10 0 19.833 -0.333008 29.5 -1s19.5 -1.66699 29.5 -3l-5 26c-10 1.33301 -20 2.33301 -30 3s-20.333 1 -31 1zM179.003 95.9971h-43.999c3.33301 -10.667 7 -21.167 11 -31.5
s8.33301 -20.166 13 -29.499h43c-4.66699 9.33301 -8.83398 19.166 -12.501 29.499s-7.16699 20.833 -10.5 31.5zM620.004 157.997l12 109h-39l20 -115h6c0.666992 0.666992 1 2.66699 1 6zM169.004 484.997l13 -77.999c4 10 8.33301 20 13 30s9.66699 19.667 15 29l-10 60
c-6 -6.66699 -11.333 -13.334 -16 -20.001zM844.004 349.998l-8 35h-29l6 -27c3.33301 -20 5.33301 -39.333 6 -58h31c-0.666992 16 -2.66699 32.667 -6 50zM785.004 72.998c6.66699 8 12.835 16.501 18.502 25.501s10.5 18.5 14.5 28.5h-37
c-1.33301 -3.33301 -2.83301 -6.33301 -4.5 -9s-3.83398 -5.33398 -6.50098 -8.00098c-4.66699 -8.66699 -12.334 -18 -23.001 -28l3 -16h29zM498.005 117.999c-23.333 -30 -46.333 -47.333 -69 -52h58l21.5 26.5c7 9 14.833 20.5 23.5 34.5h-28zM155.005 462.999
c-6.66699 -12.667 -12.667 -25.667 -18 -39s-10 -27.333 -14 -42h47zM362.005 90.999c-9.33301 8.66699 -15.333 20.667 -18 36h-26l10 -61h38zM264.005 -61.001l10.001 -57.999l22 -19.5c7.33301 -6.33301 15 -12.5 23 -18.5l-8 47
c-8.66699 7.33301 -16.834 15.166 -24.501 23.499zM466.006 45h-76.999l7 -38c23.333 4 46.666 16.667 69.999 38zM616.007 6l-7 39h-52c11.333 -23.333 31 -36.333 59 -39zM627.007 -108l-4.99902 29.999c-8.66699 -1.33301 -16.834 -2.66602 -24.501 -3.99902l-22.5 -4
l5 -29zM376.008 4.99902h1l-7 40h-38l5 -30c10.667 -6.66699 23.667 -10 39 -10zM532.008 -118.001h12.999c5.33301 0 12.333 0.666992 21 2l-5 29c-3.33301 -0.666992 -16.666 -1 -39.999 -1l5 -30h6zM318.007 342.999l-12 -21.5c-4 -7 -7.66699 -14.167 -11 -21.5h31z
M903.007 181.999l-28 0.000976562c-1.33301 -4.66699 -2.33301 -7.33398 -3 -8.00098h29c0.666992 0.666992 1 2 1 4s0.333008 3.33301 1 4zM356.007 267h-6.00098l3 -14c0.666992 2 1.33398 4.16699 2.00098 6.5s1 4.83301 1 7.5zM384.006 71l1.00098 -5h10
c-4.66699 1.33301 -8.33398 3 -11.001 5zM525.007 310v-11h3zM757.007 45h-3v-2c0.666992 0 1.66699 0.666992 3 2z" />
    <glyph glyph-name="A" unicode="A" horiz-adv-x="946" 
d="M668 309l-161.001 287.997h-64v-30h-494v-23h382l-197 -402l-30.5 -46.5c-9 -14.333 -18 -26.666 -27 -36.999s-18.167 -18.5 -27.5 -24.5s-20 -9 -32 -9v-25h157v18c-14 0 -23.667 1.33301 -29 4s-8 6.66699 -8 12s1.66699 11.166 5 17.499s6.33301 13.5 9 21.5l61 118
h310c10.667 -24 19.334 -44.167 26.001 -60.5s11.667 -29.666 15 -39.999s5.66602 -18.333 6.99902 -24s2 -10.167 2 -13.5c0 -12 -4.66699 -20.667 -14 -26s-28.666 -8.33301 -57.999 -9v-18h499v24c-8 0.666992 -20.333 1.33398 -37 2.00098
s-35.334 1.33398 -56.001 2.00098s-42 1.66699 -64 3s-42.5 3 -61.5 5s-35.167 4.66699 -48.5 8s-21.666 7.33301 -24.999 12l-124 253h85zM503.999 220.997h-274l130 275z" />
    <glyph glyph-name="B" unicode="B" horiz-adv-x="950" 
d="M361 679v57.999h-408v-24h272c16 0 28.5 -3.33301 37.5 -10s16.833 -14.667 23.5 -24h-51v-29c21.333 0 37 -0.166992 47 -0.5s17.333 -1.16602 22 -2.49902v-113h-19v-191h45v-153h-53v-112h24v-54h-352v-24h352v-38h43v38h180c56 0 101 10.5 135 31.5
s58.667 46.5 74 76.5v77h266v24h-266v75c-3.33301 4 -8.16602 9.33301 -14.499 16s-13.5 13.667 -21.5 21s-16.333 14.333 -25 21s-16.334 11.667 -23.001 15c7.33301 1.33301 17.833 5.5 31.5 12.5s26.167 14.167 37.5 21.5v288h-357zM464 328.999l85.0039 -0.00195312
c25.333 0 47.166 -5.66699 65.499 -17s33.666 -25.666 45.999 -42.999s22.166 -37 29.499 -59s12.666 -43.333 15.999 -64h-95c-2.66699 -20.667 -8.16699 -36.667 -16.5 -48s-19 -19.833 -32 -25.5s-28.5 -9.16699 -46.5 -10.5s-38 -2 -60 -2c-8 0 -17 0.333008 -27 1
s-19.5 1.83398 -28.5 3.50098s-16.5 3.5 -22.5 5.5s-9 4.33301 -9 7v219h95v33zM337.004 384.997v239h210c48 0 82.5 -13.167 103.5 -39.5s32.167 -62.5 33.5 -108.5h-84c-10 -30 -28 -52.667 -54 -68s-58.333 -23 -97 -23h-112z" />
    <glyph glyph-name="C" unicode="C" horiz-adv-x="1000" 
d="M779 0l277.996 0.000976562v23h-278v18h-43v33h-48v-2c-23.333 -14 -48.5 -24.667 -75.5 -32s-54.5 -11 -82.5 -11s-54.167 4 -78.5 12s-45.5 20 -63.5 36s-32.333 36.333 -43 61s-16 53.667 -16 87h-84v284h84c4.66699 16.667 13.334 31.5 26.001 44.5
s28 24.167 46 33.5s37.833 16.5 59.5 21.5s43.834 7.5 66.501 7.5c34 0 66.5 -5.83301 97.5 -17.5s56.167 -30.167 75.5 -55.5h54l37 134l-33 23l-5 -12c-2 -4.66699 -5 -9.33398 -9 -14.001s-8.83301 -8.5 -14.5 -11.5s-12.5 -4.5 -20.5 -4.5c-20 0 -39 2 -57 6
s-36 8.5 -54 13.5s-36.167 9.66699 -54.5 14s-37.5 6.5 -57.5 6.5c-29.333 0 -62.333 -4.83301 -99 -14.5s-73.167 -22 -109.5 -37s-70.166 -31.833 -101.499 -50.5s-56 -37 -74 -55v-28h22v-154h31v-148h-205v-23h240v-100c40 -36 87.833 -62.833 143.5 -80.5
s115.834 -26.5 180.501 -26.5c30 0 60.167 2 90.5 6s59.833 9.66699 88.5 17v-42z" />
    <glyph glyph-name="D" unicode="D" horiz-adv-x="1152" 
d="M1200 191v24h-249v65h-67v149h42v199c-32.667 28 -72 50.833 -118 68.5s-101.333 26.5 -166 26.5v-50h-329v-34h-360v-25h305c18.667 0 34.167 -1.5 46.5 -4.5s22.166 -8.5 29.499 -16.5s12.5 -18.667 15.5 -32s4.5 -30 4.5 -50v-153h-41v-230
c0 -20 -1.5 -36.667 -4.5 -50s-8.16699 -24 -15.5 -32s-17.166 -13.667 -29.499 -17s-27.833 -5 -46.5 -5h-31v-24h416c30.667 0 62.667 1.5 96 4.5s65.833 8.33301 97.5 16s61 17.667 88 30s49.5 27.833 67.5 46.5v94h249zM451 607c40.667 9.33301 80.332 14 118.999 14
c44 0 83.667 -6.66699 119 -20s65.5 -32.5 90.5 -57.5s44.167 -55.167 57.5 -90.5s20 -75 20 -119c0 -37.333 -5 -73 -15 -107s-26 -64 -48 -90s-50 -46.667 -84 -62s-75 -23 -123 -23c-12 0 -24.667 0.5 -38 1.5s-26.166 2.33301 -38.499 4s-23.833 3.5 -34.5 5.5
s-19 4.33301 -25 7v537z" />
    <glyph glyph-name="E" unicode="E" horiz-adv-x="997" 
d="M-57 -1h399.001v14h136v-36h261v52h312v23h-312v1h-300c-12.667 0 -22.667 0.833008 -30 2.5s-13 4.83398 -17 9.50098s-6.66699 11.167 -8 19.5s-2 19.5 -2 33.5v182h133v-29h157v110h-22c0 -13.333 -0.666992 -23.833 -2 -31.5s-3.5 -13.5 -6.5 -17.5
s-7.16699 -6.5 -12.5 -7.5s-12 -1.5 -20 -1.5h-71v31h-156v281h140v-32h67c14.667 0 28 -1.33301 40 -4s23 -7.66699 33 -15s19.167 -17.666 27.5 -30.999s16.166 -30.666 23.499 -51.999h21v156h-123v50h-661v-23h214v-1c20 0 36.667 -2.33301 50 -7
s23.833 -11.834 31.5 -21.501s13 -22.167 16 -37.5s4.5 -34 4.5 -56v-435c0 -21.333 -1.5 -38.833 -4.5 -52.5s-8.5 -24.334 -16.5 -32.001s-18.5 -12.834 -31.5 -15.501s-29.5 -4 -49.5 -4h-221v-23z" />
    <glyph glyph-name="F" unicode="F" horiz-adv-x="897" 
d="M634 326l0.00195312 24.001h-196v265h113c18 0 34.167 -1.16699 48.5 -3.5s27 -7.5 38 -15.5s20.667 -19.167 29 -33.5s15.5 -33.5 21.5 -57.5h26v149c9.33301 -6.66699 16.5 -16.334 21.5 -29.001s7.5 -29.667 7.5 -51h24v144h-91v-48h-732v-24h120
c10 0 18.167 -2.66699 24.5 -8s11.166 -11.5 14.499 -18.5s5.66602 -14.167 6.99902 -21.5s2 -13.333 2 -18h231v-371h-394v-24h394v-101c-2 -13.333 -5.16699 -23.833 -9.5 -31.5s-10.333 -13.5 -18 -17.5s-17.167 -6.5 -28.5 -7.5s-24.666 -1.5 -39.999 -1.5h-27v-26h141
v-188h221v31h-64c-32 0 -55 5.16699 -69 15.5s-22.333 29.833 -25 58.5v262h46v137h84v-34h74c1.33301 -4 2.16602 -11.5 2.49902 -22.5s0.5 -24.167 0.5 -39.5h33v42h1c31.333 0 53 -6.33301 65 -19s18 -36.667 18 -72h22v155h-136z" />
    <glyph glyph-name="G" unicode="G" horiz-adv-x="1000" 
d="M772 288l326.997 -0.000976562v24h-481l-1 -24c17.333 0 32.5 -0.833008 45.5 -2.5s23.833 -5.66699 32.5 -12s15.167 -16.166 19.5 -29.499s6.5 -31.666 6.5 -54.999h-33v-117c-45.333 -27.333 -89.333 -41 -132 -41c-22 0 -42.5 3.83301 -61.5 11.5
s-35.5 19.5 -49.5 35.5s-25 36.167 -33 60.5s-12 53.166 -12 86.499h-157v118c0 45.333 6.83301 86.833 20.5 124.5s32.334 70 56.001 97s51.5 48 83.5 63s66.667 22.5 104 22.5c38 0 76.667 -8 116 -24s74 -43 104 -81h64v132h308v23h-341l-5 -12
c-2 -4.66699 -5 -9.33398 -9 -14.001s-8.83301 -8.5 -14.5 -11.5s-12.5 -4.5 -20.5 -4.5c-16 0 -33 2 -51 6s-36.5 8.5 -55.5 13.5s-38.167 9.66699 -57.5 14s-39 6.5 -59 6.5c-29.333 0 -62.333 -4.83301 -99 -14.5s-73.167 -22 -109.5 -37s-70.166 -31.833 -101.499 -50.5
s-56 -37 -74 -55v-28h109v-154h-56v-148h-205v-23h240v-100c40 -36 87.833 -62.833 143.5 -80.5s115.834 -26.5 180.501 -26.5c38 0 76 3.33301 114 10s74 15.334 108 26.001v143h36v128z" />
    <glyph glyph-name="H" unicode="H" horiz-adv-x="1000" 
d="M739 211l-0.000976562 467h-70v-303h-331v254c0 20 1.5 36.667 4.5 50s8.16699 23.833 15.5 31.5s17.333 13.167 30 16.5s28.667 5 48 5h22v22h-512v-23h222c26 -3.33301 45 -12.833 57 -28.5s18 -37.5 18 -65.5v-25h-141v-23h34c28 0 49.167 -6.66699 63.5 -20
s21.5 -38 21.5 -74v-118h22v-223c0 -20 -1.5 -36.667 -4.5 -50s-8.16699 -24 -15.5 -32s-17.166 -13.667 -29.499 -17s-27.833 -5 -46.5 -5h-19v-24h309v24h-1c-19.333 0 -35.333 1.66699 -48 5s-22.667 9 -30 17s-12.5 18.667 -15.5 32s-4.5 30 -4.5 50v161h331v-282
c0 -20 -1.5 -36.667 -4.5 -50s-8.33301 -24 -16 -32s-17.667 -13.667 -30 -17s-27.833 -5 -46.5 -5h-23l1 -20h190v276h322v26h-323z" />
    <glyph glyph-name="I" unicode="I" horiz-adv-x="500" 
d="M457 0l-0.00195312 22.998h-21c-18.667 0 -36.167 0.666992 -52.5 2s-30.666 4.83301 -42.999 10.5s-22.166 14.334 -29.499 26.001s-11 27.5 -11 47.5v463c0 20 1.5 36.667 4.5 50s8.16699 24 15.5 32s17 13.667 29 17s27.333 5 46 5h12v16h144v24h-254v-19h-243v-20h26
c19.333 0 35.166 -1.66699 47.499 -5s22.166 -8.83301 29.499 -16.5s12.333 -18.167 15 -31.5s4 -30 4 -50v-447c0 -16 -1.66699 -29.333 -5 -40s-8.16602 -19.167 -14.499 -25.5s-14.166 -11.166 -23.499 -14.499s-20.333 -6 -33 -8v-15h-148v-24h505z" />
    <glyph glyph-name="J" unicode="J" horiz-adv-x="600" 
d="M291 124c0 -24 -3.5 -41.998 -10.5 -53.998s-17.167 -20.667 -30.5 -26c-4.66699 7.33301 -8.5 15.666 -11.5 24.999s-6.5 18.666 -10.5 27.999h-100v-76h-206v-21h421v32c26 18 46.167 42.167 60.5 72.5s21.5 63.5 21.5 99.5v302c0 39.333 6.5 66.5 19.5 81.5
s36.833 22.5 71.5 22.5v32h-64c7.33301 7.33301 17 12.333 29 15s26.667 4 44 4h12v16h161v23h-271v-18h-187v-21h26c18 0 33 -1.33301 45 -4s21.667 -7.66699 29 -15h-135v-32h18c32 0 54.167 -7.83301 66.5 -23.5s18.5 -42.5 18.5 -80.5v-144h-17v-238z" />
    <glyph glyph-name="K" unicode="K" horiz-adv-x="1100" 
d="M1158 -1l-0.00585938 27.001h-288c-25.333 2.66699 -53 8.83398 -83 18.501s-60.667 27.5 -92 53.5l-262 260l172.5 173c47 45.333 85.833 81.333 116.5 108s54.334 45.5 71.001 56.5s28.334 16.833 35.001 17.5v32h-221v-4h-659v-24h659v-16
c24 0 41.333 -0.666992 52 -2s16 -4.66602 16 -9.99902c0 -6 -6.33301 -14.333 -19 -25h-121l-1 -20c22.667 0 40.834 -2.16699 54.501 -6.5s20.5 -9.83301 20.5 -16.5c0 -4 -1.66699 -7.33301 -5 -10l-271 -266v217c0 25.333 2.83301 43.666 8.5 54.999s19.167 17 40.5 17
h15v32h-134v-104h-120v-2h-194v-25h194c28.667 0 48.167 -7.83301 58.5 -23.5s15.5 -44.834 15.5 -87.501v-31h-37v-264c0 -20 -1.5 -36.667 -4.5 -50s-8.16699 -24 -15.5 -32s-17.166 -13.667 -29.499 -17s-27.833 -5 -46.5 -5h-16v-25h188l3 2
c0 -20.667 -1 -37.834 -3 -51.501s-5.33301 -24.667 -10 -33s-11.167 -14.166 -19.5 -17.499s-18.5 -5 -30.5 -5h-10v-32h257v32c-15.333 0 -27.666 1.66699 -36.999 5s-16.833 9.16602 -22.5 17.499s-9.5 19.333 -11.5 33s-3 30.834 -3 51.501v112h-99v45h63v169l103.5 -97
l70.5 -67l44.5 -43c11 -10.667 19.167 -18.834 24.5 -24.501l11 -11.5l5 -5l19 -30c0 -9.33301 -4.66699 -15.833 -14 -19.5s-27.666 -5.5 -54.999 -5.5v-25h108c2.66699 -4.66699 4 -9.66699 4 -15c0 -9.33301 -3 -16 -9 -20s-18 -6 -36 -6v-32h246v32
c-11.333 1.33301 -22.5 5 -33.5 11s-23.167 15.667 -36.5 29h373z" />
    <glyph glyph-name="L" unicode="L" horiz-adv-x="901" 
d="M1002 0l-0.000976562 24.002h-220l46 98h-33c-10 -16 -20 -28.5 -30 -37.5s-20.5 -15.667 -31.5 -20s-22.5 -7.16602 -34.5 -8.49902s-25 -2 -39 -2l35 110h-33l-14.5 -30l-14.5 -31.5l-13 -28.5c-4 -8.66699 -7.33301 -15.334 -10 -20.001h-128
c-14 0 -25.167 0.666992 -33.5 2s-14.5 4.33301 -18.5 9s-6.66699 11.667 -8 21s-2 21.666 -2 36.999v228h-57v356h-193v-23h17c20 0 36.167 -2.16699 48.5 -6.5s22 -11 29 -20s11.667 -20.5 14 -34.5s3.5 -30.333 3.5 -49h-385v-25h172c24 0 47.333 -0.666992 70 -2
s43 -4.33301 61 -9s32.333 -11.834 43 -21.501s16 -22.5 16 -38.5v-358c0 -15.333 -1 -28.333 -3 -39l-28 -22.5c-11.333 -9 -25 -13.5 -41 -13.5h-23v-21h-264v-24h334c-7.33301 -6 -16.666 -10.167 -27.999 -12.5s-25.333 -3.5 -42 -3.5h-23v-26h484l16 42h361z" />
    <glyph glyph-name="M" unicode="M" horiz-adv-x="1051" 
d="M2 -131v-17h212v329h26v380h2l285 -562l266 572h2v-435c0 -40.667 -6.5 -70.667 -19.5 -90s-38.167 -29 -75.5 -29h-20v-17h195v543h224v24h-224v106h-92l-224 -458l-246 458h-71v69h-258v-22h16c33.333 0 62.333 -2.66699 87 -8s41.667 -18.333 51 -39h-107v-26h16
c20 0 36.333 -1.66699 49 -5s22.5 -9 29.5 -17s11.833 -18.333 14.5 -31s4 -28 4 -46v-559c0 -18 -4.16699 -34.333 -12.5 -49s-19.333 -27.167 -33 -37.5s-29 -18.5 -46 -24.5s-33.833 -9 -50.5 -9z" />
    <glyph glyph-name="N" unicode="N" 
d="M-54 0h466.999v27h-30c-18.667 0 -34.167 1.66699 -46.5 5s-22.166 9 -29.499 17s-12.5 18.667 -15.5 32s-4.5 30 -4.5 50v390l147 -147h-64l381 -380v194h346v23h-369v84h-25v-100l-139 141h77l-312 311h-202v-25c11.333 0 23.5 -0.666992 36.5 -2s25 -3.5 36 -6.5
s20 -6.66699 27 -11s10.5 -9.83301 10.5 -16.5v-447c0 -34 -6.66699 -56.833 -20 -68.5s-35 -17.5 -65 -17.5h-38v-30h-168v-23zM750.999 583c0 18.667 1.49902 33.332 4.49902 43.999s7.83301 18.334 14.5 23.001s15.334 7.5 26.001 8.5s24 1.5 40 1.5h260v24h-426v-208h32
v-140h49v247z" />
    <glyph glyph-name="O" unicode="O" horiz-adv-x="1000" 
d="M-43 290l233.001 -0.000976562v-158c32 -44 73.333 -79.5 124 -106.5s107 -41.5 169 -43.5v44c58 5.33301 110.5 22.333 157.5 51s85.5 65.334 115.5 110.001h295v23h-288v345c-31.333 49.333 -73.333 89.166 -126 119.499s-111.334 47.5 -176.001 51.5v-43
c-58 -5.33301 -110.167 -21.166 -156.5 -47.499s-84.5 -60.5 -114.5 -102.5v-220h-233v-23zM280.001 332.999c0 45.333 4.33203 84.168 12.999 116.501s21.167 59.166 37.5 80.499s36.5 37.5 60.5 48.5s51.667 18.167 83 21.5v76c29.333 -4 58.333 -13.833 87 -29.5
s54.167 -36.334 76.5 -62.001s40.5 -56.167 54.5 -91.5s21 -74.666 21 -117.999c0 -46 -7.16699 -87 -21.5 -123s-33.333 -67 -57 -93s-50.667 -46.333 -81 -61s-61.166 -23.334 -92.499 -26.001v-41c-58.667 9.33301 -103.5 39.833 -134.5 91.5
s-46.5 121.834 -46.5 210.501z" />
    <glyph glyph-name="P" unicode="P" horiz-adv-x="749" 
d="M842 683v24.002h-709v-24h1v-474h-235v-24h235v-54h-26v-191h120v21c-17.333 0 -30 0.333008 -38 1s-13.5 2.16699 -16.5 4.5s-4.83301 6.16602 -5.5 11.499s-2.33398 12.666 -5.00098 21.999h135v20c-20.667 0 -37.834 1.33301 -51.501 4s-24.667 7.66699 -33 15
s-14.166 17.833 -17.499 31.5s-5 31.5 -5 53.5v211c18.667 -11.333 39.667 -20.166 63 -26.499s47.333 -9.5 72 -9.5c25.333 0 49.333 3.16699 72 9.5s43.334 15.166 62.001 26.499v295c0 5.33301 -5.16699 10.833 -15.5 16.5s-22.333 11 -36 16s-27.5 9.33301 -41.5 13
s-24.667 6.16699 -32 7.5h507zM166 621.002c4.66699 2 12.501 3.66992 23.501 5.00293s22.833 2.5 35.5 3.5s24.5 1.83301 35.5 2.5s19.167 1 24.5 1c42.667 0 76.667 -12 102 -36s38 -56.333 38 -97c0 -20 -3.16699 -38.333 -9.5 -55s-15.333 -31.334 -27 -44.001
s-25.334 -22.5 -41.001 -29.5s-32.5 -10.5 -50.5 -10.5c-6 0 -15 0.333008 -27 1s-24.667 1.66699 -38 3s-26 3.16602 -38 5.49902s-21.333 5.16602 -28 8.49902v242z" />
    <glyph glyph-name="Q" unicode="Q" horiz-adv-x="800" 
d="M903 186l0.00195312 23.9971h-249v383c0 14 -9.16699 27.667 -27.5 41s-40.666 25 -66.999 35s-54.166 18 -83.499 24s-55.333 9 -78 9l-1 28c-25.333 0 -51.333 -2.66699 -78 -8s-52.5 -12.666 -77.5 -21.999s-48.5 -20.666 -70.5 -33.999s-41 -28 -57 -44v-480
c41.333 -41.333 92.666 -71.666 153.999 -90.999c3.33301 -10 8.66602 -19 15.999 -27h-384v-24h402c14 -16 28.833 -31 44.5 -45s31.167 -26.667 46.5 -38v-84c6.66699 -6 20.667 -11.833 42 -17.5s46 -10.5 74 -14.5s57.667 -7.16699 89 -9.5s60.666 -3.5 87.999 -3.5h55
v20c-62 1.33301 -113.5 16.666 -154.5 45.999s-70.833 75.333 -89.5 138c30.667 8 59.167 18.833 85.5 32.5s50.166 29.834 71.499 48.501v113h249zM167.002 377.997c0 46.667 5.50195 88.499 16.502 125.499s26.5 68.333 46.5 94s43.833 45.667 71.5 60
s58.167 22.5 91.5 24.5v-46c33.333 0 60.166 -7.5 80.499 -22.5s36.166 -36 47.499 -63s18.833 -59.333 22.5 -97s5.5 -79.5 5.5 -125.5c0 -92.667 -12.5 -165.167 -37.5 -217.5s-64.167 -79.166 -117.5 -80.499v52c-31.333 0 -60.833 6.66699 -88.5 20
s-51.667 32.5 -72 57.5s-36.5 55.833 -48.5 92.5s-18 78.667 -18 126z" />
    <glyph glyph-name="R" unicode="R" horiz-adv-x="800" 
d="M-51 189h257.997v-189h164v21c-23.333 0 -42.166 0.666992 -56.499 2s-25.833 5 -34.5 11s-14.5 15 -17.5 27s-4.5 28.667 -4.5 50v189h66l253 -300h274v24h-85c-28 2 -50.333 6.5 -67 13.5s-31.667 18.5 -45 34.5l-201 245c8.66699 0 18.334 0.666992 29.001 2
s21.5 3.16602 32.5 5.49902s21.5 5.33301 31.5 9s18.333 7.83398 25 12.501v276c-9.33301 8 -18.666 14.5 -27.999 19.5s-24.333 7.5 -45 7.5h-291v-437h-258v-23zM257.997 352l-0.00195312 248.002c4.66699 2 11.334 3.83301 20.001 5.5s18.167 3 28.5 4
s20.833 1.83301 31.5 2.5s20.334 1 29.001 1c48 0 85.5 -10.5 112.5 -31.5s40.5 -51.5 40.5 -91.5c0 -18.667 -3.16699 -36.334 -9.5 -53.001s-16 -31.334 -29 -44.001s-29.167 -22.667 -48.5 -30s-42 -11 -68 -11h-107z" />
    <glyph glyph-name="S" unicode="S" horiz-adv-x="901" 
d="M1001 579l0.00292969 23.9971h-303v117h-33c-6.66699 -22.667 -19 -34 -37 -34c-10 0 -20 1.83301 -30 5.5s-21.333 7.5 -34 11.5s-27.167 7.83301 -43.5 11.5s-35.833 5.5 -58.5 5.5h-577v-26h445c-2 -2 -3.83301 -4.16699 -5.5 -6.5l-5.5 -7.5v-301
c18 -15.333 40.333 -30.5 67 -45.5l80.5 -43.5l76 -40.5c23.667 -13 41.5 -25.167 53.5 -36.5c15.333 -15.333 25.166 -29.666 29.499 -42.999s6.5 -26 6.5 -38c0 -13.333 -4.5 -24.166 -13.5 -32.499s-20.333 -14.833 -34 -19.5s-28.667 -7.83398 -45 -9.50098
s-31.833 -2.5 -46.5 -2.5c-23.333 0 -46.166 4.83301 -68.499 14.5s-43.333 23.167 -63 40.5s-37.667 37.833 -54 61.5s-29.833 49.5 -40.5 77.5h-32v-46h-336v-26h300v-238h32c0 3.33301 1 6.66602 3 9.99902v39h401c12.667 12 24.667 24.167 36 36.5
s21.166 25.5 29.499 39.5s14.833 29.333 19.5 46s7 35.334 7 56.001c0 29.333 -6.83301 56 -20.5 80s-31.5 45.833 -53.5 65.5s-46.5 37.834 -73.5 54.501s-53.5 32 -79.5 46l-73 40c-22.667 12.667 -40.334 25 -53.001 37c-3.33301 2.66699 -6 7.83398 -8 15.501
s-3.5 16 -4.5 25s-1.66699 18 -2 27s-0.5 16.167 -0.5 21.5c0 14 2.33301 25.333 7 34c16 8 34.667 12 56 12s42.166 -4 62.499 -12s39.5 -19.5 57.5 -34.5s34.667 -33 50 -54s28.333 -44.5 39 -70.5h33v113h337z" />
    <glyph glyph-name="T" unicode="T" horiz-adv-x="703" 
d="M-49 1l311.997 -0.000976562c-7.33301 -11.333 -17.666 -18.166 -30.999 -20.499s-28.333 -3.5 -45 -3.5h-25v-20h180v61h190v22h-20c-19.333 0 -35.166 2 -47.499 6s-22.166 10.333 -29.499 19s-12.333 20.167 -15 34.5s-4 31.5 -4 51.5v38h346v23h-346v433h112
c21.333 0 38.833 -1.33301 52.5 -4s24.5 -7.83398 32.5 -15.501s13.833 -17.834 17.5 -30.501s6.5 -29 8.5 -49h20v135h-357v-38h-267v-152h19c0 19.333 1.16699 36.333 3.5 51s7.16602 26.834 14.499 36.501s17.666 17 30.999 22s31 7.5 53 7.5h124v-492
c0 -18.667 -0.166992 -33.667 -0.5 -45s-0.666016 -20.166 -0.999023 -26.499s-0.666016 -11 -0.999023 -14s-0.833008 -5.5 -1.5 -7.5h-325v-22z" />
    <glyph glyph-name="U" unicode="U" horiz-adv-x="951" 
d="M1002 190v23.9961h-286c5.33301 21.333 9 43.833 11 67.5s3 48.167 3 73.5v318c3.33301 26.667 12 44.834 26 54.501s37 14.5 69 14.5h15v25h-229v-26h19c17.333 0 29.666 -3.16699 36.999 -9.5s11 -15.166 11 -26.499v-32h-95v-32h27c22.667 0 37.167 -6.66699 43.5 -20
s9.5 -37.666 9.5 -72.999v-223c0 -24 -0.166992 -42.833 -0.5 -56.5s-0.666016 -24 -0.999023 -31s-0.666016 -11.833 -0.999023 -14.5s-0.5 -5 -0.5 -7c-5.33301 -14 -12 -29.167 -20 -45.5s-17.5 -31.333 -28.5 -45s-23.667 -25.167 -38 -34.5s-30.5 -14 -48.5 -14l-1 -28
c-4.66699 -1.33301 -12.834 -2.16602 -24.501 -2.49902s-32.834 -0.5 -63.501 -0.5c-53.333 0 -95.666 15.333 -126.999 46s-47 79.667 -47 147v426h-359v-25h180c22.667 -4 38.834 -13 48.501 -27s14.5 -35 14.5 -63v-325c0 -80.667 22 -141.5 66 -182.5
s109 -61.5 195 -61.5c81.333 0 146.666 19 195.999 57s84 88.667 104 152h295z" />
    <glyph glyph-name="V" unicode="V" horiz-adv-x="849" 
d="M957 626l0.000976562 23.9961h-252v23h-144v-32c23.333 0 40.166 -3.66699 50.499 -11s15.5 -19.666 15.5 -36.999c0 -4 -0.666992 -9.16699 -2 -15.5s-4.66602 -17.166 -9.99902 -32.499l-23.5 -65l-42.5 -113h32l-30 -67h-34l-50 -123l-160 323h-41l-46 100h38l-59 119
h-138v-22c8.66699 0 16.167 -0.833008 22.5 -2.5s12.5 -5.16699 18.5 -10.5s12 -12.666 18 -21.999s13.333 -21.666 22 -36.999l26 -47h-53v-32c10.667 0 20.167 -1.33301 28.5 -4s16.166 -7.66699 23.499 -15s15 -17.666 23 -30.999s17.333 -31 28 -53l112 -231h-390v-24
h401l101 -207l109 267l18 1l126 279l22 46.5c6 12.333 11.833 22 17.5 29s11.5 12.167 17.5 15.5s13 5.66602 21 6.99902h184z" />
    <glyph glyph-name="W" unicode="W" horiz-adv-x="1200" 
d="M242 727l-151.001 0.00292969v-32c12.667 -0.666992 23 -2.33398 31 -5.00098s15.5 -8.33398 22.5 -17.001s14.667 -21.5 23 -38.5s18.833 -40.5 31.5 -70.5l150 -352h-407v-24h417l88 -207l146 370l117 -271h19l8 21l53 -120l229 594h-63v-2l-139 -374l-38 86l99 256
c6 16 11.167 29 15.5 39s8.33301 18 12 24s7.5 10.667 11.5 14s8.66699 6 14 8h324v24h-452v-21c19.333 0 33 -2 41 -6s12 -12 12 -24c0 -3.33301 -0.666992 -7.5 -2 -12.5s-5.16602 -16 -11.499 -33l-29 -77l-54.5 -144.5l-111 268h-130l10.5 -17.5
c3.66699 -6.33301 7.16699 -13.5 10.5 -21.5h-78v-22c10.667 0 19.667 -1 27 -3s14 -5.5 20 -10.5s11.667 -12.333 17 -22s11.333 -21.834 18 -36.501l22 -51l-75 -187l-85 205h-29z" />
    <glyph glyph-name="X" unicode="X" horiz-adv-x="951" 
d="M-56 690l170.998 0.00292969c24 -5.33301 50.833 -16.833 80.5 -34.5s58.834 -45.5 87.501 -83.5l152 -180h-86l46 -48l-135 -218c-16 -20.667 -30.333 -38.334 -43 -53.001s-24.834 -27 -36.501 -37s-23.667 -17.667 -36 -23s-26.5 -9 -42.5 -11v-24h262v24
c-11.333 0 -23.166 0.666992 -35.499 2s-23.5 3.5 -33.5 6.5s-18.167 6.83301 -24.5 11.5s-9.5 10.667 -9.5 18c0 9.33301 5.33301 23.333 16 42s26.667 40.667 48 66l96 151l176 -192c16 -22 26.5 -37.833 31.5 -47.5s7.5 -17.834 7.5 -24.501
c0 -12 -4.66699 -20.667 -14 -26s-25.666 -8 -48.999 -8v-23h309v23c-16.667 0.666992 -36.5 9 -59.5 25s-45.167 39 -66.5 69l-248 296l55 2l-176 203c-13.333 15.333 -22.333 28.5 -27 39.5s-7 19.5 -7 25.5c0 21.333 21.667 32.666 65 33.999v21h-474v-26z
M639.998 398.003c26 32.667 49.3252 66.333 69.9922 101s40.334 66.167 59.001 94.5s36.834 51.833 54.501 70.5s36.834 28.667 57.501 30l1 24h-223l-1 -22c28.667 0.666992 49.834 -1.66602 63.501 -6.99902s22.334 -12.5 26.001 -21.5s3.33398 -19.333 -0.999023 -31
s-10.166 -23.834 -17.499 -36.501s-15.166 -25.167 -23.499 -37.5s-14.833 -23.5 -19.5 -33.5l-85 -131h39z" />
    <glyph glyph-name="Y" unicode="Y" horiz-adv-x="903" 
d="M954 0l0.00195312 23.0049h-402c-18 0 -33 1.33301 -45 4s-21.833 7.5 -29.5 14.5s-13.334 16.167 -17.001 27.5s-5.5 25.666 -5.5 42.999h25v186h-48l68 90v75l-73 -71l-84.5 121.5c-20.333 29.667 -35.333 52.167 -45 67.5s-15.667 25.666 -18 30.999
s-3.5 9.66602 -3.5 12.999c0 5.33301 2.16699 9.83301 6.5 13.5s10.166 6.5 17.499 8.5s15.666 3.5 24.999 4.5s19 1.5 29 1.5v24h-503v-24h222c8.66699 -0.666992 16.5 -2.66699 23.5 -6s14.167 -8.33301 21.5 -15s15.5 -15.334 24.5 -26.001l32.5 -39l159 -229h42v-167
h-16v-281h141v23h-23c-35.333 0 -60.166 6.16699 -74.499 18.5s-21.833 35.166 -22.5 68.499h573zM950.002 685.005l0.000976562 22.999h-403v-25c33.333 0 60.833 -1.16699 82.5 -3.5s32.5 -9.83301 32.5 -22.5l-135 -167h2v-67l141 169
c12.667 15.333 24.667 28.833 36 40.5s22.666 21.334 33.999 29.001s23 13.5 35 17.5s25.333 6 40 6h135z" />
    <glyph glyph-name="Z" unicode="Z" horiz-adv-x="999" 
d="M1055 0l0.00195312 24.001h-351v32h-276l220 288h-53l246 332h-160l40 47h-590v-122h33c0 14.667 2.33301 26.667 7 36s11.167 16.666 19.5 21.999s18 9 29 11s23.167 3 36.5 3v-162h33c0.666992 19.333 3.16699 36.333 7.5 51s11.666 27 21.999 37
s24.166 17.5 41.499 22.5s39 7.5 65 7.5h265l-227 -290h39l-98 -127h-462v-24h444l-120 -156v-32h789z" />
    <glyph glyph-name="bracketleft" unicode="[" horiz-adv-x="402" 
d="M454 1l-0.000976562 24h-186v36h-17v100h17v139h-54v88h13v247c3.33301 2.66699 8 4.33398 14 5.00098s13.667 1 23 1h59v32h-96c1.33301 15.333 5.33301 25.166 12 29.499s19.334 6.5 38.001 6.5h59v32h-185v-68h-58v-63h14v-95h-14v-224h54v-267h-196v-24h196v-134h41
v-69h189v32h-68c-15.333 0 -26 4 -32 12s-9 20.333 -9 37v123h186z" />
    <glyph glyph-name="backslash" unicode="\" horiz-adv-x="401" 
d="M0 685l93 -354h96l-92 354h-97zM280 2h96l-89 338h-96z" />
    <glyph glyph-name="bracketright" unicode="]" horiz-adv-x="403" 
d="M190 1l-0.000976562 -123c0 -18 -3 -30.667 -9 -38s-16.667 -11 -32 -11h-68v-32h189v69h41v523h54v284h-58v68h-185v-32h59c18.667 0 31.334 -2.16699 38.001 -6.5s10.667 -14.166 12 -29.499h-77v10h-206v-24h187v-18h59c9.33301 0 17 -0.333008 23 -1
s10.667 -2.33398 14 -5.00098v-247h37v-130h-78v-97h31v-100h-31v-36h-241v-24h241z" />
    <glyph glyph-name="asciicircum" unicode="^" horiz-adv-x="581" 
d="M344 357h79l-139 247v69h-14l-13 -22l-31 56h-12v-119l4 -7l-146 -258h81l105 186z" />
    <glyph glyph-name="underscore" unicode="_" horiz-adv-x="1000" 
d="M174 -125h110v50h-110v-50zM643 -91h110v50h-110v-50zM506 -125v34h1v50h-44v-34h-15v-50h58zM354 -125h73v50h-73v-50zM823 -91h73v50h-73v-50zM975 -91v50h-58v-50h58zM584 -91h44v50h-44v-50zM-6 -75v-50h44v50h-44zM115 -125h44v50h-44v-50zM525 -91h44v50h-44v-50z
M56 -125h44v50h-44v-50zM300 -125h35v50h-35v-50zM769 -91h35v50h-35v-50z" />
    <glyph glyph-name="grave" unicode="`" horiz-adv-x="333" 
d="M252 544l-27 87h-28l-24 83h-125l63 -90h38l67 -80h36z" />
    <glyph glyph-name="a" unicode="a" 
d="M905 185v24h-497v-24h497zM621 636v23h-696v-23h696zM651 -1l454 1v23h-454v-24zM508 505h602v24h-602v-24zM431 341v24h-497v-24h497z" />
    <glyph glyph-name="b" unicode="b" 
d="M899 395v24h-497v-24h497zM621 636v23h-696v-23h696zM651 288l454 1v23h-454v-24zM501 563h602v24h-602v-24zM420 188v24h-497v-24h497z" />
    <glyph glyph-name="c" unicode="c" 
d="M894 107v24h-497v-24h497zM616 348v23h-696v-23h696zM646 0l454 1v23h-454v-24zM496 274h602v24h-602v-24zM414 191v24h-497v-24h497z" />
    <glyph glyph-name="d" unicode="d" 
d="M905 473v-24h-497v24h497zM621 22v-23h-696v23h696zM651 659l454 -1v-23h-454v24zM508 153h602v-24h-602v24zM431 317v-24h-497v24h497z" />
    <glyph glyph-name="e" unicode="e" 
d="M129 473v-24h497v24h-497zM413 22v-23h696v23h-696zM383 659l-454 -1v-23h454v24zM526 153h-602v-24h602v24zM603 317v-24h497v24h-497z" />
    <glyph glyph-name="f" unicode="f" 
d="M129 185v24h497v-24h-497zM413 636v23h696v-23h-696zM383 -1l-454 1v23h454v-24zM526 505h-602v24h602v-24zM603 341v24h497v-24h-497z" />
    <glyph glyph-name="g" unicode="g" 
d="M122 263v-24h497v24h-497zM400 22v-23h696v23h-696zM370 370l-454 -1v-23h454v24zM520 96h-602v-24h602v24zM602 179v-24h497v24h-497z" />
    <glyph glyph-name="h" unicode="h" 
d="M129 395v24h497v-24h-497zM407 636v23h696v-23h-696zM377 288l-454 1v23h454v-24zM527 561h-602v24h602v-24zM608 495v24h497v-24h-497z" />
    <glyph glyph-name="i" unicode="i" 
d="M-55 482v-24h497v24h-497zM-54 23v-23h696v23h-696zM1096 670l-454 -1v-23h454v24zM1044 150h-602v-24h602v24zM290 325v-24h497v24h-497z" />
    <glyph glyph-name="j" unicode="j" 
d="M1100 212v-24h-497v24h497zM621 22v-23h-696v23h696zM649 580l454 -1v-23h-454v24zM-78 209h602v-24h-602v24zM641 406v-24h-497v24h497z" />
    <glyph glyph-name="k" unicode="k" 
d="M-76 366v24h497v-24h-497zM403 556v23h696v-23h-696zM375 -2l-454 1v23h454v-24zM1102 369h-602v24h602v-24zM383 172v24h497v-24h-497z" />
    <glyph glyph-name="l" unicode="l" 
d="M-76 210v-24h497v24h-497zM403 20v-23h696v23h-696zM375 578l-454 -1v-23h454v24zM1102 207h-602v-24h602v24zM383 404v-24h497v24h-497z" />
    <glyph glyph-name="m" unicode="m" 
d="M1098 366v24h-497v-24h497zM619 556v23h-696v-23h696zM647 -2l454 1v23h-454v-24zM-80 369h602v24h-602v-24zM639 172v24h-497v-24h497z" />
    <glyph glyph-name="n" unicode="n" horiz-adv-x="800" 
d="M762 23h-725v-23h725v23zM88 207v-24h602v24h-602zM630 354h-476v-24h476v24zM593 507h-406v-24h406v24zM234 655v-24h322v23z" />
    <glyph glyph-name="o" unicode="o" horiz-adv-x="800" 
d="M762 631v23h-725v-23h725zM88 447h602v24h-602v-24zM630 300v24h-476v-24h476zM593 147v24h-406v-24h406zM234 -1l322 1v23h-322v-24z" />
    <glyph glyph-name="p" unicode="p" horiz-adv-x="800" 
d="M445 151v24h-406v-24h406zM762 630v23h-725v-23h725zM39 1l322 1v23h-322v-24zM39 444h602v24h-602v-24zM515 295v24h-476v-24h476z" />
    <glyph glyph-name="q" unicode="q" horiz-adv-x="800" 
d="M445 503v-24h-406v24h406zM762 24v-23h-725v23h725zM39 653l322 -1v-23h-322v24zM39 210h602v-24h-602v24zM515 359v-24h-476v24h476z" />
    <glyph glyph-name="r" unicode="r" horiz-adv-x="800" 
d="M353 503v-24h406v24h-406zM36 24v-23h725v23h-725zM759 653l-322 -1v-23h322v24zM759 210h-602v-24h602v24zM283 359v-24h476v24h-476z" />
    <glyph glyph-name="s" unicode="s" horiz-adv-x="800" 
d="M353 151v24h406v-24h-406zM36 630v23h725v-23h-725zM759 1l-322 1v23h322v-24zM759 444h-602v24h602v-24zM283 295v24h476v-24h-476z" />
    <glyph glyph-name="t" unicode="t" horiz-adv-x="803" 
d="M171 115v-23h696v23h-696zM506 208h-602v-24h602v24zM-84 413v-24h497v24h-497zM368 316v-24h497v24h-497zM860 543h-454v-24h454v24z" />
    <glyph glyph-name="u" unicode="u" horiz-adv-x="803" 
d="M599 115h-696v-23h696v23zM264 208v-24h602v24h-602zM854 413h-497v-24h497v24zM402 316h-497v-24h497v24zM-90 543v-24h454v24h-454z" />
    <glyph glyph-name="v" unicode="v" horiz-adv-x="803" 
d="M599 519v23h-696v-23h696zM264 426h602v24h-602v-24zM854 221v24h-497v-24h497zM402 318v24h-497v-24h497zM-90 91h454v24h-454v-24z" />
    <glyph glyph-name="w" unicode="w" horiz-adv-x="803" 
d="M171 519h696v23h-696v-23zM506 426v24h-602v-24h602zM-84 221h497v24h-497v-24zM368 318h497v24h-497v-24zM860 91v24h-454v-24h454z" />
    <glyph glyph-name="x" unicode="x" 
d="M997 191v24h-497v-24h497zM1096 647v23h-696v-23h696zM-54 0l454 1v23h-454v-24zM494 491h602v24h-602v-24zM706 339v24h-497v-24h497z" />
    <glyph glyph-name="y" unicode="y" 
d="M997 479v-24h-497v24h497zM1096 23v-23h-696v23h696zM-54 670l454 -1v-23h-454v24zM494 179h602v-24h-602v24zM706 331v-24h-497v24h497z" />
    <glyph glyph-name="z" unicode="z" horiz-adv-x="203" 
d="M39 479h123v24h-123v-24zM39 210v-24h123v24h-123zM39 653v-24h123v24h-123zM39 335h123v24h-123v-24zM37 1h125v23h-125v-23z" />
    <glyph glyph-name="braceleft" unicode="{" horiz-adv-x="402" 
d="M454 1l-0.000976562 24h-186v36h-17v60h17v116h-137v151h96v247c3.33301 2.66699 8 4.33398 14 5.00098s13.667 1 23 1h59v32h-96c1.33301 15.333 5.33301 25.166 12 29.499s19.334 6.5 38.001 6.5h59v32h-185v-68h-58v-63h14v-53c-15.333 -30.667 -28.333 -63 -39 -97
h-47c-2 -7.33301 -4.83301 -15.666 -8.5 -24.999s-7 -19.333 -10 -30s-5.66699 -21.334 -8 -32.001s-3.5 -21 -3.5 -31c0 -30.667 3 -54.334 9 -71.001s12 -28.667 18 -36h30c22.667 -65.333 55.667 -121.666 99 -168.999v-42h-196v-24h196v-134h41v-69h189v32h-68
c-15.333 0 -26 4 -32 12s-9 20.333 -9 37v123h186z" />
    <glyph glyph-name="bar" unicode="|" horiz-adv-x="198" 
d="M145 -213v558h29v345h-91v-330h-15v116h-35v-345h21v-344h91z" />
    <glyph glyph-name="braceright" unicode="}" horiz-adv-x="451" 
d="M136 -122c-0.666992 -20 -3.83301 -33.168 -9.5 -39.501s-16.167 -9.5 -31.5 -9.5h-68v-32h189v69h41v134h245v24h-245v42c43.333 47.333 76.333 103.666 99 168.999h30c0.666992 4.66699 2.5 9.83398 5.5 15.501s6 12.334 9 20.001s5.83301 17 8.5 28s4 24.5 4 40.5
c0 20 -3.83301 40.167 -11.5 60.5s-13.834 40.5 -18.501 60.5h-47c-10.667 34 -23.667 66.333 -39 97v53h14v63h-58v68h-185v-32h59c18.667 0 31.334 -2.16699 38.001 -6.5s10.667 -14.166 12 -29.499h-68v11h-154v-24h126v-19h59c9.33301 0 17 -0.333008 23 -1
s10.667 -2.33398 14 -5.00098v-247h96v-151h-137v-116h17v-60h-17v-183z" />
    <glyph glyph-name="asciitilde" unicode="~" horiz-adv-x="667" 
d="M498 500c-2.66699 -28 -10.6699 -49.833 -24.0029 -65.5s-31.666 -23.5 -54.999 -23.5c-10 0 -21.833 2 -35.5 6s-27.667 9 -42 15l-44 19c-15 6.66699 -29.167 12.667 -42.5 18v-89h-144c-13.333 -14 -24.166 -32.167 -32.499 -54.5s-12.5 -49.833 -12.5 -82.5h33
c4.66699 30 13.334 52 26.001 66s30.667 21 54 21c16 0 34.5 -3.83301 55.5 -11.5s42.833 -16.5 65.5 -26.5v65h180c18 17.333 31 37.5 39 60.5s12 50.5 12 82.5h-33z" />
    <glyph glyph-name="dieresis" unicode="&#xa8;" horiz-adv-x="997" 
d="M-57 -1h399.001v14h136v-36h261v52h312v23h-312v1h-300c-12.667 0 -22.667 0.833008 -30 2.5s-13 4.83398 -17 9.50098s-6.66699 11.167 -8 19.5s-2 19.5 -2 33.5v182h133v-29h157v110h-22c0 -14 -1.16699 -24.833 -3.5 -32.5s-5.5 -13.5 -9.5 -17.5
s-8.66699 -6.33301 -14 -7s-11 -1 -17 -1h-68v31h-156v281h140v-32h67c14.667 0 28 -1.33301 40 -4s23 -7.66699 33 -15s19.167 -17.666 27.5 -30.999s16.166 -30.666 23.499 -51.999h21v156h-123v50h-661v-23h214v-1c20 0 36.667 -2.33301 50 -7
s23.833 -11.834 31.5 -21.501s13 -22.167 16 -37.5s4.5 -34 4.5 -56v-435c0 -21.333 -1.5 -38.833 -4.5 -52.5s-8.5 -24.334 -16.5 -32.001s-18.5 -12.834 -31.5 -15.501s-29.5 -4 -49.5 -4h-221v-23zM571.001 838h122v106h-122v-106zM369.001 784h122v106h-122v-106z" />
    <glyph glyph-name="ordfeminine" unicode="&#xaa;" horiz-adv-x="1000" 
d="M777 0l277.994 0.000976562v23h-278v17h-54l65 116h-61l-4 -6c-9.33301 -17.333 -19.666 -33.333 -30.999 -48s-24.833 -27.5 -40.5 -38.5s-33.667 -19.5 -54 -25.5s-43.5 -9 -69.5 -9c-28 0 -54.167 4 -78.5 12s-45.5 20 -63.5 36s-32.333 36.333 -43 61
s-16 53.667 -16 87h-84v284h84c4.66699 16.667 13.334 31.5 26.001 44.5s28 24.167 46 33.5s37.833 16.5 59.5 21.5s43.834 7.5 66.501 7.5c34 0 66.5 -5.83301 97.5 -17.5s56.167 -30.167 75.5 -55.5h54l37 134l-33 23l-5 -12c-2 -4.66699 -5 -9.33398 -9 -14.001
s-8.83301 -8.5 -14.5 -11.5s-12.5 -4.5 -20.5 -4.5c-20 0 -39 2 -57 6s-36 8.5 -54 13.5s-36.167 9.66699 -54.5 14s-37.5 6.5 -57.5 6.5c-29.333 0 -62.333 -4.83301 -99 -14.5s-73.167 -22 -109.5 -37s-70.166 -31.833 -101.499 -50.5s-56 -37 -74 -55v-28h22v-154h31
v-148h-205v-23h240v-100c40 -36 87.833 -62.833 143.5 -80.5s115.834 -26.5 180.501 -26.5c14.667 0 30.167 0.666992 46.5 2s32.333 3.33301 48 6s30.334 5.66699 44.001 9s25.167 7 34.5 11l6 -47zM273.994 380.001v-47.001h221c36 0 60.333 -9.16699 73 -27.5
s19 -44.5 19 -78.5h14v263h-14c0 -23.333 -2.5 -42.166 -7.5 -56.499s-11.833 -25.5 -20.5 -33.5s-18.667 -13.333 -30 -16s-23.333 -4 -36 -4h-219z" />
    <glyph glyph-name="FL00AFh" unicode="&#xaf;" horiz-adv-x="500" 
d="M457 0l-504.998 0.00195312v24h148v15c12.667 2 23.667 4.66699 33 8s17.166 8.16602 23.499 14.499s11.166 14.833 14.499 25.5s5 24 5 40v447c0 20 -1.33301 36.667 -4 50s-7.66699 23.833 -15 31.5s-17.166 13.167 -29.499 16.5s-28.166 5 -47.499 5h-26v20h243v19
h254v-24h-144v-16h-12c-18.667 0 -34 -1.66699 -46 -5s-21.667 -9 -29 -17s-12.5 -18.667 -15.5 -32s-4.5 -30 -4.5 -50v-463c0 -20 3.66699 -35.833 11 -47.5s17.166 -20.334 29.499 -26.001s26.666 -9.16699 42.999 -10.5s33.833 -2 52.5 -2h21v-23zM74.002 761.002v106
h122v-106h-122zM276.002 815.002v106h122v-106h-122z" />
    <glyph glyph-name="plusminus" unicode="&#xb1;" horiz-adv-x="600" 
d="M0 0h669v64h-291v220h115v129h-169v75h380v24h-380v88h-90v-204h-131v-90h185v-91h-389v-24h389v-127h-288v-64z" />
    <glyph glyph-name="twosuperior" unicode="&#xb2;" horiz-adv-x="500" 
d="M457 0l-0.00195312 22.998h-21c-18.667 0 -36.167 0.666992 -52.5 2s-30.666 4.83301 -42.999 10.5s-22.166 14.334 -29.499 26.001s-11 27.5 -11 47.5v463c0 20 1.5 36.667 4.5 50s8.16699 24 15.5 32s17 13.667 29 17s27.333 5 46 5h12v16h144v24h-254v-19h-243v-20h26
c19.333 0 35.166 -1.66699 47.499 -5s22.166 -8.83301 29.499 -16.5s12.333 -18.167 15 -31.5s4 -30 4 -50v-447c0 -16 -1.66699 -29.333 -5 -40s-8.16602 -19.167 -14.499 -25.5s-14.166 -11.166 -23.499 -14.499s-20.333 -6 -33 -8v-15h-148v-24h505z" />
    <glyph glyph-name="threesuperior" unicode="&#xb3;" 
d="M-55 482v-24h497v24h-497zM-54 23v-23h696v23h-696zM1096 670l-454 -1v-23h454v24zM1044 150h-602v-24h602v24zM290 325v-24h497v24h-497z" />
    <glyph glyph-name="mu" unicode="&#xb5;" horiz-adv-x="803" 
d="M599 115h-696v-23h696v23zM264 208v-24h602v24h-602zM854 413h-497v-24h497v24zM402 316h-497v-24h497v24zM-90 543v-24h454v24h-454z" />
    <glyph glyph-name="paragraph" unicode="&#xb6;" horiz-adv-x="401" 
d="M338 -28h23v725h-23v-725zM265 691v-602h24v602h-24zM185 216h24v476h-24v-476zM112 283h24v406h-24v-406zM51 688l1 -322h23v322h-24z" />
    <glyph glyph-name="periodcentered" unicode="&#xb7;" horiz-adv-x="200" 
d="M47 274h122v106h-122v-106z" />
    <glyph glyph-name="FL00B8h" unicode="&#xb8;" horiz-adv-x="803" 
d="M171 519h696v23h-696v-23zM506 426v24h-602v-24h602zM-84 221h497v24h-497v-24zM368 318h497v24h-497v-24zM860 91v24h-454v-24h454z" />
    <glyph glyph-name="onesuperior" unicode="&#xb9;" 
d="M-54 0l467.002 0.000976562v27h-30c-18.667 0 -34.167 1.66699 -46.5 5s-22.166 9 -29.499 17s-12.5 18.667 -15.5 32s-4.5 30 -4.5 50v390l147 -147h-64l381 -380v194h346v23h-118c10 5.33301 19.167 12.166 27.5 20.499s16.166 17.5 23.499 27.5v169h24v158
c-14 21.333 -31 38.333 -51 51s-41.667 19 -65 19c-16.667 0 -32.834 -3.5 -48.501 -10.5s-29.834 -16.667 -42.501 -29s-23.667 -26.833 -33 -43.5s-16 -34.667 -20 -54h42v-82h-24v-191c12 -14 25.667 -25.667 41 -35h-125v84h-25v-100l-139 141h77l-312 311h-202v-25
c11.333 0 23.5 -0.666992 36.5 -2s25 -3.5 36 -6.5s20 -6.66699 27 -11s10.5 -9.83301 10.5 -16.5v-447c0 -34 -6.66699 -56.833 -20 -68.5s-35 -17.5 -65 -17.5h-38v-30h-168v-23zM751.002 583.001c0 18.667 1.49902 33.332 4.49902 43.999s7.83301 18.334 14.5 23.001
s15.334 7.5 26.001 8.5s24 1.5 40 1.5h260v24h-426v-208h32v-140h49v247zM940.001 526.999c26 0 42.666 -30 49.999 -90h-30c-2 -11.333 -4.5 -23.833 -7.5 -37.5s-6.5 -26.167 -10.5 -37.5s-8.33301 -20.833 -13 -28.5s-9.66699 -11.5 -15 -11.5s-10.333 3.33301 -15 10
s-9 15.167 -13 25.5s-7.5 21.833 -10.5 34.5s-5.5 24.667 -7.5 36h22c4.66699 66 21.334 99 50.001 99zM916 224.999c-24 0 -39.667 24.667 -47 74c14 -6 29 -9 45 -9c15.333 0 32 3.66699 50 11c-6.66699 -50.667 -22.667 -76 -48 -76zM940 558.999
c-15.333 0 -32 -3.66699 -50 -11c8 50.667 24 76 48 76s40 -25 48 -75c-14 6.66699 -29.333 10 -46 10z" />
    <glyph glyph-name="ordmasculine" unicode="&#xba;" 
d="M997 191v24h-497v-24h497zM1096 647v23h-696v-23h696zM-54 0l454 1v23h-454v-24zM494 491h602v24h-602v-24zM706 339v24h-497v-24h497z" />
    <glyph glyph-name="onequarter" unicode="&#xbc;" 
d="M1100 212v-24h-497v24h497zM621 22v-23h-696v23h696zM649 580l454 -1v-23h-454v24zM-78 209h602v-24h-602v24zM641 406v-24h-497v24h497z" />
    <glyph glyph-name="onehalf" unicode="&#xbd;" horiz-adv-x="901" 
d="M1001 579l0.00195312 23.998h-303v117h-33c-6.66699 -22.667 -19 -34 -37 -34c-10 0 -20 1.83301 -30 5.5s-21.333 7.5 -34 11.5s-27 7.83301 -43 11.5s-35.333 5.5 -58 5.5h-578v-26h445c-2 -2 -3.83301 -4.16699 -5.5 -6.5l-5.5 -7.5v-301
c18 -15.333 40.333 -30.5 67 -45.5l80.5 -43.5l76 -40.5c23.667 -13 41.5 -25.167 53.5 -36.5c15.333 -15.333 25.166 -29.666 29.499 -42.999s6.5 -26 6.5 -38c0 -17.333 -4.33301 -33.333 -13 -48c-4.66699 -2.66699 -12.667 -5 -24 -7s-23.5 -3.66699 -36.5 -5
s-25.667 -2.33301 -38 -3s-21.5 -1 -27.5 -1c-23.333 0 -46.166 4.83301 -68.499 14.5s-43.333 23.167 -63 40.5s-37.667 37.833 -54 61.5s-29.833 49.5 -40.5 77.5h-32v-47h-336v-25h300v-238h32c0 3.33301 1 6.66602 3 9.99902v39h401c12.667 12 24.667 24.333 36 37
s21.166 26 29.499 40s14.833 29.167 19.5 45.5s7 34.833 7 55.5c0 29.333 -6.83301 56 -20.5 80s-31.5 45.833 -53.5 65.5s-46.5 37.834 -73.5 54.501s-53.5 32 -79.5 46l-73 40c-22.667 12.667 -40.334 25 -53.001 37c-3.33301 4.66699 -5.83301 10.834 -7.5 18.501
s-3.16699 15.834 -4.5 24.501s-2.16602 17.167 -2.49902 25.5s-0.5 15.166 -0.5 20.499c0 14 2.33301 25.333 7 34c16 8 34.667 12 56 12s42.166 -4 62.499 -12s39.5 -19.5 57.5 -34.5s34.667 -33 50 -54s28.333 -44.5 39 -70.5h33v113h337z" />
    <glyph glyph-name="threequarters" unicode="&#xbe;" horiz-adv-x="800" 
d="M353 151v24h406v-24h-406zM36 630v23h725v-23h-725zM759 1l-322 1v23h322v-24zM759 444h-602v24h602v-24zM283 295v24h476v-24h-476z" />
    <glyph glyph-name="questiondown" unicode="&#xbf;" 
d="M1098 366v24h-497v-24h497zM619 556v23h-696v-23h696zM647 -2l454 1v23h-454v-24zM-80 369h602v24h-602v-24zM639 172v24h-497v-24h497z" />
    <glyph glyph-name="Agrave" unicode="&#xc0;" horiz-adv-x="946" 
d="M668 309l-161.002 288.001h-64v-30h-494v-23h382l-197 -402c-17.333 -36 -35.333 -64.333 -54 -85s-39.667 -31.334 -63 -32.001v-25h157v18c-12.667 0 -21.334 2.16699 -26.001 6.5s-7 9.83301 -7 16.5c0 5.33301 0.833008 10.666 2.5 15.999
s3.83398 10.666 6.50098 15.999l62 118h310c10.667 -24 19.334 -44.167 26.001 -60.5s11.667 -29.666 15 -39.999s5.66602 -18.333 6.99902 -24s2 -10.167 2 -13.5c0 -12 -4.66699 -20.667 -14 -26s-28.666 -8.33301 -57.999 -9v-18h499v24
c-12 0.666992 -30.667 1.83398 -56 3.50098s-52.666 4 -81.999 7s-58.5 6.83301 -87.5 11.5s-53.167 11 -72.5 19l-118 244h85zM503.998 221.001h-274l130 275z" />
    <glyph glyph-name="Aacute" unicode="&#xc1;" horiz-adv-x="950" 
d="M337 385v238.999h210c48 0 82.833 -6.5 104.5 -19.5s32.5 -32.5 32.5 -58.5h34v133h-357v58h-408v-24h272c16 0 28.5 -3.33301 37.5 -10s16.833 -14.667 23.5 -24h-51v-29c21.333 0 37 -0.166992 47 -0.5s17.333 -1.16602 22 -2.49902v-113h-19v-191h45v-153h-53v-112h24
v-54h-352v-24h352v-38h43v38h180c56 0 100.833 10.5 134.5 31.5s58.5 46.5 74.5 76.5v77h266v24h-266v75c-12 19.333 -28.167 35.5 -48.5 48.5s-43 23.333 -68 31s-51.833 13.167 -80.5 16.5s-57.667 5 -87 5h-112zM464 328.999l85.0029 -0.000976562
c25.333 0 47.166 -5.66699 65.499 -17s33.666 -25.666 45.999 -42.999s22.166 -37 29.499 -59s12.666 -43.333 15.999 -64h-95c-2.66699 -20.667 -8.16699 -36.667 -16.5 -48s-19 -19.833 -32 -25.5s-28.5 -9.16699 -46.5 -10.5s-38 -2 -60 -2c-16 0 -31.667 0.333008 -47 1
s-28.666 2.66699 -39.999 6v229h95v33z" />
    <glyph glyph-name="Acircumflex" unicode="&#xc2;" horiz-adv-x="950" 
d="M361 679v57.999h-408v-24h272c16 0 28.5 -3.33301 37.5 -10s16.833 -14.667 23.5 -24h-51v-29c21.333 0 37 -0.166992 47 -0.5s17.333 -1.16602 22 -2.49902v-113h-19v-191h45v-153h-53v-112h24v-54h-352v-24h352v-38h43v38h180c56 0 100.833 10.5 134.5 31.5
s58.5 46.5 74.5 76.5v77h266v24h-266v75c-3.33301 4 -8.16602 9.33301 -14.499 16s-13.5 13.667 -21.5 21s-16.333 14.333 -25 21s-16.334 11.667 -23.001 15c7.33301 1.33301 17.833 5.5 31.5 12.5s26.167 14.167 37.5 21.5v288h-357zM464 328.999l85.0029 -0.000976562
c25.333 0 47.166 -5.66699 65.499 -17s33.666 -25.666 45.999 -42.999s22.166 -37 29.499 -59s12.666 -43.333 15.999 -64h-95c-2.66699 -20.667 -8.16699 -36.667 -16.5 -48s-19 -19.833 -32 -25.5s-28.5 -9.16699 -46.5 -10.5s-38 -2 -60 -2c-16 0 -31.667 0.333008 -47 1
s-28.666 2.66699 -39.999 6v229h95v33zM337.003 384.998v239h210c48 0 82.5 -13.167 103.5 -39.5s32.167 -62.5 33.5 -108.5h-84c-10 -30 -28 -52.667 -54 -68s-58.333 -23 -97 -23h-112z" />
    <glyph glyph-name="Atilde" unicode="&#xc3;" horiz-adv-x="897" 
d="M438 350l0.000976562 265.001h113c18 0 34.167 -1.16699 48.5 -3.5s27 -7.5 38 -15.5s20.667 -19.167 29 -33.5s15.5 -33.5 21.5 -57.5h26v149c9.33301 -6.66699 16.5 -16.334 21.5 -29.001s7.5 -29.667 7.5 -51h24v144h-91v-48h-732v-24h120
c10 0 18.167 -2.66699 24.5 -8s11.166 -11.5 14.499 -18.5s5.66602 -14.167 6.99902 -21.5s2 -13.333 2 -18h231v-371h-394v-24h394v-101c-2 -13.333 -5.16699 -23.833 -9.5 -31.5s-10.333 -13.5 -18 -17.5s-17.167 -6.5 -28.5 -7.5s-24.666 -1.5 -39.999 -1.5h-27v-26h141
v-188h221v31h-64c-32 0 -55 5.16699 -69 15.5s-22.333 29.833 -25 58.5v262l14 1v170z" />
    <glyph glyph-name="Adieresis" unicode="&#xc4;" horiz-adv-x="828" 
d="M743 -136l63.998 -0.00390625v111h78v48h-121c-18.667 0 -36.167 0.666992 -52.5 2s-30.666 4.83301 -42.999 10.5s-22.166 14.334 -29.499 26.001s-11 27.5 -11 47.5v69h-78v237h53v72h25v85c0 20 1.5 36.667 4.5 50s8.16699 24 15.5 32s17 13.667 29 17s27.333 5 46 5
h12v16h84v24h-194v-19h-324v19l-116 11v-14c14.667 0 28 -1.16699 40 -3.5s22.333 -6.5 31 -12.5h-314v-21h333c2 -5.33301 3.66699 -10.666 5 -15.999s2 -11.666 2 -18.999v-290c0 -43.333 -3.5 -81.5 -10.5 -114.5s-18.167 -62.333 -33.5 -88s-35.333 -48.5 -60 -68.5
s-54.667 -38.667 -90 -56h-142v-49h65l-12 -180h14c3.33301 34.667 11 63.334 23 86.001s26 40.667 42 54s32.833 22.833 50.5 28.5s34.167 9.5 49.5 11.5h565v-111zM327.998 410.996l-0.000976562 264.999h81c19.333 0 35.166 -1.5 47.499 -4.5s22 -8.5 29 -16.5
s11.833 -18.5 14.5 -31.5s4 -29.5 4 -49.5v-447c0 -16 -1.66699 -29.333 -5 -40s-8.16602 -19.167 -14.499 -25.5s-14.166 -11.166 -23.499 -14.499s-20.333 -6 -33 -8v-15h-176c18 20.667 32 46 42 76s17.5 62.333 22.5 97s8.16699 70.5 9.5 107.5s2 72.5 2 106.5z" />
    <glyph glyph-name="Aring" unicode="&#xc5;" horiz-adv-x="997" 
d="M-57 -1h399.001v14h136v-36h261v52h312v23h-312v1h-300c-12.667 0 -22.667 0.833008 -30 2.5s-13 4.83398 -17 9.50098s-6.66699 11.167 -8 19.5s-2 19.5 -2 33.5v182h133v-29h157v110h-22c0 -13.333 -2.16699 -23.833 -6.5 -31.5s-11 -13.5 -20 -17.5
s-20.5 -6.5 -34.5 -7.5s-31 -1.5 -51 -1.5v31h-156v281h140v-32h67c14.667 0 28 -1.33301 40 -4s23 -7.66699 33 -15s19.167 -17.666 27.5 -30.999s16.166 -30.666 23.499 -51.999h21v156h-123v50h-661v-23h214v-1c20 0 36.667 -2.33301 50 -7s23.833 -11.834 31.5 -21.501
s13 -22.167 16 -37.5s4.5 -34 4.5 -56v-435c0 -21.333 -1.5 -38.833 -4.5 -52.5s-8.5 -24.334 -16.5 -32.001s-18.5 -12.834 -31.5 -15.501s-29.5 -4 -49.5 -4h-221v-23z" />
    <glyph glyph-name="AE" unicode="&#xc6;" horiz-adv-x="1499" 
d="M-9 598l-0.00195312 -24.998h58c25.333 -2.66699 52.833 -8.5 82.5 -17.5s60.5 -27.167 92.5 -54.5l262 -260l-172.5 -173c-47 -45.333 -85.833 -81.333 -116.5 -108s-54.334 -45.5 -71.001 -56.5s-28.334 -16.833 -35.001 -17.5v-32h221v4h179v24h-179v16
c-47.333 0 -71 4.33301 -71 13c0 5.33301 7.33301 13.333 22 24h121l1 20c-28.667 0 -48.667 2 -60 6s-17 8.66699 -17 14c0 4 2.33301 8.33301 7 13l264 259v-118c0 -20 -1.5 -36.667 -4.5 -50s-8.16699 -24 -15.5 -32s-17.166 -13.667 -29.499 -17s-27.833 -5 -46.5 -5
h-16v-25h188l3 2c0 -20.667 -1 -37.834 -3 -51.501s-5.33301 -24.667 -10 -33s-11.167 -14.166 -19.5 -17.499s-18.5 -5 -30.5 -5h-10v-32h257v32c-15.333 0 -27.666 1.66699 -36.999 5s-16.833 9.16602 -22.5 17.499s-9.5 19.333 -11.5 33s-3 30.834 -3 51.501v112h-99v45
h63v169l103.5 -97l70.5 -67l44.5 -43c11 -10.667 19.167 -18.834 24.5 -24.501l11 -11.5l5 -5l19 -30c0 -9.33301 -4.66699 -15.833 -14 -19.5s-27.666 -5.5 -54.999 -5.5v-25h108c2.66699 -4.66699 4 -9.66699 4 -15c0 -9.33301 -3 -16 -9 -20s-18 -6 -36 -6v-32h246v32
c-11.333 1.33301 -22.5 5.33301 -33.5 12s-23.167 16.667 -36.5 30h373v25h-288c-25.333 2.66699 -52.833 8.5 -82.5 17.5s-60.5 27.167 -92.5 54.5l-262 260l172.5 173c47 45.333 85.833 81.333 116.5 108s54.334 45.5 71.001 56.5s28.334 16.833 35.001 17.5v32h-221v-4
h-659v-24h659v-16c47.333 0 71 -4.33301 71 -13c0 -5.33301 -7.33301 -13.333 -22 -24h-121l-1 -20c28.667 0 48.667 -2 60 -6s17 -8.66699 17 -14c0 -4 -2.33301 -8.33301 -7 -13l-271 -266v217c0 24 3.16699 42 9.5 54s19.5 18 39.5 18h15v32h-134v-104h-120v-2h-194v-25
h194c28.667 0 48.167 -7.83301 58.5 -23.5s15.5 -44.834 15.5 -87.501v-31h-37v-116l-100.5 94.5l-69 65.5l-43 41.5l-23.5 24l-11 11.5l-5 5l-19 30c0 9.33301 4.66699 15.833 14 19.5s27.666 5.5 54.999 5.5v25h-108c-2.66699 4.66699 -4 9.66699 -4 15
c0 9.33301 3 16 9 20s18 6 36 6v32h-246v-32c11.333 -1.33301 22.5 -5.33301 33.5 -12s23.167 -16.667 36.5 -30h-143z" />
    <glyph glyph-name="Ccedilla" unicode="&#xc7;" horiz-adv-x="950" 
d="M641 476c4 14 6.00391 29.6699 6.00391 47.0029c0 15.333 -2.33301 30.166 -7 44.499s-11.334 27.833 -20.001 40.5c13.333 0 28.666 -3 45.999 -9s34.666 -20.667 51.999 -44v124h-206c-21.333 5.33301 -44 8 -68 8c-14.667 0 -27.834 -0.666992 -39.501 -2
s-22.5 -3.33301 -32.5 -6h-11v58h-408v-24h272c16 0 28.5 -3.33301 37.5 -10s16.833 -14.667 23.5 -24h-45v2h-14l21 -24c-5.33301 -4 -10.666 -10.833 -15.999 -20.5s-10.333 -20.167 -15 -31.5s-8.5 -21.833 -11.5 -31.5s-4.5 -16.5 -4.5 -20.5
c0 -21.333 6.66699 -45.333 20 -72h14c1.33301 16 5.83301 35.333 13.5 58s21.167 42.667 40.5 60c10.667 9.33301 24 17.666 40 24.999h135c23.333 -10 41.666 -24.833 54.999 -44.5s20 -43.167 20 -70.5c0 -24 -4 -46.833 -12 -68.5s-21.667 -40.167 -41 -55.5h-36l11 -15
c-14 -6.66699 -29.333 -11.334 -46 -14.001v-13h45v-47h134v25c17.333 -6 32.333 -15.167 45 -27.5s23.5 -26.5 32.5 -42.5s16.167 -33.167 21.5 -51.5s9.66602 -36.166 12.999 -53.499h-95c-2.66699 -20.667 -8.16699 -36.667 -16.5 -48s-19 -19.833 -32 -25.5
s-28.5 -9.16699 -46.5 -10.5s-38 -2 -60 -2c-5.33301 0 -14.166 2 -26.499 6s-26 8.83301 -41 14.5l-46 18c-15.667 6.33301 -29.5 12.166 -41.5 17.499v-92h-352v-24h352v-38h43v38h180c56 0 101 10.5 135 31.5s58.667 46.5 74 76.5v77h266v24h-266v75
c-3.33301 4 -8.16602 9.33301 -14.499 16s-13.5 13.667 -21.5 21s-16.333 14.333 -25 21s-16.334 11.667 -23.001 15c7.33301 1.33301 17.833 5.5 31.5 12.5s26.167 14.167 37.5 21.5v85h-77z" />
    <glyph glyph-name="Egrave" unicode="&#xc8;" horiz-adv-x="1000" 
d="M739 451h323.001v26h-322v276h-190l-1 -20h23c18.667 0 34.167 -1.66699 46.5 -5s22.333 -9 30 -17s13 -18.667 16 -32s4.5 -30 4.5 -50v-70l-331 -212v161c0 20 1.5 36.667 4.5 50s8.16699 24 15.5 32s17.333 13.667 30 17s28.667 5 48 5h1v24h-309v-24h19
c18.667 0 34.167 -1.66699 46.5 -5s22.166 -9 29.499 -17s12.5 -18.667 15.5 -32s4.5 -30 4.5 -50v-223h-22v-118c0 -36 -7.16699 -60.667 -21.5 -74s-35.5 -20 -63.5 -20h-34v-23h141v-25c0 -28 -6 -49.833 -18 -65.5s-31 -25.167 -57 -28.5h-222v-23h512v22h-22
c-19.333 0 -35.333 1.66699 -48 5s-22.667 8.83301 -30 16.5s-12.5 18.167 -15.5 31.5s-4.5 30 -4.5 50v254l331 219v-522h70v467z" />
    <glyph glyph-name="Eacute" unicode="&#xc9;" horiz-adv-x="1000" 
d="M739 451h323.001v26h-322v276h-190l-1 -20h23c18.667 0 34.167 -1.66699 46.5 -5s22.333 -9 30 -17s13 -18.667 16 -32s4.5 -30 4.5 -50v-70l-331 -212v161c0 20 1.5 36.667 4.5 50s8.16699 24 15.5 32s17.333 13.667 30 17s28.667 5 48 5h1v24h-309v-24h19
c18.667 0 34.167 -1.66699 46.5 -5s22.166 -9 29.499 -17s12.5 -18.667 15.5 -32s4.5 -30 4.5 -50v-223h-22v-118c0 -36 -7.16699 -60.667 -21.5 -74s-35.5 -20 -63.5 -20h-34v-23h141v-25c0 -28 -6 -49.833 -18 -65.5s-31 -25.167 -57 -28.5h-222v-23h512v22h-22
c-19.333 0 -35.333 1.66699 -48 5s-22.667 8.83301 -30 16.5s-12.5 18.167 -15.5 31.5s-4.5 30 -4.5 50v254l331 219v-522h70v467zM653.001 900c-2.66699 -28 -10.6689 -49.832 -24.002 -65.499s-31.666 -23.5 -54.999 -23.5c-10 0 -21.833 1.83301 -35.5 5.5
s-27.834 8.33398 -42.501 14.001s-29.5 12 -44.5 19l-41.5 19.5v-89h-144c-13.333 -14 -24.166 -32.167 -32.499 -54.5s-12.5 -49.833 -12.5 -82.5h33c4.66699 30 13.334 52 26.001 66s30.667 21 54 21c16 0 34.5 -3.83301 55.5 -11.5s42.833 -16.5 65.5 -26.5v65h180
c18 17.333 31 37.666 39 60.999s12 50.666 12 81.999h-33z" />
    <glyph glyph-name="Ecircumflex" unicode="&#xca;" horiz-adv-x="1100" 
d="M1158 1l-0.00488281 25.002h-288c-25.333 2.66699 -52.833 8.5 -82.5 17.5s-60.5 27.167 -92.5 54.5l-262 260l172.5 173c47 45.333 85.833 81.333 116.5 108s54.334 45.5 71.001 56.5s28.334 16.833 35.001 17.5v32h-221v-4h-659v-24h659v-16
c47.333 0 71 -4.33301 71 -13c0 -5.33301 -7.33301 -13.333 -22 -24h-121l-1 -20c28.667 0 48.667 -2 60 -6s17 -8.66699 17 -14c0 -4 -2.33301 -8.33301 -7 -13l-271 -266v217c0 24 3.16699 42 9.5 54s19.5 18 39.5 18h15v32h-134v-104h-120v-2h-194v-25h194
c28.667 0 48.167 -7.83301 58.5 -23.5s15.5 -44.834 15.5 -87.501v-31h-37v-264c0 -20 -1.5 -36.667 -4.5 -50s-8.16699 -24 -15.5 -32s-17.166 -13.667 -29.499 -17s-27.833 -5 -46.5 -5h-16v-25h188l3 2c0 -20.667 -1 -37.834 -3 -51.501s-5.33301 -24.667 -10 -33
s-11.167 -14.166 -19.5 -17.499s-18.5 -5 -30.5 -5h-10v-32h257v32c-15.333 0 -27.666 1.66699 -36.999 5s-16.833 9.16602 -22.5 17.499s-9.5 19.333 -11.5 33s-3 30.834 -3 51.501v112h-99v45h63v169l103.5 -97l70.5 -67l44.5 -43c11 -10.667 19.167 -18.834 24.5 -24.501
l11 -11.5l5 -5l19 -30c0 -9.33301 -4.66699 -15.833 -14 -19.5s-27.666 -5.5 -54.999 -5.5v-25h108c2.66699 -4.66699 4 -9.66699 4 -15c0 -9.33301 -3 -16 -9 -20s-18 -6 -36 -6v-32h246v32c-11.333 1.33301 -22.5 5.33301 -33.5 12s-23.167 16.667 -36.5 30h373z" />
    <glyph glyph-name="Edieresis" unicode="&#xcb;" horiz-adv-x="828" 
d="M550 415l52.9951 -0.00488281v72h25v85c0 20 1.5 36.667 4.5 50s8.16699 24 15.5 32s17 13.667 29 17s27.333 5 46 5h12v16h84v24h-194v-19h-324v19l-116 11v-14c14.667 0 28 -1.16699 40 -3.5s22.333 -6.5 31 -12.5h-314v-21h333c2 -5.33301 3.66699 -10.666 5 -15.999
s2 -11.666 2 -18.999v-290c0 -62 -2.83301 -112.167 -8.5 -150.5s-13 -68 -22 -89s-18.667 -35 -29 -42s-20.166 -10.5 -29.499 -10.5c-7.33301 0 -14.166 2.16699 -20.499 6.5l-18.5 12.5c-6 4 -13 8.16699 -21 12.5s-17 6.5 -27 6.5c-17.333 0 -30.333 -6.16699 -39 -18.5
s-13 -24.833 -13 -37.5c0 -8 1.5 -15.833 4.5 -23.5s8 -14.667 15 -21s16 -11.5 27 -15.5s24.5 -6 40.5 -6c30 0 55.5 6.5 76.5 19.5s38.333 30.5 52 52.5s24.5 47.5 32.5 76.5s13.833 59.667 17.5 92s6 65.333 7 99s1.5 65.834 1.5 96.501v265h81
c19.333 0 35.166 -1.5 47.499 -4.5s22 -8.5 29 -16.5s11.833 -18.5 14.5 -31.5s4 -29.5 4 -49.5v-447c0 -16 -1.66699 -29.333 -5 -40s-8.16602 -19.167 -14.499 -25.5s-14.166 -11.166 -23.499 -14.499s-20.333 -6 -33 -8v-15h-72v-24h529v23h-121
c-18.667 0 -36.167 0.666992 -52.5 2s-30.666 4.83301 -42.999 10.5s-22.166 14.334 -29.499 26.001s-11 27.5 -11 47.5v69h-78v237z" />
    <glyph glyph-name="Igrave" unicode="&#xcc;" horiz-adv-x="1051" 
d="M2 -131v-17h212v329h26v380h2l285 -562l266 572h2v-435c0 -40.667 -6.5 -70.667 -19.5 -90s-38.167 -29 -75.5 -29h-20v-17h195v543h224v24h-224v106h-92l-224 -458l-246 458h-71v69h-258v-22h16c33.333 0 62.333 -2.66699 87 -8s41.667 -18.333 51 -39h-107v-26h16
c20 0 36.333 -1.66699 49 -5s22.5 -9 29.5 -17s11.833 -18.333 14.5 -31s4 -28 4 -46v-559c0 -36 -8 -64.5 -24 -85.5s-39.667 -32.5 -71 -34.5h-47z" />
    <glyph glyph-name="Iacute" unicode="&#xcd;" horiz-adv-x="1000" 
d="M739 211l-0.000976562 467h-70v-303h-331v254c0 20 1.5 36.667 4.5 50s8.16699 23.833 15.5 31.5s17.333 13.167 30 16.5s28.667 5 48 5h22v22h-512v-23h222c26 -3.33301 45 -12.833 57 -28.5s18 -37.5 18 -65.5v-25h-141v-23h34c28 0 49.167 -6.66699 63.5 -20
s21.5 -38 21.5 -74v-118h22v-223c0 -20 -1.5 -36.667 -4.5 -50s-8.16699 -24 -15.5 -32s-17.166 -13.667 -29.499 -17s-27.833 -5 -46.5 -5h-19v-24h309v24h-1c-19.333 0 -35.333 1.66699 -48 5s-22.667 9 -30 17s-12.5 18.667 -15.5 32s-4.5 30 -4.5 50v161h331v-282
c0 -20 -1.5 -36.667 -4.5 -50s-8.33301 -24 -16 -32s-17.667 -13.667 -30 -17s-27.833 -5 -46.5 -5h-23l1 -20h190v276h322v26h-323z" />
    <glyph glyph-name="Icircumflex" unicode="&#xce;" horiz-adv-x="1000" 
d="M-43 290l233.004 -0.000976562v-158c32 -44 73.333 -79.5 124 -106.5s107 -41.5 169 -43.5v44c28.667 0 56.167 4.16699 82.5 12.5s51.166 19.833 74.499 34.5s44.666 31.834 63.999 51.501s36.666 40.5 51.999 62.5h295v23h-288v345
c-15.333 24.667 -34 47.334 -56 68.001s-46 38.667 -72 54s-53.833 27.333 -83.5 36s-59.834 13 -90.501 13v-43c-28.667 0 -56.167 -3.83301 -82.5 -11.5s-51 -18.334 -74 -32.001s-44.167 -29.667 -63.5 -48s-36.333 -37.833 -51 -58.5v-220h-233v-23zM280.004 332.999
c0 45.333 4.33203 84.168 12.999 116.501s21.167 59.166 37.5 80.499s36.5 37.5 60.5 48.5s51.667 18.167 83 21.5v76c29.333 -4 58.333 -13.833 87 -29.5s54.167 -36.334 76.5 -62.001s40.5 -56.167 54.5 -91.5s21 -74.666 21 -117.999c0 -46 -7.16699 -87 -21.5 -123
s-33.333 -67 -57 -93s-50.667 -46.333 -81 -61s-61.166 -23.334 -92.499 -26.001v-41c-58.667 9.33301 -103.5 39.833 -134.5 91.5s-46.5 121.834 -46.5 210.501z" />
    <glyph glyph-name="Idieresis" unicode="&#xcf;" horiz-adv-x="1000" 
d="M739 211l-0.000976562 466h-397c4.66699 20.667 14 35 28 43s36 12 66 12h22v22h-512v-23h222c26 -3.33301 45 -12.833 57 -28.5s18 -37.5 18 -65.5v-25h-141v-23h34c28 0 49.167 -6.66699 63.5 -20s21.5 -38 21.5 -74v-118h22v-223c0 -20 -1.5 -36.667 -4.5 -50
s-8.16699 -24 -15.5 -32s-17.166 -13.667 -29.499 -17s-27.833 -5 -46.5 -5h-19v-24h309v24h-1c-19.333 0 -35.333 1.66699 -48 5s-22.667 9 -30 17s-12.5 18.667 -15.5 32s-4.5 30 -4.5 50v463h331v-584c0 -20 -1.5 -36.667 -4.5 -50s-8.33301 -24 -16 -32
s-17.667 -13.667 -30 -17s-27.833 -5 -46.5 -5h-23l1 -20h190v276h322v26h-323z" />
    <glyph glyph-name="Eth" unicode="&#xd0;" horiz-adv-x="749" 
d="M842 683l-0.000976562 24.002h-709v-24h1v-474h-235v-24h235v-54h-26v-191h120v21c-17.333 0 -30 0.333008 -38 1s-13.5 2.16699 -16.5 4.5s-4.83301 6.16602 -5.5 11.499s-2.33398 12.666 -5.00098 21.999h135v20c-20.667 0 -37.834 1.33301 -51.501 4
s-24.667 7.66699 -33 15s-14.166 17.833 -17.499 31.5s-5 31.5 -5 53.5v211c18.667 -11.333 39.667 -20.166 63 -26.499s47.333 -9.5 72 -9.5c25.333 0 49.333 3.16699 72 9.5s43.334 15.166 62.001 26.499v295c0 5.33301 -4.33301 10.833 -13 16.5s-19.5 11 -32.5 16
s-26.667 9.33301 -41 13s-27.166 6.16699 -38.499 7.5h507zM165.999 621.002c4.66699 2 12.501 3.66992 23.501 5.00293s22.833 2.5 35.5 3.5s24.5 1.83301 35.5 2.5s19.167 1 24.5 1c42.667 0 76.667 -12 102 -36s38 -56.333 38 -97c0 -20 -3.16699 -38.333 -9.5 -55
s-15.333 -31.334 -27 -44.001s-25.334 -22.5 -41.001 -29.5s-32.5 -10.5 -50.5 -10.5c-6 0 -15 0.333008 -27 1s-24.667 1.66699 -38 3s-26 3.16602 -38 5.49902s-21.333 5.16602 -28 8.49902v242z" />
    <glyph glyph-name="Ntilde" unicode="&#xd1;" horiz-adv-x="1000" 
d="M779 0h277.996v23h-278v18h-43v33h-48v-2c-23.333 -14 -48.5 -24.667 -75.5 -32s-54.5 -11 -82.5 -11s-54.167 4 -78.5 12s-45.5 20.167 -63.5 36.5s-32.333 36.833 -43 61.5s-16 53.334 -16 86.001h-84v284h84c4.66699 16.667 13.334 31.5 26.001 44.5
s28 24.167 46 33.5s37.833 16.5 59.5 21.5s43.834 7.5 66.501 7.5c34 0 66.5 -5.83301 97.5 -17.5s56.167 -30.167 75.5 -55.5h54l37 134l-33 23l-5 -12c-2 -4.66699 -5 -9.33398 -9 -14.001s-8.83301 -8.5 -14.5 -11.5s-12.5 -4.5 -20.5 -4.5c-20 0 -39 2 -57 6
s-36 8.5 -54 13.5s-36.167 9.66699 -54.5 14s-37.5 6.5 -57.5 6.5c-29.333 0 -62.333 -4.83301 -99 -14.5s-73.167 -22 -109.5 -37s-70.166 -31.833 -101.499 -50.5s-56 -37 -74 -55v-28h22v-154h31v-148h-205v-23h240v-100c40 -36 87.833 -62.833 143.5 -80.5
s115.834 -26.5 180.501 -26.5c30 0 60.167 2 90.5 6s59.833 9.66699 88.5 17v-42z" />
    <glyph glyph-name="Ograve" unicode="&#xd2;" horiz-adv-x="703" 
d="M-49 1l311.997 -0.000976562c-7.33301 -11.333 -17.666 -18.166 -30.999 -20.499s-28.333 -3.5 -45 -3.5h-25v-20h180v61h190v22h-20c-19.333 0 -35.166 2 -47.499 6s-22.166 10.333 -29.499 19s-12.333 20.167 -15 34.5s-4 31.5 -4 51.5v38h346v23h-346v433h112
c21.333 0 38.833 -1.33301 52.5 -4s24.5 -7.83398 32.5 -15.501s13.833 -17.834 17.5 -30.501s6.5 -29 8.5 -49h20v135h-357v-38h-267v-152h19c0 18.667 1.16699 35.334 3.5 50.001s7.16602 27 14.499 37s17.666 17.5 30.999 22.5s31 7.5 53 7.5h124v-492
c0 -18.667 -0.166992 -33.667 -0.5 -45s-0.666016 -20.166 -0.999023 -26.499s-0.666016 -11 -0.999023 -14s-0.833008 -5.5 -1.5 -7.5h-325v-22z" />
    <glyph glyph-name="Oacute" unicode="&#xd3;" horiz-adv-x="903" 
d="M954 0l0.00195312 23.0049h-402c-18 0 -33 1.33301 -45 4s-21.833 7.5 -29.5 14.5s-13.334 16.167 -17.001 27.5s-5.5 25.666 -5.5 42.999h25v186h-48l68 90v75l-73 -71l-84.5 121.5c-20.333 29.667 -35.333 52.167 -45 67.5s-15.667 25.666 -18 30.999
s-3.5 9.66602 -3.5 12.999c0 5.33301 2.16699 9.83301 6.5 13.5s10.166 6.5 17.499 8.5s15.666 3.5 24.999 4.5s19 1.5 29 1.5v24h-503v-24h222c8.66699 -0.666992 16.5 -2.66699 23.5 -6s14.167 -8.33301 21.5 -15s15.5 -15.334 24.5 -26.001l32.5 -39l159 -229h42v-167
h-16v-281h141v23h-23c-35.333 0 -60.166 6.16699 -74.499 18.5s-21.833 35.166 -22.5 68.499h573zM950.002 685.005l0.000976562 22.999h-403v-25c33.333 0 60.833 -1.16699 82.5 -3.5s32.5 -9.83301 32.5 -22.5l-135 -167h2v-67l141 169
c12.667 15.333 24.667 28.833 36 40.5s22.666 21.334 33.999 29.001s23 13.5 35 17.5s25.333 6 40 6h135z" />
    <glyph glyph-name="Ocircumflex" unicode="&#xd4;" horiz-adv-x="876" 
d="M435 725c24 0 47.9951 -3.00098 71.9951 -9.00098h-3v-19h-243v-20h26c25.333 0 45 -3 59 -9s23.667 -16.667 29 -32c-20 -0.666992 -44.833 -3 -74.5 -7s-60 -11.5 -91 -22.5s-60.667 -26.5 -89 -46.5s-51.166 -47 -68.499 -81h46v-291h-26
c16.667 -22 37.334 -40.167 62.001 -54.5s50.667 -26 78 -35s55 -15.333 83 -19s54 -5.5 78 -5.5c-6 -11.333 -14.5 -19.333 -25.5 -24s-24.5 -8.33398 -40.5 -11.001v-15h-368v-24h725v23h-21c-18.667 0 -36.167 0.666992 -52.5 2s-30.666 4.83301 -42.999 10.5
s-22.166 14.334 -29.499 26.001s-11 27.5 -11 47.5v4h5c50 0 96.833 8.33301 140.5 25s81.834 41 114.501 73s58.5 71.167 77.5 117.5s28.5 98.833 28.5 157.5l-72 -19v6c0 40.667 -7.5 80.167 -22.5 118.5s-40.5 71.833 -76.5 100.5h226v24h-263
c-28 15.333 -60.833 27.333 -98.5 36s-81.5 13.334 -131.5 14.001v-41zM382.995 573.999l0.00195312 -395.001c-38 14.667 -70.333 34.834 -97 60.501s-48.334 53.5 -65.001 83.5l-23 -15c24 -48 51.833 -85.667 83.5 -113s65.5 -47.666 101.5 -60.999v-18
c-24 0 -49.667 3.5 -77 10.5s-52.5 19.167 -75.5 36.5s-42 40.5 -57 69.5s-22.5 65.5 -22.5 109.5c0 45.333 7 84 21 116s32 58.167 54 78.5s46.667 35.166 74 44.499s54.666 14 81.999 14c0.666992 -3.33301 1 -7 1 -11v-10zM506.997 571.998
c0 37.333 5.5 63.499 16.5 78.499s32.167 23.167 63.5 24.5c21.333 -17.333 39.5 -39.666 54.5 -66.999s24.5 -60.333 28.5 -99h75l-14 -52l-61 -23c-3.33301 -30 -10.5 -55.667 -21.5 -77s-24.167 -39 -39.5 -53s-32 -25 -50 -33s-35.333 -14 -52 -18v140l-77 -20l27 136
h50v63zM506.997 206.997c28 2.66699 56.168 7.83301 84.501 15.5s55.166 18.167 80.499 31.5c-18.667 -26.667 -41.5 -48.667 -68.5 -66s-59.167 -27 -96.5 -29v48z" />
    <glyph glyph-name="Otilde" unicode="&#xd5;" horiz-adv-x="951" 
d="M-56 690l171 0.00195312c24 -5.33301 50.833 -16.833 80.5 -34.5s58.834 -45.5 87.501 -83.5l152 -180h-86l46 -48l-135 -218c-16 -20.667 -30.333 -38.334 -43 -53.001s-24.834 -27 -36.501 -37s-23.667 -17.667 -36 -23s-26.5 -9 -42.5 -11v-24h262v24
c-23.333 0 -42.5 1.5 -57.5 4.5s-22.5 11.5 -22.5 25.5c0 9.33301 3.33301 24.5 10 45.5s17 44.5 31 70.5l96 151l176 -192c16 -22 26.5 -37.833 31.5 -47.5s7.5 -17.834 7.5 -24.501c0 -12 -4.33301 -20.667 -13 -26s-25.334 -8 -50.001 -8v-23h309v23
c-16.667 0.666992 -36.5 9 -59.5 25s-45.167 39 -66.5 69l-248 296l55 2l-177 208c-11.333 12.667 -19.666 24.334 -24.999 35.001s-8 19 -8 25c0 11.333 5 19.666 15 24.999s26.667 8.33301 50 9v21h-474v-26zM640 398.002c26 32.667 49.665 65.998 70.998 99.998l60 93
c18.667 28 36.834 51.333 54.501 70s36.167 29.667 55.5 33l1 24h-223l-1 -22c22 -0.666992 37.167 -6.66699 45.5 -18s12.5 -25.333 12.5 -42c0 -17.333 -3.16699 -35.666 -9.5 -54.999s-13.166 -36.666 -20.499 -51.999l-85 -131h39z" />
    <glyph glyph-name="Odieresis" unicode="&#xd6;" horiz-adv-x="1000" 
d="M674 -15c10 0 23.501 -1.33398 40.501 -4.00098s34 -10 51 -22s32 -30.167 45 -54.5s20.167 -58.166 21.5 -101.499h14l-8 234h-56c-5.33301 0 -10.5 0.333008 -15.5 1s-9.5 2.5 -13.5 5.5s-7.16699 7.83301 -9.5 14.5s-3.5 16 -3.5 28l-1 -2v367h323v26h-322v276h-190
l-1 -20h23c18.667 0 34.167 -1.66699 46.5 -5s22.333 -9 30 -17s13 -18.667 16 -32s4.5 -30 4.5 -50v-584h-331v463c0 20 1.5 36.667 4.5 50s8.16699 24 15.5 32s17.333 13.667 30 17s28.667 5 48 5h1v24h-309v-24h19c18.667 0 34.167 -1.66699 46.5 -5
s22.166 -9 29.499 -17s12.5 -18.667 15.5 -32s4.5 -30 4.5 -50v-223h-22v-118c0 -36 -7.16699 -60.667 -21.5 -74s-35.5 -20 -63.5 -20h-34v-23h141v-25c0 -28 -6 -49.833 -18 -65.5s-31 -25.167 -57 -28.5h-222v-23h512v22h-22c-30 0 -52 4 -66 12s-23.333 22.333 -28 43
h332z" />
    <glyph glyph-name="multiply" unicode="&#xd7;" horiz-adv-x="749" 
d="M315 707l-417 -0.00585938v-24h383v-51h-192v-14h18c21.333 0 38 -2.66699 50 -8s20.833 -11.833 26.5 -19.5s9.16699 -15.834 10.5 -24.501s2 -16.334 2 -23.001h84v-208c18.667 -11.333 39.334 -20.166 62.001 -26.499s46.667 -9.5 72 -9.5
c24.667 0 48.667 3.16699 72 9.5s44.333 15.166 63 26.499v-211c0 -22 -1.66699 -39.833 -5 -53.5s-9.16602 -24.167 -17.499 -31.5s-19.333 -12.333 -33 -15s-30.834 -4 -51.501 -4v-20h135c-2.66699 -9.33301 -4.33398 -16.666 -5.00098 -21.999
s-2.5 -9.16602 -5.5 -11.499s-8.5 -3.83301 -16.5 -4.5s-20.667 -1 -38 -1v-21h120v191h-26v54h235v24h-235v409h86c0 6.66699 0.666992 14.334 2 23.001s4.83301 16.834 10.5 24.501s14.5 14.167 26.5 19.5s28.667 8 50 8h18v14h-332v-14h18
c18.667 0 33.834 -2.16699 45.501 -6.5s20.667 -9.83301 27 -16.5s10.5 -14 12.5 -22s3.33301 -15.333 4 -22v-247c-6.66699 -3.33301 -16 -6.16602 -28 -8.49902s-24.667 -4.16602 -38 -5.49902s-26 -2.33301 -38 -3s-21 -1 -27 -1c-18 0 -34.833 3.5 -50.5 10.5
s-29.334 16.833 -41.001 29.5s-20.667 27.334 -27 44.001s-9.5 35 -9.5 55v61c0.666992 6.66699 2.5 13.334 5.5 20.001s7.66699 12.667 14 18s15 9.83301 26 13.5s25.167 5.5 42.5 5.5h18v14h-106v75z" />
    <glyph glyph-name="Oslash" unicode="&#xd8;" horiz-adv-x="1367" 
d="M867 -90l0.000976562 22.998h-21c-24 0 -46 1.33301 -66 4s-36.333 9.66699 -49 21h315l68 42h104v24h-34v21h-23c-16 0 -29.667 4.5 -41 13.5l-28 22.5c-2 10.667 -3 23.667 -3 39v358c0 16 5.33301 28.833 16 38.5s25 16.834 43 21.501s38.333 7.66699 61 9s46 2 70 2
h172v25h-385c0 18.667 1.16699 35 3.5 49s7 25.5 14 34.5s16.667 15.667 29 20s28.5 6.5 48.5 6.5h17v23h-193v-356h-57v-228c0 -15.333 -0.666992 -27.666 -2 -36.999s-4 -16.333 -8 -21s-10.167 -7.66699 -18.5 -9s-19.5 -2 -33.5 -2h-156v428c0 20 1.5 36.667 4.5 50
s8.16699 24 15.5 32s17 13.667 29 17s27.333 5 46 5h12v16h144v24h-254v-19h-243v-20h26c19.333 0 35.166 -1.66699 47.499 -5s22.166 -8.83301 29.499 -16.5s12.333 -18.167 15 -31.5s4 -30 4 -50v-430h-104c-14 0 -25.167 0.666992 -33.5 2s-14.5 4.33301 -18.5 9
s-6.66699 11.667 -8 21s-2 21.666 -2 36.999v228h-57v356h-193v-23h17c20 0 36.167 -2.16699 48.5 -6.5s22 -11 29 -20s11.667 -20.5 14 -34.5s3.5 -30.333 3.5 -49h-165v-25l17 1c14 0 28.333 -1.66699 43 -5s28 -8.16602 40 -14.499s22 -13.833 30 -22.5
s12 -18.667 12 -30v-358c0 -15.333 -1 -28.333 -3 -39l-28 -22.5c-11.333 -9 -25 -13.5 -41 -13.5h-23v-21h-264v-24h334c-7.33301 -6 -16.666 -10.167 -27.999 -12.5s-25.333 -3.5 -42 -3.5h-23v-26h405c-9.33301 -4 -21.333 -7 -36 -9v-15h-148v-24h505z" />
    <glyph glyph-name="Ugrave" unicode="&#xd9;" horiz-adv-x="1367" 
d="M1046 -42c10 0 23.499 -1.33594 40.499 -4.00293s34 -10 51 -22s32 -30.167 45 -54.5s20.167 -58.166 21.5 -101.499h16l-9 224h7v24h-34v21h-23c-16 0 -29.667 4.5 -41 13.5l-28 22.5c-2 10.667 -3 23.667 -3 39v358c0 16 5.33301 28.833 16 38.5s25 16.834 43 21.501
s38.333 7.66699 61 9s46 2 70 2h172v25h-385c0 18.667 1.16699 35 3.5 49s7 25.5 14 34.5s16.667 15.667 29 20s28.5 6.5 48.5 6.5h17v23h-193v-356h-57v-228c0 -15.333 -0.666992 -27.666 -2 -36.999s-4 -16.333 -8 -21s-10.167 -7.66699 -18.5 -9s-19.5 -2 -33.5 -2h-156
v36h-124v-36h-104c-14 0 -25.167 0.666992 -33.5 2s-14.5 4.33301 -18.5 9s-6.66699 11.667 -8 21s-2 21.666 -2 36.999v228h-57v356h-193v-23h17c20 0 36.167 -2.16699 48.5 -6.5s22 -11 29 -20s11.667 -20.5 14 -34.5s3.5 -30.333 3.5 -49h-165v-25l17 1
c14 0 28.333 -1.66699 43 -5s28 -8.16602 40 -14.499s22 -13.833 30 -22.5s12 -18.667 12 -30v-358c0 -15.333 -1 -28.333 -3 -39l-28 -22.5c-11.333 -9 -25 -13.5 -41 -13.5h-23v-21h-264v-24h334c-7.33301 -6 -16.666 -10.167 -27.999 -12.5s-25.333 -3.5 -42 -3.5h-23
v-26h405c-9.33301 -4 -21.333 -7 -36 -9v-15h-148v-24h505v23h-21c-24 0 -46 1.33301 -66 4s-36.333 9.66699 -49 21h315zM709.999 481.997c0 20 1.50195 36.667 4.50195 50s8.16699 24 15.5 32s17 13.667 29 17s27.333 5 46 5h12v16h144v24h-254v-19h-243v-20h26
c19.333 0 35.166 -1.66699 47.499 -5s22.166 -8.83301 29.499 -16.5s12.333 -18.167 15 -31.5s4 -30 4 -50v-298h124v296z" />
    <glyph glyph-name="Uacute" unicode="&#xda;" horiz-adv-x="918" 
d="M1011 -36l-506.996 -0.000976562c7.33301 1.33301 18 3.83301 32 7.5s27.833 8 41.5 13s25.667 10.333 36 16s15.5 11.167 15.5 16.5v315c-18.667 11.333 -39.334 20.166 -62.001 26.499s-46.667 9.5 -72 9.5c-24.667 0 -48.667 -3.16699 -72 -9.5
s-44.333 -15.166 -63 -26.499v191c0 22 1.66699 39.833 5 53.5s9.16602 24.167 17.499 31.5s19.333 12.333 33 15s30.834 4 51.501 4v20h-97c3.33301 11.333 11.166 21.833 23.499 31.5s33.166 14.5 62.499 14.5h18v14h-442l-12 -171h12
c5.33301 30.667 13.5 54.334 24.5 71.001s23.333 28.834 37 36.501s27.834 12.167 42.501 13.5s28.667 2 42 2c8 0 17.667 -0.666992 29 -2s22.166 -3 32.499 -5s19.166 -4.33301 26.499 -7s11 -5.33398 11 -8.00098v-121h26v-54h-385v-24h385v-474h-1v-24h709v24z
M335.004 25.999l-0.000976562 262.002c6.66699 3.33301 16 6.16602 28 8.49902s24.667 4.16602 38 5.49902s26 2.33301 38 3s21 1 27 1c18 0 34.833 -4.5 50.5 -13.5s29.334 -21 41.001 -36s20.667 -32 27 -51s9.5 -38.5 9.5 -58.5c0 -40.667 -12.667 -73 -38 -97
s-59.333 -36 -102 -36c-5.33301 0 -13.5 0.166992 -24.5 0.5s-22.833 1 -35.5 2s-24.5 2.33301 -35.5 4s-18.833 3.5 -23.5 5.5z" />
    <glyph glyph-name="Ucircumflex" unicode="&#xdb;" horiz-adv-x="940" 
d="M917 -60l-0.00195312 23h-21c-18.667 0 -36.167 0.666992 -52.5 2s-30.666 4.83301 -42.999 10.5s-22.166 14.334 -29.499 26.001s-11 27.5 -11 47.5v463c0 20 1.5 36.667 4.5 50s8.16699 24 15.5 32s17 13.667 29 17s27.333 5 46 5h12v16h144v24h-254v-19h-243v-20h26
c19.333 0 35.166 -1.66699 47.499 -5s22.166 -8.83301 29.499 -16.5s12.333 -18.167 15 -31.5s4 -30 4 -50v-447c0 -16 -1.66699 -29.333 -5 -40s-8.16602 -19.167 -14.499 -25.5s-14.166 -11.166 -23.499 -14.499s-20.333 -6 -33 -8v-15h-225
c7.33301 1.33301 18 3.83301 32 7.5s27.833 8 41.5 13s25.667 10.333 36 16s15.5 11.167 15.5 16.5v315c-18.667 11.333 -39.334 20.166 -62.001 26.499s-46.667 9.5 -72 9.5c-24.667 0 -48.667 -3.16699 -72 -9.5s-44.333 -15.166 -63 -26.499v191
c0 22 1.66699 39.833 5 53.5s9.16602 24.167 17.499 31.5s19.333 12.333 33 15s30.834 4 51.501 4v20h-135c2.66699 9.33301 4.33398 16.666 5.00098 21.999s2.5 9.16602 5.5 11.499s8.5 3.83301 16.5 4.5s20.667 1 38 1v21h-120v-191h26v-54h-235v-24h235v-474h-1v-24h784z
M165.998 26l-0.000976562 262.002c6.66699 3.33301 16 6.16602 28 8.49902s24.667 4.16602 38 5.49902s26 2.33301 38 3s21 1 27 1c18 0 34.833 -4.5 50.5 -13.5s29.334 -21 41.001 -36s20.667 -32 27 -51s9.5 -38.5 9.5 -58.5c0 -40.667 -12.667 -73 -38 -97
s-59.333 -36 -102 -36c-5.33301 0 -13.5 0.166992 -24.5 0.5s-22.833 1 -35.5 2s-24.5 2.33301 -35.5 4s-18.833 3.5 -23.5 5.5z" />
    <glyph glyph-name="Udieresis" unicode="&#xdc;" horiz-adv-x="749" 
d="M842 -36l-507 0.00195312c7.33301 1.33301 18 3.83301 32 7.5s27.833 8 41.5 13s25.667 10.333 36 16s15.5 11.167 15.5 16.5v315c-18.667 11.333 -39.334 20.166 -62.001 26.499s-46.667 9.5 -72 9.5c-24.667 0 -48.667 -3.16699 -72 -9.5s-44.333 -15.166 -63 -26.499
v191c0 22 1.66699 39.833 5 53.5s9.16602 24.167 17.499 31.5s19.333 12.333 33 15s30.834 4 51.501 4v20h-135c2.66699 9.33301 4.33398 16.666 5.00098 21.999s2.5 9.16602 5.5 11.499s8.5 3.83301 16.5 4.5s20.667 1 38 1v21h-120v-191h26v-54h-235v-24h235v-474h-1v-24
h709v24zM166 26.002l-0.000976562 262.002c6.66699 3.33301 16 6.16602 28 8.49902s24.667 4.16602 38 5.49902s26 2.33301 38 3s21 1 27 1c18 0 34.833 -4.5 50.5 -13.5s29.334 -21 41.001 -36s20.667 -32 27 -51s9.5 -38.5 9.5 -58.5c0 -40.667 -12.667 -73 -38 -97
s-59.333 -36 -102 -36c-5.33301 0 -13.5 0.166992 -24.5 0.5s-22.833 1 -35.5 2s-24.5 2.33301 -35.5 4s-18.833 3.5 -23.5 5.5z" />
    <glyph glyph-name="Yacute" unicode="&#xdd;" horiz-adv-x="1000" 
d="M227 0l85.9971 -38.001l6 47c9.33301 -4 20.833 -7.66699 34.5 -11s28.334 -6.33301 44.001 -9s31.667 -4.66699 48 -6s31.833 -2 46.5 -2c64.667 0 124.834 8.83301 180.501 26.5s103.5 44.5 143.5 80.5v100h240v23h-205v148h31v154h22v28c-18 18 -42.667 36.333 -74 55
s-65.166 35.5 -101.499 50.5s-73 27.333 -110 37s-69.833 14.5 -98.5 14.5c-20 0 -39.167 -2.16699 -57.5 -6.5s-36.5 -9 -54.5 -14s-36 -9.5 -54 -13.5s-37 -6 -57 -6c-8 0 -14.833 1.5 -20.5 4.5s-10.5 6.83301 -14.5 11.5s-7 9.33398 -9 14.001l-5 12l-33 -23l37 -134h54
c19.333 25.333 44.5 43.833 75.5 55.5s63.5 17.5 97.5 17.5c22.667 0 44.834 -2.5 66.501 -7.5s41.5 -12.167 59.5 -21.5s33.333 -20.5 46 -33.5s21.334 -27.833 26.001 -44.5h84v-284h-84c0 -33.333 -5.33301 -62.333 -16 -87s-25 -45 -43 -61s-39.167 -28 -63.5 -36
s-50.5 -12 -78.5 -12c-26 0 -49.167 3 -69.5 9s-38.333 14.5 -54 25.5s-29.334 23.833 -41.001 38.5s-21.834 30.667 -30.501 48l-4 6h-61l65 -116h-54v-17h-278v-23h278zM729.997 379.999l-219 0.000976562c-12.667 0 -24.667 1.33301 -36 4s-21.333 8 -30 16
s-15.5 19.167 -20.5 33.5s-7.5 33.166 -7.5 56.499h-14v-263h14c0 34 6.33301 60.167 19 78.5s37 27.5 73 27.5h221v47z" />
    <glyph glyph-name="Thorn" unicode="&#xde;" horiz-adv-x="1311" 
d="M461 0l-0.000976562 22.9971h-21c-18.667 0 -36.167 0.666992 -52.5 2s-30.666 4.83301 -42.999 10.5s-22.166 14.334 -29.499 26.001s-11 27.5 -11 47.5v181h197v-158c32 -44 73.333 -79.5 124 -106.5s107 -41.5 169 -43.5v44c58 5.33301 110.5 22.333 157.5 51
s85.5 65.334 115.5 110.001h295v23h-288v345c-31.333 49.333 -73.333 89.166 -126 119.499s-111.334 47.5 -176.001 51.5v-43c-58 -5.33301 -110.167 -21.166 -156.5 -47.499s-84.5 -60.5 -114.5 -102.5v-220h-197v259c0 20 1.5 36.667 4.5 50s8.16699 24 15.5 32
s17 13.667 29 17s27.333 5 46 5h12v16h144v24h-254v-19h-243v-20h26c19.333 0 35.166 -1.66699 47.499 -5s22.166 -8.83301 29.499 -16.5s12.333 -18.167 15 -31.5s4 -30 4 -50v-447c0 -16 -1.66699 -29.333 -5 -40s-8.16602 -19.167 -14.499 -25.5
s-14.166 -11.166 -23.499 -14.499s-20.333 -6 -33 -8v-15h-148v-24h505zM590.999 332.997c0 45.333 4.33203 84.168 12.999 116.501s21.167 59.166 37.5 80.499s36.5 37.5 60.5 48.5s51.667 18.167 83 21.5v76c29.333 -4 58.333 -13.833 87 -29.5
s54.167 -36.334 76.5 -62.001s40.5 -56.167 54.5 -91.5s21 -74.666 21 -117.999c0 -46 -7.16699 -87 -21.5 -123s-33.333 -67 -57 -93s-50.667 -46.333 -81 -61s-61.166 -23.334 -92.499 -26.001v-41c-58.667 9.33301 -103.5 39.833 -134.5 91.5
s-46.5 121.834 -46.5 210.501z" />
    <glyph glyph-name="germandbls" unicode="&#xdf;" horiz-adv-x="736" 
d="M787 189v22.999h-258v437h-276c-10.667 0 -21.167 -2.5 -31.5 -7.5s-19.666 -11 -27.999 -18s-15.166 -14.333 -20.499 -22s-8 -13.834 -8 -18.501v-221c6 -5.33301 14 -10.666 24 -15.999s20.5 -10.166 31.5 -14.499s22 -7.83301 33 -10.5s20.833 -4 29.5 -4l-151 -245
c-13.333 -16 -28.333 -27.5 -45 -34.5s-39 -11.5 -67 -13.5h-85v-24h274l203 300h66v-189c0 -21.333 -1.5 -38 -4.5 -50s-8.83301 -21 -17.5 -27s-20.334 -9.66699 -35.001 -11s-33.334 -2 -56.001 -2v-21h164v189h258zM478 351.999l-107.002 -0.00195312
c-26 0 -48.667 3.66699 -68 11s-35.5 17.333 -48.5 30s-22.667 27.334 -29 44.001s-9.5 34.334 -9.5 53.001c0 40 13.5 70.5 40.5 91.5s64.5 31.5 112.5 31.5c8.66699 0 18.334 -0.333008 29.001 -1s21.167 -1.5 31.5 -2.5s19.833 -2.33301 28.5 -4s15.334 -3.5 20.001 -5.5
v-248z" />
    <glyph glyph-name="agrave" unicode="&#xe0;" 
d="M905 185v24h-497v-24h497zM621 636v23h-696v-23h696zM651 -1l454 1v23h-454v-24zM508 505h602v24h-602v-24zM431 341v24h-497v-24h497z" />
    <glyph glyph-name="aacute" unicode="&#xe1;" 
d="M899 395v24h-497v-24h497zM621 636v23h-696v-23h696zM651 288l454 1v23h-454v-24zM501 563h602v24h-602v-24zM420 188v24h-497v-24h497z" />
    <glyph glyph-name="acircumflex" unicode="&#xe2;" 
d="M894 107v24h-497v-24h497zM616 348v23h-696v-23h696zM646 0l454 1v23h-454v-24zM496 274h602v24h-602v-24zM414 191v24h-497v-24h497z" />
    <glyph glyph-name="atilde" unicode="&#xe3;" 
d="M905 473v-24h-497v24h497zM621 22v-23h-696v23h696zM651 659l454 -1v-23h-454v24zM508 153h602v-24h-602v24zM431 317v-24h-497v24h497z" />
    <glyph glyph-name="adieresis" unicode="&#xe4;" 
d="M129 473v-24h497v24h-497zM413 22v-23h696v23h-696zM383 659l-454 -1v-23h454v24zM526 153h-602v-24h602v24zM603 317v-24h497v24h-497z" />
    <glyph glyph-name="aring" unicode="&#xe5;" 
d="M129 185v24h497v-24h-497zM413 636v23h696v-23h-696zM383 -1l-454 1v23h454v-24zM526 505h-602v24h602v-24zM603 341v24h497v-24h-497z" />
    <glyph glyph-name="ae" unicode="&#xe6;" 
d="M122 263v-24h497v24h-497zM400 22v-23h696v23h-696zM370 370l-454 -1v-23h454v24zM520 96h-602v-24h602v24zM602 179v-24h497v24h-497z" />
    <glyph glyph-name="ccedilla" unicode="&#xe7;" 
d="M129 395v24h497v-24h-497zM407 636v23h696v-23h-696zM377 288l-454 1v23h454v-24zM527 561h-602v24h602v-24zM608 495v24h497v-24h-497z" />
    <glyph glyph-name="egrave" unicode="&#xe8;" 
d="M-55 482v-24h497v24h-497zM-54 23v-23h696v23h-696zM1096 670l-454 -1v-23h454v24zM1044 150h-602v-24h602v24zM290 325v-24h497v24h-497z" />
    <glyph glyph-name="eacute" unicode="&#xe9;" 
d="M1100 212v-24h-497v24h497zM621 22v-23h-696v23h696zM649 580l454 -1v-23h-454v24zM-78 209h602v-24h-602v24zM641 406v-24h-497v24h497z" />
    <glyph glyph-name="ecircumflex" unicode="&#xea;" 
d="M-76 366v24h497v-24h-497zM403 556v23h696v-23h-696zM375 -2l-454 1v23h454v-24zM1102 369h-602v24h602v-24zM383 172v24h497v-24h-497z" />
    <glyph glyph-name="edieresis" unicode="&#xeb;" 
d="M-76 210v-24h497v24h-497zM403 20v-23h696v23h-696zM375 578l-454 -1v-23h454v24zM1102 207h-602v-24h602v24zM383 404v-24h497v24h-497z" />
    <glyph glyph-name="igrave" unicode="&#xec;" 
d="M1098 366v24h-497v-24h497zM619 556v23h-696v-23h696zM647 -2l454 1v23h-454v-24zM-80 369h602v24h-602v-24zM639 172v24h-497v-24h497z" />
    <glyph glyph-name="iacute" unicode="&#xed;" horiz-adv-x="800" 
d="M762 23h-725v-23h725v23zM88 207v-24h602v24h-602zM630 354h-476v-24h476v24zM593 507h-406v-24h406v24zM234 655v-24h322v23z" />
    <glyph glyph-name="icircumflex" unicode="&#xee;" horiz-adv-x="800" 
d="M762 631v23h-725v-23h725zM88 447h602v24h-602v-24zM630 300v24h-476v-24h476zM593 147v24h-406v-24h406zM234 -1l322 1v23h-322v-24z" />
    <glyph glyph-name="idieresis" unicode="&#xef;" horiz-adv-x="800" 
d="M445 151v24h-406v-24h406zM762 630v23h-725v-23h725zM39 1l322 1v23h-322v-24zM39 444h602v24h-602v-24zM515 295v24h-476v-24h476z" />
    <glyph glyph-name="eth" unicode="&#xf0;" horiz-adv-x="800" 
d="M762 24h-725v-23h725v23zM39 210v-24h602v24h-602zM515 359h-476v-24h476v24zM445 503h-406v-24h406v24zM39 653v-24h322v24h-322z" />
    <glyph glyph-name="ntilde" unicode="&#xf1;" horiz-adv-x="800" 
d="M353 503v-24h406v24h-406zM36 24v-23h725v23h-725zM759 653l-322 -1v-23h322v24zM759 210h-602v-24h602v24zM283 359v-24h476v24h-476z" />
    <glyph glyph-name="ograve" unicode="&#xf2;" horiz-adv-x="800" 
d="M353 151v24h406v-24h-406zM36 630v23h725v-23h-725zM759 1l-322 1v23h322v-24zM759 444h-602v24h602v-24zM283 295v24h476v-24h-476z" />
    <glyph glyph-name="oacute" unicode="&#xf3;" horiz-adv-x="803" 
d="M171 115v-23h696v23h-696zM506 208h-602v-24h602v24zM-84 413v-24h497v24h-497zM368 316v-24h497v24h-497zM860 543h-454v-23h454v23z" />
    <glyph glyph-name="ocircumflex" unicode="&#xf4;" horiz-adv-x="803" 
d="M599 115h-696v-23h696v23zM264 208v-24h602v24h-602zM854 413h-497v-24h497v24zM402 316h-497v-24h497v24zM-90 543v-24h454v24h-454z" />
    <glyph glyph-name="otilde" unicode="&#xf5;" horiz-adv-x="803" 
d="M599 519v23h-696v-23h696zM264 426h602v24h-602v-24zM854 221v24h-497v-24h497zM402 318v24h-497v-24h497zM-90 91h454v24h-454v-24z" />
    <glyph glyph-name="odieresis" unicode="&#xf6;" horiz-adv-x="803" 
d="M171 519h696v23h-696v-23zM506 426v24h-602v-24h602zM-84 221h497v24h-497v-24zM368 318h497v24h-497v-24zM860 91v23h-454v-23h454z" />
    <glyph glyph-name="divide" unicode="&#xf7;" 
d="M997 191v24h-497v-24h497zM1096 647v23h-696v-23h696zM-54 0l454 1v23h-454v-24zM494 491h602v24h-602v-24zM706 339v24h-497v-24h497z" />
    <glyph glyph-name="oslash" unicode="&#xf8;" 
d="M997 479v-24h-497v24h497zM1096 23v-23h-696v23h696zM-54 670l454 -1v-23h-454v24zM494 179h602v-24h-602v24zM706 331v-24h-497v24h497z" />
    <glyph glyph-name="ugrave" unicode="&#xf9;" horiz-adv-x="203" 
d="M39 479h123v24h-123v-24zM39 210v-24h123v24h-123zM39 653v-24h123v24h-123zM39 335h123v24h-123v-24zM37 1h125v23h-125v-23z" />
    <glyph glyph-name="uacute" unicode="&#xfa;" 
d="M905 185v24h-497v-24h497zM621 636v23h-696v-23h696zM651 -1l454 1v23h-454v-24zM508 505h602v24h-602v-24zM431 341v24h-497v-24h497z" />
    <glyph glyph-name="ucircumflex" unicode="&#xfb;" 
d="M899 395v24h-497v-24h497zM621 636v23h-696v-23h696zM651 288l454 1v23h-454v-24zM501 563h602v24h-602v-24zM420 188v24h-497v-24h497z" />
    <glyph glyph-name="udieresis" unicode="&#xfc;" 
d="M894 107v24h-497v-24h497zM616 348v23h-696v-23h696zM646 0l454 1v23h-454v-24zM496 274h602v24h-602v-24zM414 191v24h-497v-24h497z" />
    <glyph glyph-name="yacute" unicode="&#xfd;" 
d="M621 22h-696v-23h696v23zM508 153v-24h602v24h-602zM905 473h-497v-24h497v24zM431 317h-497v-24h497v24zM651 659v-24h454v24h-454z" />
    <glyph glyph-name="thorn" unicode="&#xfe;" 
d="M129 473v-24h497v24h-497zM413 22v-23h696v23h-696zM383 659l-454 -1v-23h454v24zM526 153h-602v-24h602v24zM603 317v-24h497v24h-497z" />
    <glyph glyph-name="ydieresis" unicode="&#xff;" 
d="M129 185v24h497v-24h-497zM413 636v23h696v-23h-696zM383 -1l-454 1v23h454v-24zM526 505h-602v24h602v-24zM603 341v24h497v-24h-497z" />
    <glyph glyph-name="afii10023" unicode="&#x401;" horiz-adv-x="997" 
d="M-57 -1h399.001v14h136v-36h261v52h312v23h-312v1h-300c-12.667 0 -22.667 0.833008 -30 2.5s-13 4.83398 -17 9.50098s-6.66699 11.167 -8 19.5s-2 19.5 -2 33.5v182h133v-29h157v110h-22c0 -14 -1.16699 -24.833 -3.5 -32.5s-5.5 -13.5 -9.5 -17.5
s-8.66699 -6.33301 -14 -7s-11 -1 -17 -1h-68v31h-156v281h140v-32h67c14.667 0 28 -1.33301 40 -4s23 -7.66699 33 -15s19.167 -17.666 27.5 -30.999s16.166 -30.666 23.499 -51.999h21v156h-123v50h-661v-23h214v-1c20 0 36.667 -2.33301 50 -7
s23.833 -11.834 31.5 -21.501s13 -22.167 16 -37.5s4.5 -34 4.5 -56v-435c0 -21.333 -1.5 -38.833 -4.5 -52.5s-8.5 -24.334 -16.5 -32.001s-18.5 -12.834 -31.5 -15.501s-29.5 -4 -49.5 -4h-221v-23zM571.001 838h122v106h-122v-106zM369.001 784h122v106h-122v-106z" />
    <glyph glyph-name="afii10053" unicode="&#x404;" horiz-adv-x="1000" 
d="M777 0l277.994 0.000976562v23h-278v17h-54l65 116h-61l-4 -6c-9.33301 -17.333 -19.666 -33.333 -30.999 -48s-24.833 -27.5 -40.5 -38.5s-33.667 -19.5 -54 -25.5s-43.5 -9 -69.5 -9c-28 0 -54.167 4 -78.5 12s-45.5 20 -63.5 36s-32.333 36.333 -43 61
s-16 53.667 -16 87h-84v284h84c4.66699 16.667 13.334 31.5 26.001 44.5s28 24.167 46 33.5s37.833 16.5 59.5 21.5s43.834 7.5 66.501 7.5c34 0 66.5 -5.83301 97.5 -17.5s56.167 -30.167 75.5 -55.5h54l37 134l-33 23l-5 -12c-2 -4.66699 -5 -9.33398 -9 -14.001
s-8.83301 -8.5 -14.5 -11.5s-12.5 -4.5 -20.5 -4.5c-20 0 -39 2 -57 6s-36 8.5 -54 13.5s-36.167 9.66699 -54.5 14s-37.5 6.5 -57.5 6.5c-29.333 0 -62.333 -4.83301 -99 -14.5s-73.167 -22 -109.5 -37s-70.166 -31.833 -101.499 -50.5s-56 -37 -74 -55v-28h22v-154h31
v-148h-205v-23h240v-100c40 -36 87.833 -62.833 143.5 -80.5s115.834 -26.5 180.501 -26.5c14.667 0 30.167 0.666992 46.5 2s32.333 3.33301 48 6s30.334 5.66699 44.001 9s25.167 7 34.5 11l6 -47zM273.994 380.001v-47.001h221c36 0 60.333 -9.16699 73 -27.5
s19 -44.5 19 -78.5h14v263h-14c0 -23.333 -2.5 -42.166 -7.5 -56.499s-11.833 -25.5 -20.5 -33.5s-18.667 -13.333 -30 -16s-23.333 -4 -36 -4h-219z" />
    <glyph glyph-name="afii10054" unicode="&#x405;" horiz-adv-x="901" 
d="M1001 579l0.00195312 23.998h-303v117h-33c-6.66699 -22.667 -19 -34 -37 -34c-10 0 -20 1.83301 -30 5.5s-21.333 7.5 -34 11.5s-27 7.83301 -43 11.5s-35.333 5.5 -58 5.5h-578v-26h445c-2 -2 -3.83301 -4.16699 -5.5 -6.5l-5.5 -7.5v-301
c18 -15.333 40.333 -30.5 67 -45.5l80.5 -43.5l76 -40.5c23.667 -13 41.5 -25.167 53.5 -36.5c15.333 -15.333 25.166 -29.666 29.499 -42.999s6.5 -26 6.5 -38c0 -17.333 -4.33301 -33.333 -13 -48c-4.66699 -2.66699 -12.667 -5 -24 -7s-23.5 -3.66699 -36.5 -5
s-25.667 -2.33301 -38 -3s-21.5 -1 -27.5 -1c-23.333 0 -46.166 4.83301 -68.499 14.5s-43.333 23.167 -63 40.5s-37.667 37.833 -54 61.5s-29.833 49.5 -40.5 77.5h-32v-47h-336v-25h300v-238h32c0 3.33301 1 6.66602 3 9.99902v39h401c12.667 12 24.667 24.333 36 37
s21.166 26 29.499 40s14.833 29.167 19.5 45.5s7 34.833 7 55.5c0 29.333 -6.83301 56 -20.5 80s-31.5 45.833 -53.5 65.5s-46.5 37.834 -73.5 54.501s-53.5 32 -79.5 46l-73 40c-22.667 12.667 -40.334 25 -53.001 37c-3.33301 4.66699 -5.83301 10.834 -7.5 18.501
s-3.16699 15.834 -4.5 24.501s-2.16602 17.167 -2.49902 25.5s-0.5 15.166 -0.5 20.499c0 14 2.33301 25.333 7 34c16 8 34.667 12 56 12s42.166 -4 62.499 -12s39.5 -19.5 57.5 -34.5s34.667 -33 50 -54s28.333 -44.5 39 -70.5h33v113h337z" />
    <glyph glyph-name="FL0406h" unicode="&#x406;" horiz-adv-x="500" 
d="M457 0l-0.00195312 22.998h-21c-18.667 0 -36.167 0.666992 -52.5 2s-30.666 4.83301 -42.999 10.5s-22.166 14.334 -29.499 26.001s-11 27.5 -11 47.5v463c0 20 1.5 36.667 4.5 50s8.16699 24 15.5 32s17 13.667 29 17s27.333 5 46 5h12v16h144v24h-254v-19h-243v-20h26
c19.333 0 35.166 -1.66699 47.499 -5s22.166 -8.83301 29.499 -16.5s12.333 -18.167 15 -31.5s4 -30 4 -50v-447c0 -16 -1.66699 -29.333 -5 -40s-8.16602 -19.167 -14.499 -25.5s-14.166 -11.166 -23.499 -14.499s-20.333 -6 -33 -8v-15h-148v-24h505z" />
    <glyph glyph-name="afii10056" unicode="&#x407;" horiz-adv-x="500" 
d="M457 0l-0.00195312 22.998h-21c-18.667 0 -36.167 0.666992 -52.5 2s-30.666 4.83301 -42.999 10.5s-22.166 14.334 -29.499 26.001s-11 27.5 -11 47.5v463c0 20 1.5 36.667 4.5 50s8.16699 24 15.5 32s17 13.667 29 17s27.333 5 46 5h12v16h144v24h-254v-19h-243v-20h26
c19.333 0 35.166 -1.66699 47.499 -5s22.166 -8.83301 29.499 -16.5s12.333 -18.167 15 -31.5s4 -30 4 -50v-447c0 -16 -1.66699 -29.333 -5 -40s-8.16602 -19.167 -14.499 -25.5s-14.166 -11.166 -23.499 -14.499s-20.333 -6 -33 -8v-15h-148v-24h505zM275.998 814.998h122
v106h-122v-106zM73.998 760.998h122v106h-122v-106z" />
    <glyph glyph-name="afii10057" unicode="&#x408;" horiz-adv-x="600" 
d="M291 124c0 -24 -3.5 -41.998 -10.5 -53.998s-17.167 -20.667 -30.5 -26c-4.66699 7.33301 -8.5 15.666 -11.5 24.999s-6.5 18.666 -10.5 27.999h-100v-76h-206v-22h421v33c26 18 46.167 42.167 60.5 72.5s21.5 63.5 21.5 99.5v302c0 39.333 6.5 66.5 19.5 81.5
s36.833 22.5 71.5 22.5v32h-64c7.33301 7.33301 17 12.333 29 15s26.667 4 44 4h12v16h161v23h-271v-18h-187v-21h26c18 0 33 -1.33301 45 -4s21.667 -7.66699 29 -15h-135v-32h18c32 0 54.167 -7.83301 66.5 -23.5s18.5 -42.5 18.5 -80.5v-144h-17v-238z" />
    <glyph glyph-name="afii10017" unicode="&#x410;" horiz-adv-x="946" 
d="M668 309l-161.002 288.001h-64v-30h-494v-23h382l-197 -402c-17.333 -36 -35.333 -64.333 -54 -85s-39.667 -31.334 -63 -32.001v-25h157v18c-12.667 0 -21.334 2.16699 -26.001 6.5s-7 9.83301 -7 16.5c0 5.33301 0.833008 10.666 2.5 15.999
s3.83398 10.666 6.50098 15.999l62 118h310c10.667 -24 19.334 -44.167 26.001 -60.5s11.667 -29.666 15 -39.999s5.66602 -18.333 6.99902 -24s2 -10.167 2 -13.5c0 -12 -4.66699 -20.667 -14 -26s-28.666 -8.33301 -57.999 -9v-18h499v24
c-12 0.666992 -30.667 1.83398 -56 3.50098s-52.666 4 -81.999 7s-58.5 6.83301 -87.5 11.5s-53.167 11 -72.5 19l-118 244h85zM503.998 221.001h-274l130 275z" />
    <glyph glyph-name="afii10018" unicode="&#x411;" horiz-adv-x="950" 
d="M337 385v238.999h210c48 0 82.833 -6.5 104.5 -19.5s32.5 -32.5 32.5 -58.5h34v133h-357v58h-408v-24h272c16 0 28.5 -3.33301 37.5 -10s16.833 -14.667 23.5 -24h-51v-29c21.333 0 37 -0.166992 47 -0.5s17.333 -1.16602 22 -2.49902v-113h-19v-191h45v-153h-53v-112h24
v-54h-352v-24h352v-38h43v38h180c56 0 100.833 10.5 134.5 31.5s58.5 46.5 74.5 76.5v77h266v24h-266v75c-12 19.333 -28.167 35.5 -48.5 48.5s-43 23.333 -68 31s-51.833 13.167 -80.5 16.5s-57.667 5 -87 5h-112zM464 328.999l85.0029 -0.000976562
c25.333 0 47.166 -5.66699 65.499 -17s33.666 -25.666 45.999 -42.999s22.166 -37 29.499 -59s12.666 -43.333 15.999 -64h-95c-2.66699 -20.667 -8.16699 -36.667 -16.5 -48s-19 -19.833 -32 -25.5s-28.5 -9.16699 -46.5 -10.5s-38 -2 -60 -2c-16 0 -31.667 0.333008 -47 1
s-28.666 2.66699 -39.999 6v229h95v33z" />
    <glyph glyph-name="afii10019" unicode="&#x412;" horiz-adv-x="950" 
d="M361 679v57.999h-408v-24h272c16 0 28.5 -3.33301 37.5 -10s16.833 -14.667 23.5 -24h-51v-29c21.333 0 37 -0.166992 47 -0.5s17.333 -1.16602 22 -2.49902v-113h-19v-191h45v-153h-53v-112h24v-54h-352v-24h352v-38h43v38h180c56 0 100.833 10.5 134.5 31.5
s58.5 46.5 74.5 76.5v77h266v24h-266v75c-3.33301 4 -8.16602 9.33301 -14.499 16s-13.5 13.667 -21.5 21s-16.333 14.333 -25 21s-16.334 11.667 -23.001 15c7.33301 1.33301 17.833 5.5 31.5 12.5s26.167 14.167 37.5 21.5v288h-357zM464 328.999l85.0029 -0.000976562
c25.333 0 47.166 -5.66699 65.499 -17s33.666 -25.666 45.999 -42.999s22.166 -37 29.499 -59s12.666 -43.333 15.999 -64h-95c-2.66699 -20.667 -8.16699 -36.667 -16.5 -48s-19 -19.833 -32 -25.5s-28.5 -9.16699 -46.5 -10.5s-38 -2 -60 -2c-16 0 -31.667 0.333008 -47 1
s-28.666 2.66699 -39.999 6v229h95v33zM337.003 384.998v239h210c48 0 82.5 -13.167 103.5 -39.5s32.167 -62.5 33.5 -108.5h-84c-10 -30 -28 -52.667 -54 -68s-58.333 -23 -97 -23h-112z" />
    <glyph glyph-name="afii10020" unicode="&#x413;" horiz-adv-x="897" 
d="M438 350l0.000976562 265.001h113c18 0 34.167 -1.16699 48.5 -3.5s27 -7.5 38 -15.5s20.667 -19.167 29 -33.5s15.5 -33.5 21.5 -57.5h26v149c9.33301 -6.66699 16.5 -16.334 21.5 -29.001s7.5 -29.667 7.5 -51h24v144h-91v-48h-732v-24h120
c10 0 18.167 -2.66699 24.5 -8s11.166 -11.5 14.499 -18.5s5.66602 -14.167 6.99902 -21.5s2 -13.333 2 -18h231v-371h-394v-24h394v-101c-2 -13.333 -5.16699 -23.833 -9.5 -31.5s-10.333 -13.5 -18 -17.5s-17.167 -6.5 -28.5 -7.5s-24.666 -1.5 -39.999 -1.5h-27v-26h141
v-188h221v31h-64c-32 0 -55 5.16699 -69 15.5s-22.333 29.833 -25 58.5v262l14 1v170z" />
    <glyph glyph-name="afii10021" unicode="&#x414;" horiz-adv-x="828" 
d="M743 -136l63.998 -0.00390625v111h78v48h-121c-18.667 0 -36.167 0.666992 -52.5 2s-30.666 4.83301 -42.999 10.5s-22.166 14.334 -29.499 26.001s-11 27.5 -11 47.5v69h-78v237h53v72h25v85c0 20 1.5 36.667 4.5 50s8.16699 24 15.5 32s17 13.667 29 17s27.333 5 46 5
h12v16h84v24h-194v-19h-324v19l-116 11v-14c14.667 0 28 -1.16699 40 -3.5s22.333 -6.5 31 -12.5h-314v-21h333c2 -5.33301 3.66699 -10.666 5 -15.999s2 -11.666 2 -18.999v-290c0 -43.333 -3.5 -81.5 -10.5 -114.5s-18.167 -62.333 -33.5 -88s-35.333 -48.5 -60 -68.5
s-54.667 -38.667 -90 -56h-142v-49h65l-12 -180h14c3.33301 34.667 11 63.334 23 86.001s26 40.667 42 54s32.833 22.833 50.5 28.5s34.167 9.5 49.5 11.5h565v-111zM327.998 410.996l-0.000976562 264.999h81c19.333 0 35.166 -1.5 47.499 -4.5s22 -8.5 29 -16.5
s11.833 -18.5 14.5 -31.5s4 -29.5 4 -49.5v-447c0 -16 -1.66699 -29.333 -5 -40s-8.16602 -19.167 -14.499 -25.5s-14.166 -11.166 -23.499 -14.499s-20.333 -6 -33 -8v-15h-176c18 20.667 32 46 42 76s17.5 62.333 22.5 97s8.16699 70.5 9.5 107.5s2 72.5 2 106.5z" />
    <glyph glyph-name="afii10022" unicode="&#x415;" horiz-adv-x="997" 
d="M-57 -1h399.001v14h136v-36h261v52h312v23h-312v1h-300c-12.667 0 -22.667 0.833008 -30 2.5s-13 4.83398 -17 9.50098s-6.66699 11.167 -8 19.5s-2 19.5 -2 33.5v182h133v-29h157v110h-22c0 -13.333 -2.16699 -23.833 -6.5 -31.5s-11 -13.5 -20 -17.5
s-20.5 -6.5 -34.5 -7.5s-31 -1.5 -51 -1.5v31h-156v281h140v-32h67c14.667 0 28 -1.33301 40 -4s23 -7.66699 33 -15s19.167 -17.666 27.5 -30.999s16.166 -30.666 23.499 -51.999h21v156h-123v50h-661v-23h214v-1c20 0 36.667 -2.33301 50 -7s23.833 -11.834 31.5 -21.501
s13 -22.167 16 -37.5s4.5 -34 4.5 -56v-435c0 -21.333 -1.5 -38.833 -4.5 -52.5s-8.5 -24.334 -16.5 -32.001s-18.5 -12.834 -31.5 -15.501s-29.5 -4 -49.5 -4h-221v-23z" />
    <glyph glyph-name="afii10024" unicode="&#x416;" horiz-adv-x="1499" 
d="M-9 598l-0.00195312 -24.998h58c25.333 -2.66699 52.833 -8.5 82.5 -17.5s60.5 -27.167 92.5 -54.5l262 -260l-172.5 -173c-47 -45.333 -85.833 -81.333 -116.5 -108s-54.334 -45.5 -71.001 -56.5s-28.334 -16.833 -35.001 -17.5v-32h221v4h179v24h-179v16
c-47.333 0 -71 4.33301 -71 13c0 5.33301 7.33301 13.333 22 24h121l1 20c-28.667 0 -48.667 2 -60 6s-17 8.66699 -17 14c0 4 2.33301 8.33301 7 13l264 259v-118c0 -20 -1.5 -36.667 -4.5 -50s-8.16699 -24 -15.5 -32s-17.166 -13.667 -29.499 -17s-27.833 -5 -46.5 -5
h-16v-25h188l3 2c0 -20.667 -1 -37.834 -3 -51.501s-5.33301 -24.667 -10 -33s-11.167 -14.166 -19.5 -17.499s-18.5 -5 -30.5 -5h-10v-32h257v32c-15.333 0 -27.666 1.66699 -36.999 5s-16.833 9.16602 -22.5 17.499s-9.5 19.333 -11.5 33s-3 30.834 -3 51.501v112h-99v45
h63v169l103.5 -97l70.5 -67l44.5 -43c11 -10.667 19.167 -18.834 24.5 -24.501l11 -11.5l5 -5l19 -30c0 -9.33301 -4.66699 -15.833 -14 -19.5s-27.666 -5.5 -54.999 -5.5v-25h108c2.66699 -4.66699 4 -9.66699 4 -15c0 -9.33301 -3 -16 -9 -20s-18 -6 -36 -6v-32h246v32
c-11.333 1.33301 -22.5 5.33301 -33.5 12s-23.167 16.667 -36.5 30h373v25h-288c-25.333 2.66699 -52.833 8.5 -82.5 17.5s-60.5 27.167 -92.5 54.5l-262 260l172.5 173c47 45.333 85.833 81.333 116.5 108s54.334 45.5 71.001 56.5s28.334 16.833 35.001 17.5v32h-221v-4
h-659v-24h659v-16c47.333 0 71 -4.33301 71 -13c0 -5.33301 -7.33301 -13.333 -22 -24h-121l-1 -20c28.667 0 48.667 -2 60 -6s17 -8.66699 17 -14c0 -4 -2.33301 -8.33301 -7 -13l-271 -266v217c0 24 3.16699 42 9.5 54s19.5 18 39.5 18h15v32h-134v-104h-120v-2h-194v-25
h194c28.667 0 48.167 -7.83301 58.5 -23.5s15.5 -44.834 15.5 -87.501v-31h-37v-116l-100.5 94.5l-69 65.5l-43 41.5l-23.5 24l-11 11.5l-5 5l-19 30c0 9.33301 4.66699 15.833 14 19.5s27.666 5.5 54.999 5.5v25h-108c-2.66699 4.66699 -4 9.66699 -4 15
c0 9.33301 3 16 9 20s18 6 36 6v32h-246v-32c11.333 -1.33301 22.5 -5.33301 33.5 -12s23.167 -16.667 36.5 -30h-143z" />
    <glyph glyph-name="afii10025" unicode="&#x417;" horiz-adv-x="950" 
d="M641 476c4 14 6.00391 29.6699 6.00391 47.0029c0 15.333 -2.33301 30.166 -7 44.499s-11.334 27.833 -20.001 40.5c13.333 0 28.666 -3 45.999 -9s34.666 -20.667 51.999 -44v124h-206c-21.333 5.33301 -44 8 -68 8c-14.667 0 -27.834 -0.666992 -39.501 -2
s-22.5 -3.33301 -32.5 -6h-11v58h-408v-24h272c16 0 28.5 -3.33301 37.5 -10s16.833 -14.667 23.5 -24h-45v2h-14l21 -24c-5.33301 -4 -10.666 -10.833 -15.999 -20.5s-10.333 -20.167 -15 -31.5s-8.5 -21.833 -11.5 -31.5s-4.5 -16.5 -4.5 -20.5
c0 -21.333 6.66699 -45.333 20 -72h14c1.33301 16 5.83301 35.333 13.5 58s21.167 42.667 40.5 60c10.667 9.33301 24 17.666 40 24.999h135c23.333 -10 41.666 -24.833 54.999 -44.5s20 -43.167 20 -70.5c0 -24 -4 -46.833 -12 -68.5s-21.667 -40.167 -41 -55.5h-36l11 -15
c-14 -6.66699 -29.333 -11.334 -46 -14.001v-13h45v-47h134v25c17.333 -6 32.333 -15.167 45 -27.5s23.5 -26.5 32.5 -42.5s16.167 -33.167 21.5 -51.5s9.66602 -36.166 12.999 -53.499h-95c-2.66699 -20.667 -8.16699 -36.667 -16.5 -48s-19 -19.833 -32 -25.5
s-28.5 -9.16699 -46.5 -10.5s-38 -2 -60 -2c-5.33301 0 -14.166 2 -26.499 6s-26 8.83301 -41 14.5l-46 18c-15.667 6.33301 -29.5 12.166 -41.5 17.499v-92h-352v-24h352v-38h43v38h180c56 0 101 10.5 135 31.5s58.667 46.5 74 76.5v77h266v24h-266v75
c-3.33301 4 -8.16602 9.33301 -14.499 16s-13.5 13.667 -21.5 21s-16.333 14.333 -25 21s-16.334 11.667 -23.001 15c7.33301 1.33301 17.833 5.5 31.5 12.5s26.167 14.167 37.5 21.5v85h-77z" />
    <glyph glyph-name="afii10026" unicode="&#x418;" horiz-adv-x="1000" 
d="M739 451h323.001v26h-322v276h-190l-1 -20h23c18.667 0 34.167 -1.66699 46.5 -5s22.333 -9 30 -17s13 -18.667 16 -32s4.5 -30 4.5 -50v-70l-331 -212v161c0 20 1.5 36.667 4.5 50s8.16699 24 15.5 32s17.333 13.667 30 17s28.667 5 48 5h1v24h-309v-24h19
c18.667 0 34.167 -1.66699 46.5 -5s22.166 -9 29.499 -17s12.5 -18.667 15.5 -32s4.5 -30 4.5 -50v-223h-22v-118c0 -36 -7.16699 -60.667 -21.5 -74s-35.5 -20 -63.5 -20h-34v-23h141v-25c0 -28 -6 -49.833 -18 -65.5s-31 -25.167 -57 -28.5h-222v-23h512v22h-22
c-19.333 0 -35.333 1.66699 -48 5s-22.667 8.83301 -30 16.5s-12.5 18.167 -15.5 31.5s-4.5 30 -4.5 50v254l331 219v-522h70v467z" />
    <glyph glyph-name="afii10027" unicode="&#x419;" horiz-adv-x="1000" 
d="M739 451h323.001v26h-322v276h-190l-1 -20h23c18.667 0 34.167 -1.66699 46.5 -5s22.333 -9 30 -17s13 -18.667 16 -32s4.5 -30 4.5 -50v-70l-331 -212v161c0 20 1.5 36.667 4.5 50s8.16699 24 15.5 32s17.333 13.667 30 17s28.667 5 48 5h1v24h-309v-24h19
c18.667 0 34.167 -1.66699 46.5 -5s22.166 -9 29.499 -17s12.5 -18.667 15.5 -32s4.5 -30 4.5 -50v-223h-22v-118c0 -36 -7.16699 -60.667 -21.5 -74s-35.5 -20 -63.5 -20h-34v-23h141v-25c0 -28 -6 -49.833 -18 -65.5s-31 -25.167 -57 -28.5h-222v-23h512v22h-22
c-19.333 0 -35.333 1.66699 -48 5s-22.667 8.83301 -30 16.5s-12.5 18.167 -15.5 31.5s-4.5 30 -4.5 50v254l331 219v-522h70v467zM653.001 900c-2.66699 -28 -10.6689 -49.832 -24.002 -65.499s-31.666 -23.5 -54.999 -23.5c-10 0 -21.833 1.83301 -35.5 5.5
s-27.834 8.33398 -42.501 14.001s-29.5 12 -44.5 19l-41.5 19.5v-89h-144c-13.333 -14 -24.166 -32.167 -32.499 -54.5s-12.5 -49.833 -12.5 -82.5h33c4.66699 30 13.334 52 26.001 66s30.667 21 54 21c16 0 34.5 -3.83301 55.5 -11.5s42.833 -16.5 65.5 -26.5v65h180
c18 17.333 31 37.666 39 60.999s12 50.666 12 81.999h-33z" />
    <glyph glyph-name="afii10028" unicode="&#x41a;" horiz-adv-x="1100" 
d="M1158 1l-0.00488281 25.002h-288c-25.333 2.66699 -52.833 8.5 -82.5 17.5s-60.5 27.167 -92.5 54.5l-262 260l172.5 173c47 45.333 85.833 81.333 116.5 108s54.334 45.5 71.001 56.5s28.334 16.833 35.001 17.5v32h-221v-4h-659v-24h659v-16
c47.333 0 71 -4.33301 71 -13c0 -5.33301 -7.33301 -13.333 -22 -24h-121l-1 -20c28.667 0 48.667 -2 60 -6s17 -8.66699 17 -14c0 -4 -2.33301 -8.33301 -7 -13l-271 -266v217c0 24 3.16699 42 9.5 54s19.5 18 39.5 18h15v32h-134v-104h-120v-2h-194v-25h194
c28.667 0 48.167 -7.83301 58.5 -23.5s15.5 -44.834 15.5 -87.501v-31h-37v-264c0 -20 -1.5 -36.667 -4.5 -50s-8.16699 -24 -15.5 -32s-17.166 -13.667 -29.499 -17s-27.833 -5 -46.5 -5h-16v-25h188l3 2c0 -20.667 -1 -37.834 -3 -51.501s-5.33301 -24.667 -10 -33
s-11.167 -14.166 -19.5 -17.499s-18.5 -5 -30.5 -5h-10v-32h257v32c-15.333 0 -27.666 1.66699 -36.999 5s-16.833 9.16602 -22.5 17.499s-9.5 19.333 -11.5 33s-3 30.834 -3 51.501v112h-99v45h63v169l103.5 -97l70.5 -67l44.5 -43c11 -10.667 19.167 -18.834 24.5 -24.501
l11 -11.5l5 -5l19 -30c0 -9.33301 -4.66699 -15.833 -14 -19.5s-27.666 -5.5 -54.999 -5.5v-25h108c2.66699 -4.66699 4 -9.66699 4 -15c0 -9.33301 -3 -16 -9 -20s-18 -6 -36 -6v-32h246v32c-11.333 1.33301 -22.5 5.33301 -33.5 12s-23.167 16.667 -36.5 30h373z" />
    <glyph glyph-name="afii10029" unicode="&#x41b;" horiz-adv-x="828" 
d="M550 415l52.9951 -0.00488281v72h25v85c0 20 1.5 36.667 4.5 50s8.16699 24 15.5 32s17 13.667 29 17s27.333 5 46 5h12v16h84v24h-194v-19h-324v19l-116 11v-14c14.667 0 28 -1.16699 40 -3.5s22.333 -6.5 31 -12.5h-314v-21h333c2 -5.33301 3.66699 -10.666 5 -15.999
s2 -11.666 2 -18.999v-290c0 -62 -2.83301 -112.167 -8.5 -150.5s-13 -68 -22 -89s-18.667 -35 -29 -42s-20.166 -10.5 -29.499 -10.5c-7.33301 0 -14.166 2.16699 -20.499 6.5l-18.5 12.5c-6 4 -13 8.16699 -21 12.5s-17 6.5 -27 6.5c-17.333 0 -30.333 -6.16699 -39 -18.5
s-13 -24.833 -13 -37.5c0 -8 1.5 -15.833 4.5 -23.5s8 -14.667 15 -21s16 -11.5 27 -15.5s24.5 -6 40.5 -6c30 0 55.5 6.5 76.5 19.5s38.333 30.5 52 52.5s24.5 47.5 32.5 76.5s13.833 59.667 17.5 92s6 65.333 7 99s1.5 65.834 1.5 96.501v265h81
c19.333 0 35.166 -1.5 47.499 -4.5s22 -8.5 29 -16.5s11.833 -18.5 14.5 -31.5s4 -29.5 4 -49.5v-447c0 -16 -1.66699 -29.333 -5 -40s-8.16602 -19.167 -14.499 -25.5s-14.166 -11.166 -23.499 -14.499s-20.333 -6 -33 -8v-15h-72v-24h529v23h-121
c-18.667 0 -36.167 0.666992 -52.5 2s-30.666 4.83301 -42.999 10.5s-22.166 14.334 -29.499 26.001s-11 27.5 -11 47.5v69h-78v237z" />
    <glyph glyph-name="afii10030" unicode="&#x41c;" horiz-adv-x="1051" 
d="M2 -131v-17h212v329h26v380h2l285 -562l266 572h2v-435c0 -40.667 -6.5 -70.667 -19.5 -90s-38.167 -29 -75.5 -29h-20v-17h195v543h224v24h-224v106h-92l-224 -458l-246 458h-71v69h-258v-22h16c33.333 0 62.333 -2.66699 87 -8s41.667 -18.333 51 -39h-107v-26h16
c20 0 36.333 -1.66699 49 -5s22.5 -9 29.5 -17s11.833 -18.333 14.5 -31s4 -28 4 -46v-559c0 -36 -8 -64.5 -24 -85.5s-39.667 -32.5 -71 -34.5h-47z" />
    <glyph glyph-name="afii10031" unicode="&#x41d;" horiz-adv-x="1000" 
d="M739 211l-0.000976562 467h-70v-303h-331v254c0 20 1.5 36.667 4.5 50s8.16699 23.833 15.5 31.5s17.333 13.167 30 16.5s28.667 5 48 5h22v22h-512v-23h222c26 -3.33301 45 -12.833 57 -28.5s18 -37.5 18 -65.5v-25h-141v-23h34c28 0 49.167 -6.66699 63.5 -20
s21.5 -38 21.5 -74v-118h22v-223c0 -20 -1.5 -36.667 -4.5 -50s-8.16699 -24 -15.5 -32s-17.166 -13.667 -29.499 -17s-27.833 -5 -46.5 -5h-19v-24h309v24h-1c-19.333 0 -35.333 1.66699 -48 5s-22.667 9 -30 17s-12.5 18.667 -15.5 32s-4.5 30 -4.5 50v161h331v-282
c0 -20 -1.5 -36.667 -4.5 -50s-8.33301 -24 -16 -32s-17.667 -13.667 -30 -17s-27.833 -5 -46.5 -5h-23l1 -20h190v276h322v26h-323z" />
    <glyph glyph-name="afii10032" unicode="&#x41e;" horiz-adv-x="1000" 
d="M-43 290l233.004 -0.000976562v-158c32 -44 73.333 -79.5 124 -106.5s107 -41.5 169 -43.5v44c28.667 0 56.167 4.16699 82.5 12.5s51.166 19.833 74.499 34.5s44.666 31.834 63.999 51.501s36.666 40.5 51.999 62.5h295v23h-288v345
c-15.333 24.667 -34 47.334 -56 68.001s-46 38.667 -72 54s-53.833 27.333 -83.5 36s-59.834 13 -90.501 13v-43c-28.667 0 -56.167 -3.83301 -82.5 -11.5s-51 -18.334 -74 -32.001s-44.167 -29.667 -63.5 -48s-36.333 -37.833 -51 -58.5v-220h-233v-23zM280.004 332.999
c0 45.333 4.33203 84.168 12.999 116.501s21.167 59.166 37.5 80.499s36.5 37.5 60.5 48.5s51.667 18.167 83 21.5v76c29.333 -4 58.333 -13.833 87 -29.5s54.167 -36.334 76.5 -62.001s40.5 -56.167 54.5 -91.5s21 -74.666 21 -117.999c0 -46 -7.16699 -87 -21.5 -123
s-33.333 -67 -57 -93s-50.667 -46.333 -81 -61s-61.166 -23.334 -92.499 -26.001v-41c-58.667 9.33301 -103.5 39.833 -134.5 91.5s-46.5 121.834 -46.5 210.501z" />
    <glyph glyph-name="afii10033" unicode="&#x41f;" horiz-adv-x="1000" 
d="M739 211l-0.000976562 466h-397c4.66699 20.667 14 35 28 43s36 12 66 12h22v22h-512v-23h222c26 -3.33301 45 -12.833 57 -28.5s18 -37.5 18 -65.5v-25h-141v-23h34c28 0 49.167 -6.66699 63.5 -20s21.5 -38 21.5 -74v-118h22v-223c0 -20 -1.5 -36.667 -4.5 -50
s-8.16699 -24 -15.5 -32s-17.166 -13.667 -29.499 -17s-27.833 -5 -46.5 -5h-19v-24h309v24h-1c-19.333 0 -35.333 1.66699 -48 5s-22.667 9 -30 17s-12.5 18.667 -15.5 32s-4.5 30 -4.5 50v463h331v-584c0 -20 -1.5 -36.667 -4.5 -50s-8.33301 -24 -16 -32
s-17.667 -13.667 -30 -17s-27.833 -5 -46.5 -5h-23l1 -20h190v276h322v26h-323z" />
    <glyph glyph-name="afii10034" unicode="&#x420;" horiz-adv-x="749" 
d="M842 683l-0.000976562 24.002h-709v-24h1v-474h-235v-24h235v-54h-26v-191h120v21c-17.333 0 -30 0.333008 -38 1s-13.5 2.16699 -16.5 4.5s-4.83301 6.16602 -5.5 11.499s-2.33398 12.666 -5.00098 21.999h135v20c-20.667 0 -37.834 1.33301 -51.501 4
s-24.667 7.66699 -33 15s-14.166 17.833 -17.499 31.5s-5 31.5 -5 53.5v211c18.667 -11.333 39.667 -20.166 63 -26.499s47.333 -9.5 72 -9.5c25.333 0 49.333 3.16699 72 9.5s43.334 15.166 62.001 26.499v295c0 5.33301 -4.33301 10.833 -13 16.5s-19.5 11 -32.5 16
s-26.667 9.33301 -41 13s-27.166 6.16699 -38.499 7.5h507zM165.999 621.002c4.66699 2 12.501 3.66992 23.501 5.00293s22.833 2.5 35.5 3.5s24.5 1.83301 35.5 2.5s19.167 1 24.5 1c42.667 0 76.667 -12 102 -36s38 -56.333 38 -97c0 -20 -3.16699 -38.333 -9.5 -55
s-15.333 -31.334 -27 -44.001s-25.334 -22.5 -41.001 -29.5s-32.5 -10.5 -50.5 -10.5c-6 0 -15 0.333008 -27 1s-24.667 1.66699 -38 3s-26 3.16602 -38 5.49902s-21.333 5.16602 -28 8.49902v242z" />
    <glyph glyph-name="afii10035" unicode="&#x421;" horiz-adv-x="1000" 
d="M779 0h277.996v23h-278v18h-43v33h-48v-2c-23.333 -14 -48.5 -24.667 -75.5 -32s-54.5 -11 -82.5 -11s-54.167 4 -78.5 12s-45.5 20.167 -63.5 36.5s-32.333 36.833 -43 61.5s-16 53.334 -16 86.001h-84v284h84c4.66699 16.667 13.334 31.5 26.001 44.5
s28 24.167 46 33.5s37.833 16.5 59.5 21.5s43.834 7.5 66.501 7.5c34 0 66.5 -5.83301 97.5 -17.5s56.167 -30.167 75.5 -55.5h54l37 134l-33 23l-5 -12c-2 -4.66699 -5 -9.33398 -9 -14.001s-8.83301 -8.5 -14.5 -11.5s-12.5 -4.5 -20.5 -4.5c-20 0 -39 2 -57 6
s-36 8.5 -54 13.5s-36.167 9.66699 -54.5 14s-37.5 6.5 -57.5 6.5c-29.333 0 -62.333 -4.83301 -99 -14.5s-73.167 -22 -109.5 -37s-70.166 -31.833 -101.499 -50.5s-56 -37 -74 -55v-28h22v-154h31v-148h-205v-23h240v-100c40 -36 87.833 -62.833 143.5 -80.5
s115.834 -26.5 180.501 -26.5c30 0 60.167 2 90.5 6s59.833 9.66699 88.5 17v-42z" />
    <glyph glyph-name="afii10036" unicode="&#x422;" horiz-adv-x="703" 
d="M-49 1l311.997 -0.000976562c-7.33301 -11.333 -17.666 -18.166 -30.999 -20.499s-28.333 -3.5 -45 -3.5h-25v-20h180v61h190v22h-20c-19.333 0 -35.166 2 -47.499 6s-22.166 10.333 -29.499 19s-12.333 20.167 -15 34.5s-4 31.5 -4 51.5v38h346v23h-346v433h112
c21.333 0 38.833 -1.33301 52.5 -4s24.5 -7.83398 32.5 -15.501s13.833 -17.834 17.5 -30.501s6.5 -29 8.5 -49h20v135h-357v-38h-267v-152h19c0 18.667 1.16699 35.334 3.5 50.001s7.16602 27 14.499 37s17.666 17.5 30.999 22.5s31 7.5 53 7.5h124v-492
c0 -18.667 -0.166992 -33.667 -0.5 -45s-0.666016 -20.166 -0.999023 -26.499s-0.666016 -11 -0.999023 -14s-0.833008 -5.5 -1.5 -7.5h-325v-22z" />
    <glyph glyph-name="afii10037" unicode="&#x423;" horiz-adv-x="903" 
d="M954 0l0.00195312 23.0049h-402c-18 0 -33 1.33301 -45 4s-21.833 7.5 -29.5 14.5s-13.334 16.167 -17.001 27.5s-5.5 25.666 -5.5 42.999h25v186h-48l68 90v75l-73 -71l-84.5 121.5c-20.333 29.667 -35.333 52.167 -45 67.5s-15.667 25.666 -18 30.999
s-3.5 9.66602 -3.5 12.999c0 5.33301 2.16699 9.83301 6.5 13.5s10.166 6.5 17.499 8.5s15.666 3.5 24.999 4.5s19 1.5 29 1.5v24h-503v-24h222c8.66699 -0.666992 16.5 -2.66699 23.5 -6s14.167 -8.33301 21.5 -15s15.5 -15.334 24.5 -26.001l32.5 -39l159 -229h42v-167
h-16v-281h141v23h-23c-35.333 0 -60.166 6.16699 -74.499 18.5s-21.833 35.166 -22.5 68.499h573zM950.002 685.005l0.000976562 22.999h-403v-25c33.333 0 60.833 -1.16699 82.5 -3.5s32.5 -9.83301 32.5 -22.5l-135 -167h2v-67l141 169
c12.667 15.333 24.667 28.833 36 40.5s22.666 21.334 33.999 29.001s23 13.5 35 17.5s25.333 6 40 6h135z" />
    <glyph glyph-name="afii10038" unicode="&#x424;" horiz-adv-x="876" 
d="M435 725c24 0 47.9951 -3.00098 71.9951 -9.00098h-3v-19h-243v-20h26c25.333 0 45 -3 59 -9s23.667 -16.667 29 -32c-20 -0.666992 -44.833 -3 -74.5 -7s-60 -11.5 -91 -22.5s-60.667 -26.5 -89 -46.5s-51.166 -47 -68.499 -81h46v-291h-26
c16.667 -22 37.334 -40.167 62.001 -54.5s50.667 -26 78 -35s55 -15.333 83 -19s54 -5.5 78 -5.5c-6 -11.333 -14.5 -19.333 -25.5 -24s-24.5 -8.33398 -40.5 -11.001v-15h-368v-24h725v23h-21c-18.667 0 -36.167 0.666992 -52.5 2s-30.666 4.83301 -42.999 10.5
s-22.166 14.334 -29.499 26.001s-11 27.5 -11 47.5v4h5c50 0 96.833 8.33301 140.5 25s81.834 41 114.501 73s58.5 71.167 77.5 117.5s28.5 98.833 28.5 157.5l-72 -19v6c0 40.667 -7.5 80.167 -22.5 118.5s-40.5 71.833 -76.5 100.5h226v24h-263
c-28 15.333 -60.833 27.333 -98.5 36s-81.5 13.334 -131.5 14.001v-41zM382.995 573.999l0.00195312 -395.001c-38 14.667 -70.333 34.834 -97 60.501s-48.334 53.5 -65.001 83.5l-23 -15c24 -48 51.833 -85.667 83.5 -113s65.5 -47.666 101.5 -60.999v-18
c-24 0 -49.667 3.5 -77 10.5s-52.5 19.167 -75.5 36.5s-42 40.5 -57 69.5s-22.5 65.5 -22.5 109.5c0 45.333 7 84 21 116s32 58.167 54 78.5s46.667 35.166 74 44.499s54.666 14 81.999 14c0.666992 -3.33301 1 -7 1 -11v-10zM506.997 571.998
c0 37.333 5.5 63.499 16.5 78.499s32.167 23.167 63.5 24.5c21.333 -17.333 39.5 -39.666 54.5 -66.999s24.5 -60.333 28.5 -99h75l-14 -52l-61 -23c-3.33301 -30 -10.5 -55.667 -21.5 -77s-24.167 -39 -39.5 -53s-32 -25 -50 -33s-35.333 -14 -52 -18v140l-77 -20l27 136
h50v63zM506.997 206.997c28 2.66699 56.168 7.83301 84.501 15.5s55.166 18.167 80.499 31.5c-18.667 -26.667 -41.5 -48.667 -68.5 -66s-59.167 -27 -96.5 -29v48z" />
    <glyph glyph-name="afii10039" unicode="&#x425;" horiz-adv-x="951" 
d="M-56 690l171 0.00195312c24 -5.33301 50.833 -16.833 80.5 -34.5s58.834 -45.5 87.501 -83.5l152 -180h-86l46 -48l-135 -218c-16 -20.667 -30.333 -38.334 -43 -53.001s-24.834 -27 -36.501 -37s-23.667 -17.667 -36 -23s-26.5 -9 -42.5 -11v-24h262v24
c-23.333 0 -42.5 1.5 -57.5 4.5s-22.5 11.5 -22.5 25.5c0 9.33301 3.33301 24.5 10 45.5s17 44.5 31 70.5l96 151l176 -192c16 -22 26.5 -37.833 31.5 -47.5s7.5 -17.834 7.5 -24.501c0 -12 -4.33301 -20.667 -13 -26s-25.334 -8 -50.001 -8v-23h309v23
c-16.667 0.666992 -36.5 9 -59.5 25s-45.167 39 -66.5 69l-248 296l55 2l-177 208c-11.333 12.667 -19.666 24.334 -24.999 35.001s-8 19 -8 25c0 11.333 5 19.666 15 24.999s26.667 8.33301 50 9v21h-474v-26zM640 398.002c26 32.667 49.665 65.998 70.998 99.998l60 93
c18.667 28 36.834 51.333 54.501 70s36.167 29.667 55.5 33l1 24h-223l-1 -22c22 -0.666992 37.167 -6.66699 45.5 -18s12.5 -25.333 12.5 -42c0 -17.333 -3.16699 -35.666 -9.5 -54.999s-13.166 -36.666 -20.499 -51.999l-85 -131h39z" />
    <glyph glyph-name="afii10040" unicode="&#x426;" horiz-adv-x="1000" 
d="M674 -15c10 0 23.501 -1.33398 40.501 -4.00098s34 -10 51 -22s32 -30.167 45 -54.5s20.167 -58.166 21.5 -101.499h14l-8 234h-56c-5.33301 0 -10.5 0.333008 -15.5 1s-9.5 2.5 -13.5 5.5s-7.16699 7.83301 -9.5 14.5s-3.5 16 -3.5 28l-1 -2v367h323v26h-322v276h-190
l-1 -20h23c18.667 0 34.167 -1.66699 46.5 -5s22.333 -9 30 -17s13 -18.667 16 -32s4.5 -30 4.5 -50v-584h-331v463c0 20 1.5 36.667 4.5 50s8.16699 24 15.5 32s17.333 13.667 30 17s28.667 5 48 5h1v24h-309v-24h19c18.667 0 34.167 -1.66699 46.5 -5
s22.166 -9 29.499 -17s12.5 -18.667 15.5 -32s4.5 -30 4.5 -50v-223h-22v-118c0 -36 -7.16699 -60.667 -21.5 -74s-35.5 -20 -63.5 -20h-34v-23h141v-25c0 -28 -6 -49.833 -18 -65.5s-31 -25.167 -57 -28.5h-222v-23h512v22h-22c-30 0 -52 4 -66 12s-23.333 22.333 -28 43
h332z" />
    <glyph glyph-name="afii10041" unicode="&#x427;" horiz-adv-x="749" 
d="M315 707l-417 -0.00585938v-24h383v-51h-192v-14h18c21.333 0 38 -2.66699 50 -8s20.833 -11.833 26.5 -19.5s9.16699 -15.834 10.5 -24.501s2 -16.334 2 -23.001h84v-208c18.667 -11.333 39.334 -20.166 62.001 -26.499s46.667 -9.5 72 -9.5
c24.667 0 48.667 3.16699 72 9.5s44.333 15.166 63 26.499v-211c0 -22 -1.66699 -39.833 -5 -53.5s-9.16602 -24.167 -17.499 -31.5s-19.333 -12.333 -33 -15s-30.834 -4 -51.501 -4v-20h135c-2.66699 -9.33301 -4.33398 -16.666 -5.00098 -21.999
s-2.5 -9.16602 -5.5 -11.499s-8.5 -3.83301 -16.5 -4.5s-20.667 -1 -38 -1v-21h120v191h-26v54h235v24h-235v409h86c0 6.66699 0.666992 14.334 2 23.001s4.83301 16.834 10.5 24.501s14.5 14.167 26.5 19.5s28.667 8 50 8h18v14h-332v-14h18
c18.667 0 33.834 -2.16699 45.501 -6.5s20.667 -9.83301 27 -16.5s10.5 -14 12.5 -22s3.33301 -15.333 4 -22v-247c-6.66699 -3.33301 -16 -6.16602 -28 -8.49902s-24.667 -4.16602 -38 -5.49902s-26 -2.33301 -38 -3s-21 -1 -27 -1c-18 0 -34.833 3.5 -50.5 10.5
s-29.334 16.833 -41.001 29.5s-20.667 27.334 -27 44.001s-9.5 35 -9.5 55v61c0.666992 6.66699 2.5 13.334 5.5 20.001s7.66699 12.667 14 18s15 9.83301 26 13.5s25.167 5.5 42.5 5.5h18v14h-106v75z" />
    <glyph glyph-name="afii10042" unicode="&#x428;" horiz-adv-x="1367" 
d="M867 -90l0.000976562 22.998h-21c-24 0 -46 1.33301 -66 4s-36.333 9.66699 -49 21h315l68 42h104v24h-34v21h-23c-16 0 -29.667 4.5 -41 13.5l-28 22.5c-2 10.667 -3 23.667 -3 39v358c0 16 5.33301 28.833 16 38.5s25 16.834 43 21.501s38.333 7.66699 61 9s46 2 70 2
h172v25h-385c0 18.667 1.16699 35 3.5 49s7 25.5 14 34.5s16.667 15.667 29 20s28.5 6.5 48.5 6.5h17v23h-193v-356h-57v-228c0 -15.333 -0.666992 -27.666 -2 -36.999s-4 -16.333 -8 -21s-10.167 -7.66699 -18.5 -9s-19.5 -2 -33.5 -2h-156v428c0 20 1.5 36.667 4.5 50
s8.16699 24 15.5 32s17 13.667 29 17s27.333 5 46 5h12v16h144v24h-254v-19h-243v-20h26c19.333 0 35.166 -1.66699 47.499 -5s22.166 -8.83301 29.499 -16.5s12.333 -18.167 15 -31.5s4 -30 4 -50v-430h-104c-14 0 -25.167 0.666992 -33.5 2s-14.5 4.33301 -18.5 9
s-6.66699 11.667 -8 21s-2 21.666 -2 36.999v228h-57v356h-193v-23h17c20 0 36.167 -2.16699 48.5 -6.5s22 -11 29 -20s11.667 -20.5 14 -34.5s3.5 -30.333 3.5 -49h-165v-25l17 1c14 0 28.333 -1.66699 43 -5s28 -8.16602 40 -14.499s22 -13.833 30 -22.5
s12 -18.667 12 -30v-358c0 -15.333 -1 -28.333 -3 -39l-28 -22.5c-11.333 -9 -25 -13.5 -41 -13.5h-23v-21h-264v-24h334c-7.33301 -6 -16.666 -10.167 -27.999 -12.5s-25.333 -3.5 -42 -3.5h-23v-26h405c-9.33301 -4 -21.333 -7 -36 -9v-15h-148v-24h505z" />
    <glyph glyph-name="afii10043" unicode="&#x429;" horiz-adv-x="1367" 
d="M1046 -42c10 0 23.499 -1.33594 40.499 -4.00293s34 -10 51 -22s32 -30.167 45 -54.5s20.167 -58.166 21.5 -101.499h16l-9 224h7v24h-34v21h-23c-16 0 -29.667 4.5 -41 13.5l-28 22.5c-2 10.667 -3 23.667 -3 39v358c0 16 5.33301 28.833 16 38.5s25 16.834 43 21.501
s38.333 7.66699 61 9s46 2 70 2h172v25h-385c0 18.667 1.16699 35 3.5 49s7 25.5 14 34.5s16.667 15.667 29 20s28.5 6.5 48.5 6.5h17v23h-193v-356h-57v-228c0 -15.333 -0.666992 -27.666 -2 -36.999s-4 -16.333 -8 -21s-10.167 -7.66699 -18.5 -9s-19.5 -2 -33.5 -2h-156
v36h-124v-36h-104c-14 0 -25.167 0.666992 -33.5 2s-14.5 4.33301 -18.5 9s-6.66699 11.667 -8 21s-2 21.666 -2 36.999v228h-57v356h-193v-23h17c20 0 36.167 -2.16699 48.5 -6.5s22 -11 29 -20s11.667 -20.5 14 -34.5s3.5 -30.333 3.5 -49h-165v-25l17 1
c14 0 28.333 -1.66699 43 -5s28 -8.16602 40 -14.499s22 -13.833 30 -22.5s12 -18.667 12 -30v-358c0 -15.333 -1 -28.333 -3 -39l-28 -22.5c-11.333 -9 -25 -13.5 -41 -13.5h-23v-21h-264v-24h334c-7.33301 -6 -16.666 -10.167 -27.999 -12.5s-25.333 -3.5 -42 -3.5h-23
v-26h405c-9.33301 -4 -21.333 -7 -36 -9v-15h-148v-24h505v23h-21c-24 0 -46 1.33301 -66 4s-36.333 9.66699 -49 21h315zM709.999 481.997c0 20 1.50195 36.667 4.50195 50s8.16699 24 15.5 32s17 13.667 29 17s27.333 5 46 5h12v16h144v24h-254v-19h-243v-20h26
c19.333 0 35.166 -1.66699 47.499 -5s22.166 -8.83301 29.499 -16.5s12.333 -18.167 15 -31.5s4 -30 4 -50v-298h124v296z" />
    <glyph glyph-name="afii10044" unicode="&#x42a;" horiz-adv-x="918" 
d="M1011 -36l-506.996 -0.000976562c7.33301 1.33301 18 3.83301 32 7.5s27.833 8 41.5 13s25.667 10.333 36 16s15.5 11.167 15.5 16.5v315c-18.667 11.333 -39.334 20.166 -62.001 26.499s-46.667 9.5 -72 9.5c-24.667 0 -48.667 -3.16699 -72 -9.5
s-44.333 -15.166 -63 -26.499v191c0 22 1.66699 39.833 5 53.5s9.16602 24.167 17.499 31.5s19.333 12.333 33 15s30.834 4 51.501 4v20h-97c3.33301 11.333 11.166 21.833 23.499 31.5s33.166 14.5 62.499 14.5h18v14h-442l-12 -171h12
c5.33301 30.667 13.5 54.334 24.5 71.001s23.333 28.834 37 36.501s27.834 12.167 42.501 13.5s28.667 2 42 2c8 0 17.667 -0.666992 29 -2s22.166 -3 32.499 -5s19.166 -4.33301 26.499 -7s11 -5.33398 11 -8.00098v-121h26v-54h-385v-24h385v-474h-1v-24h709v24z
M335.004 25.999l-0.000976562 262.002c6.66699 3.33301 16 6.16602 28 8.49902s24.667 4.16602 38 5.49902s26 2.33301 38 3s21 1 27 1c18 0 34.833 -4.5 50.5 -13.5s29.334 -21 41.001 -36s20.667 -32 27 -51s9.5 -38.5 9.5 -58.5c0 -40.667 -12.667 -73 -38 -97
s-59.333 -36 -102 -36c-5.33301 0 -13.5 0.166992 -24.5 0.5s-22.833 1 -35.5 2s-24.5 2.33301 -35.5 4s-18.833 3.5 -23.5 5.5z" />
    <glyph glyph-name="afii10045" unicode="&#x42b;" horiz-adv-x="940" 
d="M917 -60l-0.00195312 23h-21c-18.667 0 -36.167 0.666992 -52.5 2s-30.666 4.83301 -42.999 10.5s-22.166 14.334 -29.499 26.001s-11 27.5 -11 47.5v463c0 20 1.5 36.667 4.5 50s8.16699 24 15.5 32s17 13.667 29 17s27.333 5 46 5h12v16h144v24h-254v-19h-243v-20h26
c19.333 0 35.166 -1.66699 47.499 -5s22.166 -8.83301 29.499 -16.5s12.333 -18.167 15 -31.5s4 -30 4 -50v-447c0 -16 -1.66699 -29.333 -5 -40s-8.16602 -19.167 -14.499 -25.5s-14.166 -11.166 -23.499 -14.499s-20.333 -6 -33 -8v-15h-225
c7.33301 1.33301 18 3.83301 32 7.5s27.833 8 41.5 13s25.667 10.333 36 16s15.5 11.167 15.5 16.5v315c-18.667 11.333 -39.334 20.166 -62.001 26.499s-46.667 9.5 -72 9.5c-24.667 0 -48.667 -3.16699 -72 -9.5s-44.333 -15.166 -63 -26.499v191
c0 22 1.66699 39.833 5 53.5s9.16602 24.167 17.499 31.5s19.333 12.333 33 15s30.834 4 51.501 4v20h-135c2.66699 9.33301 4.33398 16.666 5.00098 21.999s2.5 9.16602 5.5 11.499s8.5 3.83301 16.5 4.5s20.667 1 38 1v21h-120v-191h26v-54h-235v-24h235v-474h-1v-24h784z
M165.998 26l-0.000976562 262.002c6.66699 3.33301 16 6.16602 28 8.49902s24.667 4.16602 38 5.49902s26 2.33301 38 3s21 1 27 1c18 0 34.833 -4.5 50.5 -13.5s29.334 -21 41.001 -36s20.667 -32 27 -51s9.5 -38.5 9.5 -58.5c0 -40.667 -12.667 -73 -38 -97
s-59.333 -36 -102 -36c-5.33301 0 -13.5 0.166992 -24.5 0.5s-22.833 1 -35.5 2s-24.5 2.33301 -35.5 4s-18.833 3.5 -23.5 5.5z" />
    <glyph glyph-name="afii10046" unicode="&#x42c;" horiz-adv-x="749" 
d="M842 -36l-507 0.00195312c7.33301 1.33301 18 3.83301 32 7.5s27.833 8 41.5 13s25.667 10.333 36 16s15.5 11.167 15.5 16.5v315c-18.667 11.333 -39.334 20.166 -62.001 26.499s-46.667 9.5 -72 9.5c-24.667 0 -48.667 -3.16699 -72 -9.5s-44.333 -15.166 -63 -26.499
v191c0 22 1.66699 39.833 5 53.5s9.16602 24.167 17.499 31.5s19.333 12.333 33 15s30.834 4 51.501 4v20h-135c2.66699 9.33301 4.33398 16.666 5.00098 21.999s2.5 9.16602 5.5 11.499s8.5 3.83301 16.5 4.5s20.667 1 38 1v21h-120v-191h26v-54h-235v-24h235v-474h-1v-24
h709v24zM166 26.002l-0.000976562 262.002c6.66699 3.33301 16 6.16602 28 8.49902s24.667 4.16602 38 5.49902s26 2.33301 38 3s21 1 27 1c18 0 34.833 -4.5 50.5 -13.5s29.334 -21 41.001 -36s20.667 -32 27 -51s9.5 -38.5 9.5 -58.5c0 -40.667 -12.667 -73 -38 -97
s-59.333 -36 -102 -36c-5.33301 0 -13.5 0.166992 -24.5 0.5s-22.833 1 -35.5 2s-24.5 2.33301 -35.5 4s-18.833 3.5 -23.5 5.5z" />
    <glyph glyph-name="afii10047" unicode="&#x42d;" horiz-adv-x="1000" 
d="M227 0l85.9971 -38.001l6 47c9.33301 -4 20.833 -7.66699 34.5 -11s28.334 -6.33301 44.001 -9s31.667 -4.66699 48 -6s31.833 -2 46.5 -2c64.667 0 124.834 8.83301 180.501 26.5s103.5 44.5 143.5 80.5v100h240v23h-205v148h31v154h22v28c-18 18 -42.667 36.333 -74 55
s-65.166 35.5 -101.499 50.5s-73 27.333 -110 37s-69.833 14.5 -98.5 14.5c-20 0 -39.167 -2.16699 -57.5 -6.5s-36.5 -9 -54.5 -14s-36 -9.5 -54 -13.5s-37 -6 -57 -6c-8 0 -14.833 1.5 -20.5 4.5s-10.5 6.83301 -14.5 11.5s-7 9.33398 -9 14.001l-5 12l-33 -23l37 -134h54
c19.333 25.333 44.5 43.833 75.5 55.5s63.5 17.5 97.5 17.5c22.667 0 44.834 -2.5 66.501 -7.5s41.5 -12.167 59.5 -21.5s33.333 -20.5 46 -33.5s21.334 -27.833 26.001 -44.5h84v-284h-84c0 -33.333 -5.33301 -62.333 -16 -87s-25 -45 -43 -61s-39.167 -28 -63.5 -36
s-50.5 -12 -78.5 -12c-26 0 -49.167 3 -69.5 9s-38.333 14.5 -54 25.5s-29.334 23.833 -41.001 38.5s-21.834 30.667 -30.501 48l-4 6h-61l65 -116h-54v-17h-278v-23h278zM729.997 379.999l-219 0.000976562c-12.667 0 -24.667 1.33301 -36 4s-21.333 8 -30 16
s-15.5 19.167 -20.5 33.5s-7.5 33.166 -7.5 56.499h-14v-263h14c0 34 6.33301 60.167 19 78.5s37 27.5 73 27.5h221v47z" />
    <glyph glyph-name="afii10048" unicode="&#x42e;" horiz-adv-x="1311" 
d="M461 0l-0.000976562 22.9971h-21c-18.667 0 -36.167 0.666992 -52.5 2s-30.666 4.83301 -42.999 10.5s-22.166 14.334 -29.499 26.001s-11 27.5 -11 47.5v181h197v-158c32 -44 73.333 -79.5 124 -106.5s107 -41.5 169 -43.5v44c58 5.33301 110.5 22.333 157.5 51
s85.5 65.334 115.5 110.001h295v23h-288v345c-31.333 49.333 -73.333 89.166 -126 119.499s-111.334 47.5 -176.001 51.5v-43c-58 -5.33301 -110.167 -21.166 -156.5 -47.499s-84.5 -60.5 -114.5 -102.5v-220h-197v259c0 20 1.5 36.667 4.5 50s8.16699 24 15.5 32
s17 13.667 29 17s27.333 5 46 5h12v16h144v24h-254v-19h-243v-20h26c19.333 0 35.166 -1.66699 47.499 -5s22.166 -8.83301 29.499 -16.5s12.333 -18.167 15 -31.5s4 -30 4 -50v-447c0 -16 -1.66699 -29.333 -5 -40s-8.16602 -19.167 -14.499 -25.5
s-14.166 -11.166 -23.499 -14.499s-20.333 -6 -33 -8v-15h-148v-24h505zM590.999 332.997c0 45.333 4.33203 84.168 12.999 116.501s21.167 59.166 37.5 80.499s36.5 37.5 60.5 48.5s51.667 18.167 83 21.5v76c29.333 -4 58.333 -13.833 87 -29.5
s54.167 -36.334 76.5 -62.001s40.5 -56.167 54.5 -91.5s21 -74.666 21 -117.999c0 -46 -7.16699 -87 -21.5 -123s-33.333 -67 -57 -93s-50.667 -46.333 -81 -61s-61.166 -23.334 -92.499 -26.001v-41c-58.667 9.33301 -103.5 39.833 -134.5 91.5
s-46.5 121.834 -46.5 210.501z" />
    <glyph glyph-name="afii10049" unicode="&#x42f;" horiz-adv-x="736" 
d="M787 189v22.999h-258v437h-276c-10.667 0 -21.167 -2.5 -31.5 -7.5s-19.666 -11 -27.999 -18s-15.166 -14.333 -20.499 -22s-8 -13.834 -8 -18.501v-221c6 -5.33301 14 -10.666 24 -15.999s20.5 -10.166 31.5 -14.499s22 -7.83301 33 -10.5s20.833 -4 29.5 -4l-151 -245
c-13.333 -16 -28.333 -27.5 -45 -34.5s-39 -11.5 -67 -13.5h-85v-24h274l203 300h66v-189c0 -21.333 -1.5 -38 -4.5 -50s-8.83301 -21 -17.5 -27s-20.334 -9.66699 -35.001 -11s-33.334 -2 -56.001 -2v-21h164v189h258zM478 351.999l-107.002 -0.00195312
c-26 0 -48.667 3.66699 -68 11s-35.5 17.333 -48.5 30s-22.667 27.334 -29 44.001s-9.5 34.334 -9.5 53.001c0 40 13.5 70.5 40.5 91.5s64.5 31.5 112.5 31.5c8.66699 0 18.334 -0.333008 29.001 -1s21.167 -1.5 31.5 -2.5s19.833 -2.33301 28.5 -4s15.334 -3.5 20.001 -5.5
v-248z" />
    <glyph glyph-name="afii10065" unicode="&#x430;" 
d="M905 185v24h-497v-24h497zM621 636v23h-696v-23h696zM651 -1l454 1v23h-454v-24zM508 505h602v24h-602v-24zM431 341v24h-497v-24h497z" />
    <glyph glyph-name="afii10066" unicode="&#x431;" 
d="M899 395v24h-497v-24h497zM621 636v23h-696v-23h696zM651 288l454 1v23h-454v-24zM501 563h602v24h-602v-24zM420 188v24h-497v-24h497z" />
    <glyph glyph-name="afii10067" unicode="&#x432;" 
d="M894 107v24h-497v-24h497zM616 348v23h-696v-23h696zM646 0l454 1v23h-454v-24zM496 274h602v24h-602v-24zM414 191v24h-497v-24h497z" />
    <glyph glyph-name="afii10068" unicode="&#x433;" 
d="M905 473v-24h-497v24h497zM621 22v-23h-696v23h696zM651 659l454 -1v-23h-454v24zM508 153h602v-24h-602v24zM431 317v-24h-497v24h497z" />
    <glyph glyph-name="afii10069" unicode="&#x434;" 
d="M129 473v-24h497v24h-497zM413 22v-23h696v23h-696zM383 659l-454 -1v-23h454v24zM526 153h-602v-24h602v24zM603 317v-24h497v24h-497z" />
    <glyph glyph-name="afii10070" unicode="&#x435;" 
d="M129 185v24h497v-24h-497zM413 636v23h696v-23h-696zM383 -1l-454 1v23h454v-24zM526 505h-602v24h602v-24zM603 341v24h497v-24h-497z" />
    <glyph glyph-name="afii10072" unicode="&#x436;" 
d="M122 263v-24h497v24h-497zM400 22v-23h696v23h-696zM370 370l-454 -1v-23h454v24zM520 96h-602v-24h602v24zM602 179v-24h497v24h-497z" />
    <glyph glyph-name="afii10073" unicode="&#x437;" 
d="M129 395v24h497v-24h-497zM407 636v23h696v-23h-696zM377 288l-454 1v23h454v-24zM527 561h-602v24h602v-24zM608 495v24h497v-24h-497z" />
    <glyph glyph-name="afii10074" unicode="&#x438;" 
d="M-55 482v-24h497v24h-497zM-54 23v-23h696v23h-696zM1096 670l-454 -1v-23h454v24zM1044 150h-602v-24h602v24zM290 325v-24h497v24h-497z" />
    <glyph glyph-name="afii10075" unicode="&#x439;" 
d="M1100 212v-24h-497v24h497zM621 22v-23h-696v23h696zM649 580l454 -1v-23h-454v24zM-78 209h602v-24h-602v24zM641 406v-24h-497v24h497z" />
    <glyph glyph-name="afii10076" unicode="&#x43a;" 
d="M-76 366v24h497v-24h-497zM403 556v23h696v-23h-696zM375 -2l-454 1v23h454v-24zM1102 369h-602v24h602v-24zM383 172v24h497v-24h-497z" />
    <glyph glyph-name="afii10077" unicode="&#x43b;" 
d="M-76 210v-24h497v24h-497zM403 20v-23h696v23h-696zM375 578l-454 -1v-23h454v24zM1102 207h-602v-24h602v24zM383 404v-24h497v24h-497z" />
    <glyph glyph-name="afii10078" unicode="&#x43c;" 
d="M1098 366v24h-497v-24h497zM619 556v23h-696v-23h696zM647 -2l454 1v23h-454v-24zM-80 369h602v24h-602v-24zM639 172v24h-497v-24h497z" />
    <glyph glyph-name="afii10079" unicode="&#x43d;" horiz-adv-x="800" 
d="M762 23h-725v-23h725v23zM88 207v-24h602v24h-602zM630 354h-476v-24h476v24zM593 507h-406v-24h406v24zM234 655v-24h322v23z" />
    <glyph glyph-name="afii10080" unicode="&#x43e;" horiz-adv-x="800" 
d="M762 631v23h-725v-23h725zM88 447h602v24h-602v-24zM630 300v24h-476v-24h476zM593 147v24h-406v-24h406zM234 -1l322 1v23h-322v-24z" />
    <glyph glyph-name="afii10081" unicode="&#x43f;" horiz-adv-x="800" 
d="M445 151v24h-406v-24h406zM762 630v23h-725v-23h725zM39 1l322 1v23h-322v-24zM39 444h602v24h-602v-24zM515 295v24h-476v-24h476z" />
    <glyph glyph-name="afii10082" unicode="&#x440;" horiz-adv-x="800" 
d="M762 24h-725v-23h725v23zM39 210v-24h602v24h-602zM515 359h-476v-24h476v24zM445 503h-406v-24h406v24zM39 653v-24h322v24h-322z" />
    <glyph glyph-name="afii10083" unicode="&#x441;" horiz-adv-x="800" 
d="M353 503v-24h406v24h-406zM36 24v-23h725v23h-725zM759 653l-322 -1v-23h322v24zM759 210h-602v-24h602v24zM283 359v-24h476v24h-476z" />
    <glyph glyph-name="afii10084" unicode="&#x442;" horiz-adv-x="800" 
d="M353 151v24h406v-24h-406zM36 630v23h725v-23h-725zM759 1l-322 1v23h322v-24zM759 444h-602v24h602v-24zM283 295v24h476v-24h-476z" />
    <glyph glyph-name="afii10085" unicode="&#x443;" horiz-adv-x="803" 
d="M171 115v-23h696v23h-696zM506 208h-602v-24h602v24zM-84 413v-24h497v24h-497zM368 316v-24h497v24h-497zM860 543h-454v-23h454v23z" />
    <glyph glyph-name="afii10086" unicode="&#x444;" horiz-adv-x="803" 
d="M599 115h-696v-23h696v23zM264 208v-24h602v24h-602zM854 413h-497v-24h497v24zM402 316h-497v-24h497v24zM-90 543v-24h454v24h-454z" />
    <glyph glyph-name="afii10087" unicode="&#x445;" horiz-adv-x="803" 
d="M599 519v23h-696v-23h696zM264 426h602v24h-602v-24zM854 221v24h-497v-24h497zM402 318v24h-497v-24h497zM-90 91h454v24h-454v-24z" />
    <glyph glyph-name="afii10088" unicode="&#x446;" horiz-adv-x="803" 
d="M171 519h696v23h-696v-23zM506 426v24h-602v-24h602zM-84 221h497v24h-497v-24zM368 318h497v24h-497v-24zM860 91v23h-454v-23h454z" />
    <glyph glyph-name="afii10089" unicode="&#x447;" 
d="M997 191v24h-497v-24h497zM1096 647v23h-696v-23h696zM-54 0l454 1v23h-454v-24zM494 491h602v24h-602v-24zM706 339v24h-497v-24h497z" />
    <glyph glyph-name="afii10090" unicode="&#x448;" 
d="M997 479v-24h-497v24h497zM1096 23v-23h-696v23h696zM-54 670l454 -1v-23h-454v24zM494 179h602v-24h-602v24zM706 331v-24h-497v24h497z" />
    <glyph glyph-name="afii10091" unicode="&#x449;" horiz-adv-x="203" 
d="M39 479h123v24h-123v-24zM39 210v-24h123v24h-123zM39 653v-24h123v24h-123zM39 335h123v24h-123v-24zM37 1h125v23h-125v-23z" />
    <glyph glyph-name="afii10092" unicode="&#x44a;" 
d="M905 185v24h-497v-24h497zM621 636v23h-696v-23h696zM651 -1l454 1v23h-454v-24zM508 505h602v24h-602v-24zM431 341v24h-497v-24h497z" />
    <glyph glyph-name="afii10093" unicode="&#x44b;" 
d="M899 395v24h-497v-24h497zM621 636v23h-696v-23h696zM651 288l454 1v23h-454v-24zM501 563h602v24h-602v-24zM420 188v24h-497v-24h497z" />
    <glyph glyph-name="afii10094" unicode="&#x44c;" 
d="M894 107v24h-497v-24h497zM616 348v23h-696v-23h696zM646 0l454 1v23h-454v-24zM496 274h602v24h-602v-24zM414 191v24h-497v-24h497z" />
    <glyph glyph-name="afii10095" unicode="&#x44d;" 
d="M621 22h-696v-23h696v23zM508 153v-24h602v24h-602zM905 473h-497v-24h497v24zM431 317h-497v-24h497v24zM651 659v-24h454v24h-454z" />
    <glyph glyph-name="afii10096" unicode="&#x44e;" 
d="M129 473v-24h497v24h-497zM413 22v-23h696v23h-696zM383 659l-454 -1v-23h454v24zM526 153h-602v-24h602v24zM603 317v-24h497v24h-497z" />
    <glyph glyph-name="afii10097" unicode="&#x44f;" 
d="M129 185v24h497v-24h-497zM413 636v23h696v-23h-696zM383 -1l-454 1v23h454v-24zM526 505h-602v24h602v-24zM603 341v24h497v-24h-497z" />
    <glyph glyph-name="afii10071" unicode="&#x451;" horiz-adv-x="803" 
d="M171 519h696v23h-696v-23zM506 426v24h-602v-24h602zM-84 221h497v24h-497v-24zM368 318h497v24h-497v-24zM860 91v24h-454v-24h454z" />
    <glyph glyph-name="afii10101" unicode="&#x454;" 
d="M997 191v24h-497v-24h497zM1096 647v23h-696v-23h696zM-54 0l454 1v23h-454v-24zM494 491h602v24h-602v-24zM706 339v24h-497v-24h497z" />
    <glyph glyph-name="afii10102" unicode="&#x455;" horiz-adv-x="800" 
d="M353 151v24h406v-24h-406zM36 630v23h725v-23h-725zM759 1l-322 1v23h322v-24zM759 444h-602v24h602v-24zM283 295v24h476v-24h-476z" />
    <glyph glyph-name="afii10103" unicode="&#x456;" 
d="M-55 482v-24h497v24h-497zM-54 23v-23h696v23h-696zM1096 670l-454 -1v-23h454v24zM1044 150h-602v-24h602v24zM290 325v-24h497v24h-497z" />
    <glyph glyph-name="afii10104" unicode="&#x457;" 
d="M1098 366v24h-497v-24h497zM619 556v23h-696v-23h696zM647 -2l454 1v23h-454v-24zM-80 369h602v24h-602v-24zM639 172v24h-497v-24h497z" />
    <glyph glyph-name="afii10105" unicode="&#x458;" 
d="M1100 212v-24h-497v24h497zM621 22v-23h-696v23h696zM649 580l454 -1v-23h-454v24zM-78 209h602v-24h-602v24zM641 406v-24h-497v24h497z" />
    <glyph glyph-name="endash" unicode="&#x2013;" horiz-adv-x="354" 
d="M27 203h301v106h-301v-106z" />
    <glyph glyph-name="emdash" unicode="&#x2014;" horiz-adv-x="354" 
d="M27 203h301v106h-301v-106z" />
    <glyph glyph-name="bullet" unicode="&#x2022;" horiz-adv-x="300" 
d="M74 168h156v165h-156v-165z" />
    <glyph glyph-name="ellipsis" unicode="&#x2026;" horiz-adv-x="597" 
d="M551 0v106h-122v-106h122zM358 68v106h-122v-106h122zM166 154v106h-122v-106h122z" />
    <glyph glyph-name="afii61352" unicode="&#x2116;" 
d="M-54 0l467.002 0.000976562v27h-30c-18.667 0 -34.167 1.66699 -46.5 5s-22.166 9 -29.499 17s-12.5 18.667 -15.5 32s-4.5 30 -4.5 50v390l147 -147h-64l381 -380v194h346v23h-118c10 5.33301 19.167 12.166 27.5 20.499s16.166 17.5 23.499 27.5v169h24v158
c-14 21.333 -31 38.333 -51 51s-41.667 19 -65 19c-16.667 0 -32.834 -3.5 -48.501 -10.5s-29.834 -16.667 -42.501 -29s-23.667 -26.833 -33 -43.5s-16 -34.667 -20 -54h42v-82h-24v-191c12 -14 25.667 -25.667 41 -35h-125v84h-25v-100l-139 141h77l-312 311h-202v-25
c11.333 0 23.5 -0.666992 36.5 -2s25 -3.5 36 -6.5s20 -6.66699 27 -11s10.5 -9.83301 10.5 -16.5v-447c0 -34 -6.66699 -56.833 -20 -68.5s-35 -17.5 -65 -17.5h-38v-30h-168v-23zM751.002 583.001c0 18.667 1.49902 33.332 4.49902 43.999s7.83301 18.334 14.5 23.001
s15.334 7.5 26.001 8.5s24 1.5 40 1.5h260v24h-426v-208h32v-140h49v247zM940.001 526.999c26 0 42.666 -30 49.999 -90h-30c-2 -11.333 -4.5 -23.833 -7.5 -37.5s-6.5 -26.167 -10.5 -37.5s-8.33301 -20.833 -13 -28.5s-9.66699 -11.5 -15 -11.5s-10.333 3.33301 -15 10
s-9 15.167 -13 25.5s-7.5 21.833 -10.5 34.5s-5.5 24.667 -7.5 36h22c4.66699 66 21.334 99 50.001 99zM916 224.999c-24 0 -39.667 24.667 -47 74c14 -6 29 -9 45 -9c15.333 0 32 3.66699 50 11c-6.66699 -50.667 -22.667 -76 -48 -76zM940 558.999
c-15.333 0 -32 -3.66699 -50 -11c8 50.667 24 76 48 76s40 -25 48 -75c-14 6.66699 -29.333 10 -46 10z" />
    <glyph glyph-name=".null" horiz-adv-x="0" 
 />
    <glyph glyph-name="nonmarkingreturn" horiz-adv-x="500" 
 />
    <glyph glyph-name="FL00BFh" 
d="M1098 366v24h-497v-24h497zM619 556v23h-696v-23h696zM647 -2l454 1v23h-454v-24zM-80 369h602v24h-602v-24zM639 172v24h-497v-24h497z" />
    <glyph glyph-name="FL00BAh" 
d="M997 191v24h-497v-24h497zM1096 647v23h-696v-23h696zM-54 0l454 1v23h-454v-24zM494 491h602v24h-602v-24zM706 339v24h-497v-24h497z" />
    <glyph glyph-name="FL00A8h" horiz-adv-x="997" 
d="M-57 -1h399.001v14h136v-36h261v52h312v23h-312v1h-300c-12.667 0 -22.667 0.833008 -30 2.5s-13 4.83398 -17 9.50098s-6.66699 11.167 -8 19.5s-2 19.5 -2 33.5v182h133v-29h157v110h-22c0 -14 -1.16699 -24.833 -3.5 -32.5s-5.5 -13.5 -9.5 -17.5
s-8.66699 -6.33301 -14 -7s-11 -1 -17 -1h-68v31h-156v281h140v-32h67c14.667 0 28 -1.33301 40 -4s23 -7.66699 33 -15s19.167 -17.666 27.5 -30.999s16.166 -30.666 23.499 -51.999h21v156h-123v50h-661v-23h214v-1c20 0 36.667 -2.33301 50 -7
s23.833 -11.834 31.5 -21.501s13 -22.167 16 -37.5s4.5 -34 4.5 -56v-435c0 -21.333 -1.5 -38.833 -4.5 -52.5s-8.5 -24.334 -16.5 -32.001s-18.5 -12.834 -31.5 -15.501s-29.5 -4 -49.5 -4h-221v-23zM571.001 838h122v106h-122v-106zM369.001 784h122v106h-122v-106z" />
    <glyph glyph-name="FL2013h" horiz-adv-x="354" 
d="M27 203h301v106h-301v-106z" />
    <glyph glyph-name="FL2014h" horiz-adv-x="354" 
d="M27 203h301v106h-301v-106z" />
    <glyph glyph-name="FL00B1h" horiz-adv-x="600" 
d="M0 0h669v64h-291v220h115v129h-169v75h380v24h-380v88h-90v-204h-131v-90h185v-91h-389v-24h389v-127h-288v-64z" />
    <glyph glyph-name="FL0430h" 
d="M905 185v24h-497v-24h497zM621 636v23h-696v-23h696zM651 -1l454 1v23h-454v-24zM508 505h602v24h-602v-24zM431 341v24h-497v-24h497z" />
    <glyph glyph-name="FL0431h" 
d="M899 395v24h-497v-24h497zM621 636v23h-696v-23h696zM651 288l454 1v23h-454v-24zM501 563h602v24h-602v-24zM420 188v24h-497v-24h497z" />
    <glyph glyph-name="FL0432h" 
d="M894 107v24h-497v-24h497zM616 348v23h-696v-23h696zM646 0l454 1v23h-454v-24zM496 274h602v24h-602v-24zM414 191v24h-497v-24h497z" />
    <glyph glyph-name="FL0433h" 
d="M905 473v-24h-497v24h497zM621 22v-23h-696v23h696zM651 659l454 -1v-23h-454v24zM508 153h602v-24h-602v24zM431 317v-24h-497v24h497z" />
    <glyph glyph-name="FL0434h" 
d="M129 473v-24h497v24h-497zM413 22v-23h696v23h-696zM383 659l-454 -1v-23h454v24zM526 153h-602v-24h602v24zM603 317v-24h497v24h-497z" />
    <glyph glyph-name="FL0435h" 
d="M129 185v24h497v-24h-497zM413 636v23h696v-23h-696zM383 -1l-454 1v23h454v-24zM526 505h-602v24h602v-24zM603 341v24h497v-24h-497z" />
    <glyph glyph-name="FL0436h" 
d="M122 263v-24h497v24h-497zM400 22v-23h696v23h-696zM370 370l-454 -1v-23h454v24zM520 96h-602v-24h602v24zM602 179v-24h497v24h-497z" />
    <glyph glyph-name="FL0437h" 
d="M129 395v24h497v-24h-497zM407 636v23h696v-23h-696zM377 288l-454 1v23h454v-24zM527 561h-602v24h602v-24zM608 495v24h497v-24h-497z" />
    <glyph glyph-name="FL0438h" 
d="M-55 482v-24h497v24h-497zM-54 23v-23h696v23h-696zM1096 670l-454 -1v-23h454v24zM1044 150h-602v-24h602v24zM290 325v-24h497v24h-497z" />
    <glyph glyph-name="FL0439h" 
d="M1100 212v-24h-497v24h497zM621 22v-23h-696v23h696zM649 580l454 -1v-23h-454v24zM-78 209h602v-24h-602v24zM641 406v-24h-497v24h497z" />
    <glyph glyph-name="FL043Ah" 
d="M-76 366v24h497v-24h-497zM403 556v23h696v-23h-696zM375 -2l-454 1v23h454v-24zM1102 369h-602v24h602v-24zM383 172v24h497v-24h-497z" />
    <glyph glyph-name="FL043Bh" 
d="M-76 210v-24h497v24h-497zM403 20v-23h696v23h-696zM375 578l-454 -1v-23h454v24zM1102 207h-602v-24h602v24zM383 404v-24h497v24h-497z" />
    <glyph glyph-name="FL043Ch" 
d="M1098 366v24h-497v-24h497zM619 556v23h-696v-23h696zM647 -2l454 1v23h-454v-24zM-80 369h602v24h-602v-24zM639 172v24h-497v-24h497z" />
    <glyph glyph-name="FL043Dh" horiz-adv-x="800" 
d="M762 23h-725v-23h725v23zM88 207v-24h602v24h-602zM630 354h-476v-24h476v24zM593 507h-406v-24h406v24zM234 655v-24h322v23z" />
    <glyph glyph-name="FL043Eh" horiz-adv-x="800" 
d="M762 631v23h-725v-23h725zM88 447h602v24h-602v-24zM630 300v24h-476v-24h476zM593 147v24h-406v-24h406zM234 -1l322 1v23h-322v-24z" />
    <glyph glyph-name="FL043Fh" horiz-adv-x="800" 
d="M445 151v24h-406v-24h406zM762 630v23h-725v-23h725zM39 1l322 1v23h-322v-24zM39 444h602v24h-602v-24zM515 295v24h-476v-24h476z" />
    <glyph glyph-name="FL0440h" horiz-adv-x="800" 
d="M762 24h-725v-23h725v23zM39 210v-24h602v24h-602zM515 359h-476v-24h476v24zM445 503h-406v-24h406v24zM39 653v-24h322v24h-322z" />
    <glyph glyph-name="FL0441h" horiz-adv-x="800" 
d="M353 503v-24h406v24h-406zM36 24v-23h725v23h-725zM759 653l-322 -1v-23h322v24zM759 210h-602v-24h602v24zM283 359v-24h476v24h-476z" />
    <glyph glyph-name="FL0442h" horiz-adv-x="800" 
d="M353 151v24h406v-24h-406zM36 630v23h725v-23h-725zM759 1l-322 1v23h322v-24zM759 444h-602v24h602v-24zM283 295v24h476v-24h-476z" />
    <glyph glyph-name="FL0443h" horiz-adv-x="803" 
d="M171 115v-23h696v23h-696zM506 208h-602v-24h602v24zM-84 413v-24h497v24h-497zM368 316v-24h497v24h-497zM860 543h-454v-23h454v23z" />
    <glyph glyph-name="FL0444h" horiz-adv-x="803" 
d="M599 115h-696v-23h696v23zM264 208v-24h602v24h-602zM854 413h-497v-24h497v24zM402 316h-497v-24h497v24zM-90 543v-24h454v24h-454z" />
    <glyph glyph-name="FL0445h" horiz-adv-x="803" 
d="M599 519v23h-696v-23h696zM264 426h602v24h-602v-24zM854 221v24h-497v-24h497zM402 318v24h-497v-24h497zM-90 91h454v24h-454v-24z" />
    <glyph glyph-name="FL0446h" horiz-adv-x="803" 
d="M171 519h696v23h-696v-23zM506 426v24h-602v-24h602zM-84 221h497v24h-497v-24zM368 318h497v24h-497v-24zM860 91v23h-454v-23h454z" />
    <glyph glyph-name="FL0447h" 
d="M997 191v24h-497v-24h497zM1096 647v23h-696v-23h696zM-54 0l454 1v23h-454v-24zM494 491h602v24h-602v-24zM706 339v24h-497v-24h497z" />
    <glyph glyph-name="FL0448h" 
d="M997 479v-24h-497v24h497zM1096 23v-23h-696v23h696zM-54 670l454 -1v-23h-454v24zM494 179h602v-24h-602v24zM706 331v-24h-497v24h497z" />
    <glyph glyph-name="FL0449h" horiz-adv-x="203" 
d="M39 479h123v24h-123v-24zM39 210v-24h123v24h-123zM39 653v-24h123v24h-123zM39 335h123v24h-123v-24zM37 1h125v23h-125v-23z" />
    <glyph glyph-name="FL044Ah" 
d="M905 185v24h-497v-24h497zM621 636v23h-696v-23h696zM651 -1l454 1v23h-454v-24zM508 505h602v24h-602v-24zM431 341v24h-497v-24h497z" />
    <glyph glyph-name="FL044Bh" 
d="M899 395v24h-497v-24h497zM621 636v23h-696v-23h696zM651 288l454 1v23h-454v-24zM501 563h602v24h-602v-24zM420 188v24h-497v-24h497z" />
    <glyph glyph-name="FL044Ch" 
d="M894 107v24h-497v-24h497zM616 348v23h-696v-23h696zM646 0l454 1v23h-454v-24zM496 274h602v24h-602v-24zM414 191v24h-497v-24h497z" />
    <glyph glyph-name="FL044Dh" 
d="M621 22h-696v-23h696v23zM508 153v-24h602v24h-602zM905 473h-497v-24h497v24zM431 317h-497v-24h497v24zM651 659v-24h454v24h-454z" />
    <glyph glyph-name="FL044Eh" 
d="M129 473v-24h497v24h-497zM413 22v-23h696v23h-696zM383 659l-454 -1v-23h454v24zM526 153h-602v-24h602v24zM603 317v-24h497v24h-497z" />
    <glyph glyph-name="FL044Fh" 
d="M129 185v24h497v-24h-497zM413 636v23h696v-23h-696zM383 -1l-454 1v23h454v-24zM526 505h-602v24h602v-24zM603 341v24h497v-24h-497z" />
    <glyph glyph-name="FL0410h" horiz-adv-x="946" 
d="M668 309l-161.002 288.001h-64v-30h-494v-23h382l-197 -402c-17.333 -36 -35.333 -64.333 -54 -85s-39.667 -31.334 -63 -32.001v-25h157v18c-12.667 0 -21.334 2.16699 -26.001 6.5s-7 9.83301 -7 16.5c0 5.33301 0.833008 10.666 2.5 15.999
s3.83398 10.666 6.50098 15.999l62 118h310c10.667 -24 19.334 -44.167 26.001 -60.5s11.667 -29.666 15 -39.999s5.66602 -18.333 6.99902 -24s2 -10.167 2 -13.5c0 -12 -4.66699 -20.667 -14 -26s-28.666 -8.33301 -57.999 -9v-18h499v24
c-12 0.666992 -30.667 1.83398 -56 3.50098s-52.666 4 -81.999 7s-58.5 6.83301 -87.5 11.5s-53.167 11 -72.5 19l-118 244h85zM503.998 221.001h-274l130 275z" />
    <glyph glyph-name="FL0412h" horiz-adv-x="950" 
d="M361 679v57.999h-408v-24h272c16 0 28.5 -3.33301 37.5 -10s16.833 -14.667 23.5 -24h-51v-29c21.333 0 37 -0.166992 47 -0.5s17.333 -1.16602 22 -2.49902v-113h-19v-191h45v-153h-53v-112h24v-54h-352v-24h352v-38h43v38h180c56 0 100.833 10.5 134.5 31.5
s58.5 46.5 74.5 76.5v77h266v24h-266v75c-3.33301 4 -8.16602 9.33301 -14.499 16s-13.5 13.667 -21.5 21s-16.333 14.333 -25 21s-16.334 11.667 -23.001 15c7.33301 1.33301 17.833 5.5 31.5 12.5s26.167 14.167 37.5 21.5v288h-357zM464 328.999l85.0029 -0.000976562
c25.333 0 47.166 -5.66699 65.499 -17s33.666 -25.666 45.999 -42.999s22.166 -37 29.499 -59s12.666 -43.333 15.999 -64h-95c-2.66699 -20.667 -8.16699 -36.667 -16.5 -48s-19 -19.833 -32 -25.5s-28.5 -9.16699 -46.5 -10.5s-38 -2 -60 -2c-16 0 -31.667 0.333008 -47 1
s-28.666 2.66699 -39.999 6v229h95v33zM337.003 384.998v239h210c48 0 82.5 -13.167 103.5 -39.5s32.167 -62.5 33.5 -108.5h-84c-10 -30 -28 -52.667 -54 -68s-58.333 -23 -97 -23h-112z" />
    <glyph glyph-name="FL0421h" horiz-adv-x="1000" 
d="M779 0h277.996v23h-278v18h-43v33h-48v-2c-23.333 -14 -48.5 -24.667 -75.5 -32s-54.5 -11 -82.5 -11s-54.167 4 -78.5 12s-45.5 20.167 -63.5 36.5s-32.333 36.833 -43 61.5s-16 53.334 -16 86.001h-84v284h84c4.66699 16.667 13.334 31.5 26.001 44.5
s28 24.167 46 33.5s37.833 16.5 59.5 21.5s43.834 7.5 66.501 7.5c34 0 66.5 -5.83301 97.5 -17.5s56.167 -30.167 75.5 -55.5h54l37 134l-33 23l-5 -12c-2 -4.66699 -5 -9.33398 -9 -14.001s-8.83301 -8.5 -14.5 -11.5s-12.5 -4.5 -20.5 -4.5c-20 0 -39 2 -57 6
s-36 8.5 -54 13.5s-36.167 9.66699 -54.5 14s-37.5 6.5 -57.5 6.5c-29.333 0 -62.333 -4.83301 -99 -14.5s-73.167 -22 -109.5 -37s-70.166 -31.833 -101.499 -50.5s-56 -37 -74 -55v-28h22v-154h31v-148h-205v-23h240v-100c40 -36 87.833 -62.833 143.5 -80.5
s115.834 -26.5 180.501 -26.5c30 0 60.167 2 90.5 6s59.833 9.66699 88.5 17v-42z" />
    <glyph glyph-name="FL0415h" horiz-adv-x="997" 
d="M-57 -1h399.001v14h136v-36h261v52h312v23h-312v1h-300c-12.667 0 -22.667 0.833008 -30 2.5s-13 4.83398 -17 9.50098s-6.66699 11.167 -8 19.5s-2 19.5 -2 33.5v182h133v-29h157v110h-22c0 -13.333 -2.16699 -23.833 -6.5 -31.5s-11 -13.5 -20 -17.5
s-20.5 -6.5 -34.5 -7.5s-31 -1.5 -51 -1.5v31h-156v281h140v-32h67c14.667 0 28 -1.33301 40 -4s23 -7.66699 33 -15s19.167 -17.666 27.5 -30.999s16.166 -30.666 23.499 -51.999h21v156h-123v50h-661v-23h214v-1c20 0 36.667 -2.33301 50 -7s23.833 -11.834 31.5 -21.501
s13 -22.167 16 -37.5s4.5 -34 4.5 -56v-435c0 -21.333 -1.5 -38.833 -4.5 -52.5s-8.5 -24.334 -16.5 -32.001s-18.5 -12.834 -31.5 -15.501s-29.5 -4 -49.5 -4h-221v-23z" />
    <glyph glyph-name="FL041Dh" horiz-adv-x="1000" 
d="M739 211l-0.000976562 467h-70v-303h-331v254c0 20 1.5 36.667 4.5 50s8.16699 23.833 15.5 31.5s17.333 13.167 30 16.5s28.667 5 48 5h22v22h-512v-23h222c26 -3.33301 45 -12.833 57 -28.5s18 -37.5 18 -65.5v-25h-141v-23h34c28 0 49.167 -6.66699 63.5 -20
s21.5 -38 21.5 -74v-118h22v-223c0 -20 -1.5 -36.667 -4.5 -50s-8.16699 -24 -15.5 -32s-17.166 -13.667 -29.499 -17s-27.833 -5 -46.5 -5h-19v-24h309v24h-1c-19.333 0 -35.333 1.66699 -48 5s-22.667 9 -30 17s-12.5 18.667 -15.5 32s-4.5 30 -4.5 50v161h331v-282
c0 -20 -1.5 -36.667 -4.5 -50s-8.33301 -24 -16 -32s-17.667 -13.667 -30 -17s-27.833 -5 -46.5 -5h-23l1 -20h190v276h322v26h-323z" />
    <glyph glyph-name="FL041Ah" horiz-adv-x="1100" 
d="M1158 1l-0.00488281 25.002h-288c-25.333 2.66699 -52.833 8.5 -82.5 17.5s-60.5 27.167 -92.5 54.5l-262 260l172.5 173c47 45.333 85.833 81.333 116.5 108s54.334 45.5 71.001 56.5s28.334 16.833 35.001 17.5v32h-221v-4h-659v-24h659v-16
c47.333 0 71 -4.33301 71 -13c0 -5.33301 -7.33301 -13.333 -22 -24h-121l-1 -20c28.667 0 48.667 -2 60 -6s17 -8.66699 17 -14c0 -4 -2.33301 -8.33301 -7 -13l-271 -266v217c0 24 3.16699 42 9.5 54s19.5 18 39.5 18h15v32h-134v-104h-120v-2h-194v-25h194
c28.667 0 48.167 -7.83301 58.5 -23.5s15.5 -44.834 15.5 -87.501v-31h-37v-264c0 -20 -1.5 -36.667 -4.5 -50s-8.16699 -24 -15.5 -32s-17.166 -13.667 -29.499 -17s-27.833 -5 -46.5 -5h-16v-25h188l3 2c0 -20.667 -1 -37.834 -3 -51.501s-5.33301 -24.667 -10 -33
s-11.167 -14.166 -19.5 -17.499s-18.5 -5 -30.5 -5h-10v-32h257v32c-15.333 0 -27.666 1.66699 -36.999 5s-16.833 9.16602 -22.5 17.499s-9.5 19.333 -11.5 33s-3 30.834 -3 51.501v112h-99v45h63v169l103.5 -97l70.5 -67l44.5 -43c11 -10.667 19.167 -18.834 24.5 -24.501
l11 -11.5l5 -5l19 -30c0 -9.33301 -4.66699 -15.833 -14 -19.5s-27.666 -5.5 -54.999 -5.5v-25h108c2.66699 -4.66699 4 -9.66699 4 -15c0 -9.33301 -3 -16 -9 -20s-18 -6 -36 -6v-32h246v32c-11.333 1.33301 -22.5 5.33301 -33.5 12s-23.167 16.667 -36.5 30h373z" />
    <glyph glyph-name="FL041Ch" horiz-adv-x="1051" 
d="M2 -131v-17h212v329h26v380h2l285 -562l266 572h2v-435c0 -40.667 -6.5 -70.667 -19.5 -90s-38.167 -29 -75.5 -29h-20v-17h195v543h224v24h-224v106h-92l-224 -458l-246 458h-71v69h-258v-22h16c33.333 0 62.333 -2.66699 87 -8s41.667 -18.333 51 -39h-107v-26h16
c20 0 36.333 -1.66699 49 -5s22.5 -9 29.5 -17s11.833 -18.333 14.5 -31s4 -28 4 -46v-559c0 -36 -8 -64.5 -24 -85.5s-39.667 -32.5 -71 -34.5h-47z" />
    <glyph glyph-name="FL041Eh" horiz-adv-x="1000" 
d="M-43 290l233.004 -0.000976562v-158c32 -44 73.333 -79.5 124 -106.5s107 -41.5 169 -43.5v44c28.667 0 56.167 4.16699 82.5 12.5s51.166 19.833 74.499 34.5s44.666 31.834 63.999 51.501s36.666 40.5 51.999 62.5h295v23h-288v345
c-15.333 24.667 -34 47.334 -56 68.001s-46 38.667 -72 54s-53.833 27.333 -83.5 36s-59.834 13 -90.501 13v-43c-28.667 0 -56.167 -3.83301 -82.5 -11.5s-51 -18.334 -74 -32.001s-44.167 -29.667 -63.5 -48s-36.333 -37.833 -51 -58.5v-220h-233v-23zM280.004 332.999
c0 45.333 4.33203 84.168 12.999 116.501s21.167 59.166 37.5 80.499s36.5 37.5 60.5 48.5s51.667 18.167 83 21.5v76c29.333 -4 58.333 -13.833 87 -29.5s54.167 -36.334 76.5 -62.001s40.5 -56.167 54.5 -91.5s21 -74.666 21 -117.999c0 -46 -7.16699 -87 -21.5 -123
s-33.333 -67 -57 -93s-50.667 -46.333 -81 -61s-61.166 -23.334 -92.499 -26.001v-41c-58.667 9.33301 -103.5 39.833 -134.5 91.5s-46.5 121.834 -46.5 210.501z" />
    <glyph glyph-name="FL0420h" horiz-adv-x="749" 
d="M842 683l-0.000976562 24.002h-709v-24h1v-474h-235v-24h235v-54h-26v-191h120v21c-17.333 0 -30 0.333008 -38 1s-13.5 2.16699 -16.5 4.5s-4.83301 6.16602 -5.5 11.499s-2.33398 12.666 -5.00098 21.999h135v20c-20.667 0 -37.834 1.33301 -51.501 4
s-24.667 7.66699 -33 15s-14.166 17.833 -17.499 31.5s-5 31.5 -5 53.5v211c18.667 -11.333 39.667 -20.166 63 -26.499s47.333 -9.5 72 -9.5c25.333 0 49.333 3.16699 72 9.5s43.334 15.166 62.001 26.499v295c0 5.33301 -4.33301 10.833 -13 16.5s-19.5 11 -32.5 16
s-26.667 9.33301 -41 13s-27.166 6.16699 -38.499 7.5h507zM165.999 621.002c4.66699 2 12.501 3.66992 23.501 5.00293s22.833 2.5 35.5 3.5s24.5 1.83301 35.5 2.5s19.167 1 24.5 1c42.667 0 76.667 -12 102 -36s38 -56.333 38 -97c0 -20 -3.16699 -38.333 -9.5 -55
s-15.333 -31.334 -27 -44.001s-25.334 -22.5 -41.001 -29.5s-32.5 -10.5 -50.5 -10.5c-6 0 -15 0.333008 -27 1s-24.667 1.66699 -38 3s-26 3.16602 -38 5.49902s-21.333 5.16602 -28 8.49902v242z" />
    <glyph glyph-name="FL0422h" horiz-adv-x="703" 
d="M-49 1l311.997 -0.000976562c-7.33301 -11.333 -17.666 -18.166 -30.999 -20.499s-28.333 -3.5 -45 -3.5h-25v-20h180v61h190v22h-20c-19.333 0 -35.166 2 -47.499 6s-22.166 10.333 -29.499 19s-12.333 20.167 -15 34.5s-4 31.5 -4 51.5v38h346v23h-346v433h112
c21.333 0 38.833 -1.33301 52.5 -4s24.5 -7.83398 32.5 -15.501s13.833 -17.834 17.5 -30.501s6.5 -29 8.5 -49h20v135h-357v-38h-267v-152h19c0 18.667 1.16699 35.334 3.5 50.001s7.16602 27 14.499 37s17.666 17.5 30.999 22.5s31 7.5 53 7.5h124v-492
c0 -18.667 -0.166992 -33.667 -0.5 -45s-0.666016 -20.166 -0.999023 -26.499s-0.666016 -11 -0.999023 -14s-0.833008 -5.5 -1.5 -7.5h-325v-22z" />
    <glyph glyph-name="FL0425h" horiz-adv-x="951" 
d="M-56 690l171 0.00195312c24 -5.33301 50.833 -16.833 80.5 -34.5s58.834 -45.5 87.501 -83.5l152 -180h-86l46 -48l-135 -218c-16 -20.667 -30.333 -38.334 -43 -53.001s-24.834 -27 -36.501 -37s-23.667 -17.667 -36 -23s-26.5 -9 -42.5 -11v-24h262v24
c-23.333 0 -42.5 1.5 -57.5 4.5s-22.5 11.5 -22.5 25.5c0 9.33301 3.33301 24.5 10 45.5s17 44.5 31 70.5l96 151l176 -192c16 -22 26.5 -37.833 31.5 -47.5s7.5 -17.834 7.5 -24.501c0 -12 -4.33301 -20.667 -13 -26s-25.334 -8 -50.001 -8v-23h309v23
c-16.667 0.666992 -36.5 9 -59.5 25s-45.167 39 -66.5 69l-248 296l55 2l-177 208c-11.333 12.667 -19.666 24.334 -24.999 35.001s-8 19 -8 25c0 11.333 5 19.666 15 24.999s26.667 8.33301 50 9v21h-474v-26zM640 398.002c26 32.667 49.665 65.998 70.998 99.998l60 93
c18.667 28 36.834 51.333 54.501 70s36.167 29.667 55.5 33l1 24h-223l-1 -22c22 -0.666992 37.167 -6.66699 45.5 -18s12.5 -25.333 12.5 -42c0 -17.333 -3.16699 -35.666 -9.5 -54.999s-13.166 -36.666 -20.499 -51.999l-85 -131h39z" />
    <glyph glyph-name="FL0405h" horiz-adv-x="901" 
d="M1001 579l0.00195312 23.998h-303v117h-33c-6.66699 -22.667 -19 -34 -37 -34c-10 0 -20 1.83301 -30 5.5s-21.333 7.5 -34 11.5s-27 7.83301 -43 11.5s-35.333 5.5 -58 5.5h-578v-26h445c-2 -2 -3.83301 -4.16699 -5.5 -6.5l-5.5 -7.5v-301
c18 -15.333 40.333 -30.5 67 -45.5l80.5 -43.5l76 -40.5c23.667 -13 41.5 -25.167 53.5 -36.5c15.333 -15.333 25.166 -29.666 29.499 -42.999s6.5 -26 6.5 -38c0 -17.333 -4.33301 -33.333 -13 -48c-4.66699 -2.66699 -12.667 -5 -24 -7s-23.5 -3.66699 -36.5 -5
s-25.667 -2.33301 -38 -3s-21.5 -1 -27.5 -1c-23.333 0 -46.166 4.83301 -68.499 14.5s-43.333 23.167 -63 40.5s-37.667 37.833 -54 61.5s-29.833 49.5 -40.5 77.5h-32v-47h-336v-25h300v-238h32c0 3.33301 1 6.66602 3 9.99902v39h401c12.667 12 24.667 24.333 36 37
s21.166 26 29.499 40s14.833 29.167 19.5 45.5s7 34.833 7 55.5c0 29.333 -6.83301 56 -20.5 80s-31.5 45.833 -53.5 65.5s-46.5 37.834 -73.5 54.501s-53.5 32 -79.5 46l-73 40c-22.667 12.667 -40.334 25 -53.001 37c-3.33301 4.66699 -5.83301 10.834 -7.5 18.501
s-3.16699 15.834 -4.5 24.501s-2.16602 17.167 -2.49902 25.5s-0.5 15.166 -0.5 20.499c0 14 2.33301 25.333 7 34c16 8 34.667 12 56 12s42.166 -4 62.499 -12s39.5 -19.5 57.5 -34.5s34.667 -33 50 -54s28.333 -44.5 39 -70.5h33v113h337z" />
    <glyph glyph-name="FL0455h" horiz-adv-x="800" 
d="M353 151v24h406v-24h-406zM36 630v23h725v-23h-725zM759 1l-322 1v23h322v-24zM759 444h-602v24h602v-24zM283 295v24h476v-24h-476z" />
    <glyph glyph-name="FL0408h" horiz-adv-x="600" 
d="M291 124c0 -24 -3.5 -41.998 -10.5 -53.998s-17.167 -20.667 -30.5 -26c-4.66699 7.33301 -8.5 15.666 -11.5 24.999s-6.5 18.666 -10.5 27.999h-100v-76h-206v-22h421v33c26 18 46.167 42.167 60.5 72.5s21.5 63.5 21.5 99.5v302c0 39.333 6.5 66.5 19.5 81.5
s36.833 22.5 71.5 22.5v32h-64c7.33301 7.33301 17 12.333 29 15s26.667 4 44 4h12v16h161v23h-271v-18h-187v-21h26c18 0 33 -1.33301 45 -4s21.667 -7.66699 29 -15h-135v-32h18c32 0 54.167 -7.83301 66.5 -23.5s18.5 -42.5 18.5 -80.5v-144h-17v-238z" />
    <glyph glyph-name="FL0458h" 
d="M1100 212v-24h-497v24h497zM621 22v-23h-696v23h696zM649 580l454 -1v-23h-454v24zM-78 209h602v-24h-602v24zM641 406v-24h-497v24h497z" />
    <glyph glyph-name="FL0456h" 
d="M-55 482v-24h497v24h-497zM-54 23v-23h696v23h-696zM1096 670l-454 -1v-23h454v24zM1044 150h-602v-24h602v24zM290 325v-24h497v24h-497z" />
    <glyph glyph-name="FL0413h" horiz-adv-x="897" 
d="M438 350l0.000976562 265.001h113c18 0 34.167 -1.16699 48.5 -3.5s27 -7.5 38 -15.5s20.667 -19.167 29 -33.5s15.5 -33.5 21.5 -57.5h26v149c9.33301 -6.66699 16.5 -16.334 21.5 -29.001s7.5 -29.667 7.5 -51h24v144h-91v-48h-732v-24h120
c10 0 18.167 -2.66699 24.5 -8s11.166 -11.5 14.499 -18.5s5.66602 -14.167 6.99902 -21.5s2 -13.333 2 -18h231v-371h-394v-24h394v-101c-2 -13.333 -5.16699 -23.833 -9.5 -31.5s-10.333 -13.5 -18 -17.5s-17.167 -6.5 -28.5 -7.5s-24.666 -1.5 -39.999 -1.5h-27v-26h141
v-188h221v31h-64c-32 0 -55 5.16699 -69 15.5s-22.333 29.833 -25 58.5v262l14 1v170z" />
    <glyph glyph-name="FL0411h" horiz-adv-x="950" 
d="M337 385v238.999h210c48 0 82.833 -6.5 104.5 -19.5s32.5 -32.5 32.5 -58.5h34v133h-357v58h-408v-24h272c16 0 28.5 -3.33301 37.5 -10s16.833 -14.667 23.5 -24h-51v-29c21.333 0 37 -0.166992 47 -0.5s17.333 -1.16602 22 -2.49902v-113h-19v-191h45v-153h-53v-112h24
v-54h-352v-24h352v-38h43v38h180c56 0 100.833 10.5 134.5 31.5s58.5 46.5 74.5 76.5v77h266v24h-266v75c-12 19.333 -28.167 35.5 -48.5 48.5s-43 23.333 -68 31s-51.833 13.167 -80.5 16.5s-57.667 5 -87 5h-112zM464 328.999l85.0029 -0.000976562
c25.333 0 47.166 -5.66699 65.499 -17s33.666 -25.666 45.999 -42.999s22.166 -37 29.499 -59s12.666 -43.333 15.999 -64h-95c-2.66699 -20.667 -8.16699 -36.667 -16.5 -48s-19 -19.833 -32 -25.5s-28.5 -9.16699 -46.5 -10.5s-38 -2 -60 -2c-16 0 -31.667 0.333008 -47 1
s-28.666 2.66699 -39.999 6v229h95v33z" />
    <glyph glyph-name="FL041Fh" horiz-adv-x="1000" 
d="M739 211l-0.000976562 466h-397c4.66699 20.667 14 35 28 43s36 12 66 12h22v22h-512v-23h222c26 -3.33301 45 -12.833 57 -28.5s18 -37.5 18 -65.5v-25h-141v-23h34c28 0 49.167 -6.66699 63.5 -20s21.5 -38 21.5 -74v-118h22v-223c0 -20 -1.5 -36.667 -4.5 -50
s-8.16699 -24 -15.5 -32s-17.166 -13.667 -29.499 -17s-27.833 -5 -46.5 -5h-19v-24h309v24h-1c-19.333 0 -35.333 1.66699 -48 5s-22.667 9 -30 17s-12.5 18.667 -15.5 32s-4.5 30 -4.5 50v463h331v-584c0 -20 -1.5 -36.667 -4.5 -50s-8.33301 -24 -16 -32
s-17.667 -13.667 -30 -17s-27.833 -5 -46.5 -5h-23l1 -20h190v276h322v26h-323z" />
    <glyph glyph-name="FL0418h" horiz-adv-x="1000" 
d="M739 451h323.001v26h-322v276h-190l-1 -20h23c18.667 0 34.167 -1.66699 46.5 -5s22.333 -9 30 -17s13 -18.667 16 -32s4.5 -30 4.5 -50v-70l-331 -212v161c0 20 1.5 36.667 4.5 50s8.16699 24 15.5 32s17.333 13.667 30 17s28.667 5 48 5h1v24h-309v-24h19
c18.667 0 34.167 -1.66699 46.5 -5s22.166 -9 29.499 -17s12.5 -18.667 15.5 -32s4.5 -30 4.5 -50v-223h-22v-118c0 -36 -7.16699 -60.667 -21.5 -74s-35.5 -20 -63.5 -20h-34v-23h141v-25c0 -28 -6 -49.833 -18 -65.5s-31 -25.167 -57 -28.5h-222v-23h512v22h-22
c-19.333 0 -35.333 1.66699 -48 5s-22.667 8.83301 -30 16.5s-12.5 18.167 -15.5 31.5s-4.5 30 -4.5 50v254l331 219v-522h70v467z" />
    <glyph glyph-name="FL0419h" horiz-adv-x="1000" 
d="M739 451h323.001v26h-322v276h-190l-1 -20h23c18.667 0 34.167 -1.66699 46.5 -5s22.333 -9 30 -17s13 -18.667 16 -32s4.5 -30 4.5 -50v-70l-331 -212v161c0 20 1.5 36.667 4.5 50s8.16699 24 15.5 32s17.333 13.667 30 17s28.667 5 48 5h1v24h-309v-24h19
c18.667 0 34.167 -1.66699 46.5 -5s22.166 -9 29.499 -17s12.5 -18.667 15.5 -32s4.5 -30 4.5 -50v-223h-22v-118c0 -36 -7.16699 -60.667 -21.5 -74s-35.5 -20 -63.5 -20h-34v-23h141v-25c0 -28 -6 -49.833 -18 -65.5s-31 -25.167 -57 -28.5h-222v-23h512v22h-22
c-19.333 0 -35.333 1.66699 -48 5s-22.667 8.83301 -30 16.5s-12.5 18.167 -15.5 31.5s-4.5 30 -4.5 50v254l331 219v-522h70v467zM653.001 900c-2.66699 -28 -10.6689 -49.832 -24.002 -65.499s-31.666 -23.5 -54.999 -23.5c-10 0 -21.833 1.83301 -35.5 5.5
s-27.834 8.33398 -42.501 14.001s-29.5 12 -44.5 19l-41.5 19.5v-89h-144c-13.333 -14 -24.166 -32.167 -32.499 -54.5s-12.5 -49.833 -12.5 -82.5h33c4.66699 30 13.334 52 26.001 66s30.667 21 54 21c16 0 34.5 -3.83301 55.5 -11.5s42.833 -16.5 65.5 -26.5v65h180
c18 17.333 31 37.666 39 60.999s12 50.666 12 81.999h-33z" />
    <glyph glyph-name="FL0451h" horiz-adv-x="803" 
d="M171 519h696v23h-696v-23zM506 426v24h-602v-24h602zM-84 221h497v24h-497v-24zM368 318h497v24h-497v-24zM860 91v24h-454v-24h454z" />
    <glyph glyph-name="FL0416h" horiz-adv-x="1499" 
d="M-9 598l-0.00195312 -24.998h58c25.333 -2.66699 52.833 -8.5 82.5 -17.5s60.5 -27.167 92.5 -54.5l262 -260l-172.5 -173c-47 -45.333 -85.833 -81.333 -116.5 -108s-54.334 -45.5 -71.001 -56.5s-28.334 -16.833 -35.001 -17.5v-32h221v4h179v24h-179v16
c-47.333 0 -71 4.33301 -71 13c0 5.33301 7.33301 13.333 22 24h121l1 20c-28.667 0 -48.667 2 -60 6s-17 8.66699 -17 14c0 4 2.33301 8.33301 7 13l264 259v-118c0 -20 -1.5 -36.667 -4.5 -50s-8.16699 -24 -15.5 -32s-17.166 -13.667 -29.499 -17s-27.833 -5 -46.5 -5
h-16v-25h188l3 2c0 -20.667 -1 -37.834 -3 -51.501s-5.33301 -24.667 -10 -33s-11.167 -14.166 -19.5 -17.499s-18.5 -5 -30.5 -5h-10v-32h257v32c-15.333 0 -27.666 1.66699 -36.999 5s-16.833 9.16602 -22.5 17.499s-9.5 19.333 -11.5 33s-3 30.834 -3 51.501v112h-99v45
h63v169l103.5 -97l70.5 -67l44.5 -43c11 -10.667 19.167 -18.834 24.5 -24.501l11 -11.5l5 -5l19 -30c0 -9.33301 -4.66699 -15.833 -14 -19.5s-27.666 -5.5 -54.999 -5.5v-25h108c2.66699 -4.66699 4 -9.66699 4 -15c0 -9.33301 -3 -16 -9 -20s-18 -6 -36 -6v-32h246v32
c-11.333 1.33301 -22.5 5.33301 -33.5 12s-23.167 16.667 -36.5 30h373v25h-288c-25.333 2.66699 -52.833 8.5 -82.5 17.5s-60.5 27.167 -92.5 54.5l-262 260l172.5 173c47 45.333 85.833 81.333 116.5 108s54.334 45.5 71.001 56.5s28.334 16.833 35.001 17.5v32h-221v-4
h-659v-24h659v-16c47.333 0 71 -4.33301 71 -13c0 -5.33301 -7.33301 -13.333 -22 -24h-121l-1 -20c28.667 0 48.667 -2 60 -6s17 -8.66699 17 -14c0 -4 -2.33301 -8.33301 -7 -13l-271 -266v217c0 24 3.16699 42 9.5 54s19.5 18 39.5 18h15v32h-134v-104h-120v-2h-194v-25
h194c28.667 0 48.167 -7.83301 58.5 -23.5s15.5 -44.834 15.5 -87.501v-31h-37v-116l-100.5 94.5l-69 65.5l-43 41.5l-23.5 24l-11 11.5l-5 5l-19 30c0 9.33301 4.66699 15.833 14 19.5s27.666 5.5 54.999 5.5v25h-108c-2.66699 4.66699 -4 9.66699 -4 15
c0 9.33301 3 16 9 20s18 6 36 6v32h-246v-32c11.333 -1.33301 22.5 -5.33301 33.5 -12s23.167 -16.667 36.5 -30h-143z" />
    <glyph glyph-name="FL042Eh" horiz-adv-x="1311" 
d="M461 0l-0.000976562 22.9971h-21c-18.667 0 -36.167 0.666992 -52.5 2s-30.666 4.83301 -42.999 10.5s-22.166 14.334 -29.499 26.001s-11 27.5 -11 47.5v181h197v-158c32 -44 73.333 -79.5 124 -106.5s107 -41.5 169 -43.5v44c58 5.33301 110.5 22.333 157.5 51
s85.5 65.334 115.5 110.001h295v23h-288v345c-31.333 49.333 -73.333 89.166 -126 119.499s-111.334 47.5 -176.001 51.5v-43c-58 -5.33301 -110.167 -21.166 -156.5 -47.499s-84.5 -60.5 -114.5 -102.5v-220h-197v259c0 20 1.5 36.667 4.5 50s8.16699 24 15.5 32
s17 13.667 29 17s27.333 5 46 5h12v16h144v24h-254v-19h-243v-20h26c19.333 0 35.166 -1.66699 47.499 -5s22.166 -8.83301 29.499 -16.5s12.333 -18.167 15 -31.5s4 -30 4 -50v-447c0 -16 -1.66699 -29.333 -5 -40s-8.16602 -19.167 -14.499 -25.5
s-14.166 -11.166 -23.499 -14.499s-20.333 -6 -33 -8v-15h-148v-24h505zM590.999 332.997c0 45.333 4.33203 84.168 12.999 116.501s21.167 59.166 37.5 80.499s36.5 37.5 60.5 48.5s51.667 18.167 83 21.5v76c29.333 -4 58.333 -13.833 87 -29.5
s54.167 -36.334 76.5 -62.001s40.5 -56.167 54.5 -91.5s21 -74.666 21 -117.999c0 -46 -7.16699 -87 -21.5 -123s-33.333 -67 -57 -93s-50.667 -46.333 -81 -61s-61.166 -23.334 -92.499 -26.001v-41c-58.667 9.33301 -103.5 39.833 -134.5 91.5
s-46.5 121.834 -46.5 210.501z" />
    <glyph glyph-name="FL042Fh" horiz-adv-x="736" 
d="M787 189v22.999h-258v437h-276c-10.667 0 -21.167 -2.5 -31.5 -7.5s-19.666 -11 -27.999 -18s-15.166 -14.333 -20.499 -22s-8 -13.834 -8 -18.501v-221c6 -5.33301 14 -10.666 24 -15.999s20.5 -10.166 31.5 -14.499s22 -7.83301 33 -10.5s20.833 -4 29.5 -4l-151 -245
c-13.333 -16 -28.333 -27.5 -45 -34.5s-39 -11.5 -67 -13.5h-85v-24h274l203 300h66v-189c0 -21.333 -1.5 -38 -4.5 -50s-8.83301 -21 -17.5 -27s-20.334 -9.66699 -35.001 -11s-33.334 -2 -56.001 -2v-21h164v189h258zM478 351.999l-107.002 -0.00195312
c-26 0 -48.667 3.66699 -68 11s-35.5 17.333 -48.5 30s-22.667 27.334 -29 44.001s-9.5 34.334 -9.5 53.001c0 40 13.5 70.5 40.5 91.5s64.5 31.5 112.5 31.5c8.66699 0 18.334 -0.333008 29.001 -1s21.167 -1.5 31.5 -2.5s19.833 -2.33301 28.5 -4s15.334 -3.5 20.001 -5.5
v-248z" />
    <glyph glyph-name="FL042Dh" horiz-adv-x="1000" 
d="M227 0l85.9971 -38.001l6 47c9.33301 -4 20.833 -7.66699 34.5 -11s28.334 -6.33301 44.001 -9s31.667 -4.66699 48 -6s31.833 -2 46.5 -2c64.667 0 124.834 8.83301 180.501 26.5s103.5 44.5 143.5 80.5v100h240v23h-205v148h31v154h22v28c-18 18 -42.667 36.333 -74 55
s-65.166 35.5 -101.499 50.5s-73 27.333 -110 37s-69.833 14.5 -98.5 14.5c-20 0 -39.167 -2.16699 -57.5 -6.5s-36.5 -9 -54.5 -14s-36 -9.5 -54 -13.5s-37 -6 -57 -6c-8 0 -14.833 1.5 -20.5 4.5s-10.5 6.83301 -14.5 11.5s-7 9.33398 -9 14.001l-5 12l-33 -23l37 -134h54
c19.333 25.333 44.5 43.833 75.5 55.5s63.5 17.5 97.5 17.5c22.667 0 44.834 -2.5 66.501 -7.5s41.5 -12.167 59.5 -21.5s33.333 -20.5 46 -33.5s21.334 -27.833 26.001 -44.5h84v-284h-84c0 -33.333 -5.33301 -62.333 -16 -87s-25 -45 -43 -61s-39.167 -28 -63.5 -36
s-50.5 -12 -78.5 -12c-26 0 -49.167 3 -69.5 9s-38.333 14.5 -54 25.5s-29.334 23.833 -41.001 38.5s-21.834 30.667 -30.501 48l-4 6h-61l65 -116h-54v-17h-278v-23h278zM729.997 379.999l-219 0.000976562c-12.667 0 -24.667 1.33301 -36 4s-21.333 8 -30 16
s-15.5 19.167 -20.5 33.5s-7.5 33.166 -7.5 56.499h-14v-263h14c0 34 6.33301 60.167 19 78.5s37 27.5 73 27.5h221v47z" />
    <glyph glyph-name="FL042Ch" horiz-adv-x="749" 
d="M842 -36l-507 0.00195312c7.33301 1.33301 18 3.83301 32 7.5s27.833 8 41.5 13s25.667 10.333 36 16s15.5 11.167 15.5 16.5v315c-18.667 11.333 -39.334 20.166 -62.001 26.499s-46.667 9.5 -72 9.5c-24.667 0 -48.667 -3.16699 -72 -9.5s-44.333 -15.166 -63 -26.499
v191c0 22 1.66699 39.833 5 53.5s9.16602 24.167 17.499 31.5s19.333 12.333 33 15s30.834 4 51.501 4v20h-135c2.66699 9.33301 4.33398 16.666 5.00098 21.999s2.5 9.16602 5.5 11.499s8.5 3.83301 16.5 4.5s20.667 1 38 1v21h-120v-191h26v-54h-235v-24h235v-474h-1v-24
h709v24zM166 26.002l-0.000976562 262.002c6.66699 3.33301 16 6.16602 28 8.49902s24.667 4.16602 38 5.49902s26 2.33301 38 3s21 1 27 1c18 0 34.833 -4.5 50.5 -13.5s29.334 -21 41.001 -36s20.667 -32 27 -51s9.5 -38.5 9.5 -58.5c0 -40.667 -12.667 -73 -38 -97
s-59.333 -36 -102 -36c-5.33301 0 -13.5 0.166992 -24.5 0.5s-22.833 1 -35.5 2s-24.5 2.33301 -35.5 4s-18.833 3.5 -23.5 5.5z" />
    <glyph glyph-name="FL042Ah" horiz-adv-x="918" 
d="M1011 -36l-506.996 -0.000976562c7.33301 1.33301 18 3.83301 32 7.5s27.833 8 41.5 13s25.667 10.333 36 16s15.5 11.167 15.5 16.5v315c-18.667 11.333 -39.334 20.166 -62.001 26.499s-46.667 9.5 -72 9.5c-24.667 0 -48.667 -3.16699 -72 -9.5
s-44.333 -15.166 -63 -26.499v191c0 22 1.66699 39.833 5 53.5s9.16602 24.167 17.499 31.5s19.333 12.333 33 15s30.834 4 51.501 4v20h-97c3.33301 11.333 11.166 21.833 23.499 31.5s33.166 14.5 62.499 14.5h18v14h-442l-12 -171h12
c5.33301 30.667 13.5 54.334 24.5 71.001s23.333 28.834 37 36.501s27.834 12.167 42.501 13.5s28.667 2 42 2c8 0 17.667 -0.666992 29 -2s22.166 -3 32.499 -5s19.166 -4.33301 26.499 -7s11 -5.33398 11 -8.00098v-121h26v-54h-385v-24h385v-474h-1v-24h709v24z
M335.004 25.999l-0.000976562 262.002c6.66699 3.33301 16 6.16602 28 8.49902s24.667 4.16602 38 5.49902s26 2.33301 38 3s21 1 27 1c18 0 34.833 -4.5 50.5 -13.5s29.334 -21 41.001 -36s20.667 -32 27 -51s9.5 -38.5 9.5 -58.5c0 -40.667 -12.667 -73 -38 -97
s-59.333 -36 -102 -36c-5.33301 0 -13.5 0.166992 -24.5 0.5s-22.833 1 -35.5 2s-24.5 2.33301 -35.5 4s-18.833 3.5 -23.5 5.5z" />
    <glyph glyph-name="FL042Bh" horiz-adv-x="940" 
d="M917 -60l-0.00195312 23h-21c-18.667 0 -36.167 0.666992 -52.5 2s-30.666 4.83301 -42.999 10.5s-22.166 14.334 -29.499 26.001s-11 27.5 -11 47.5v463c0 20 1.5 36.667 4.5 50s8.16699 24 15.5 32s17 13.667 29 17s27.333 5 46 5h12v16h144v24h-254v-19h-243v-20h26
c19.333 0 35.166 -1.66699 47.499 -5s22.166 -8.83301 29.499 -16.5s12.333 -18.167 15 -31.5s4 -30 4 -50v-447c0 -16 -1.66699 -29.333 -5 -40s-8.16602 -19.167 -14.499 -25.5s-14.166 -11.166 -23.499 -14.499s-20.333 -6 -33 -8v-15h-225
c7.33301 1.33301 18 3.83301 32 7.5s27.833 8 41.5 13s25.667 10.333 36 16s15.5 11.167 15.5 16.5v315c-18.667 11.333 -39.334 20.166 -62.001 26.499s-46.667 9.5 -72 9.5c-24.667 0 -48.667 -3.16699 -72 -9.5s-44.333 -15.166 -63 -26.499v191
c0 22 1.66699 39.833 5 53.5s9.16602 24.167 17.499 31.5s19.333 12.333 33 15s30.834 4 51.501 4v20h-135c2.66699 9.33301 4.33398 16.666 5.00098 21.999s2.5 9.16602 5.5 11.499s8.5 3.83301 16.5 4.5s20.667 1 38 1v21h-120v-191h26v-54h-235v-24h235v-474h-1v-24h784z
M165.998 26l-0.000976562 262.002c6.66699 3.33301 16 6.16602 28 8.49902s24.667 4.16602 38 5.49902s26 2.33301 38 3s21 1 27 1c18 0 34.833 -4.5 50.5 -13.5s29.334 -21 41.001 -36s20.667 -32 27 -51s9.5 -38.5 9.5 -58.5c0 -40.667 -12.667 -73 -38 -97
s-59.333 -36 -102 -36c-5.33301 0 -13.5 0.166992 -24.5 0.5s-22.833 1 -35.5 2s-24.5 2.33301 -35.5 4s-18.833 3.5 -23.5 5.5z" />
    <glyph glyph-name="FL0404h" horiz-adv-x="1000" 
d="M777 0l277.994 0.000976562v23h-278v17h-54l65 116h-61l-4 -6c-9.33301 -17.333 -19.666 -33.333 -30.999 -48s-24.833 -27.5 -40.5 -38.5s-33.667 -19.5 -54 -25.5s-43.5 -9 -69.5 -9c-28 0 -54.167 4 -78.5 12s-45.5 20 -63.5 36s-32.333 36.333 -43 61
s-16 53.667 -16 87h-84v284h84c4.66699 16.667 13.334 31.5 26.001 44.5s28 24.167 46 33.5s37.833 16.5 59.5 21.5s43.834 7.5 66.501 7.5c34 0 66.5 -5.83301 97.5 -17.5s56.167 -30.167 75.5 -55.5h54l37 134l-33 23l-5 -12c-2 -4.66699 -5 -9.33398 -9 -14.001
s-8.83301 -8.5 -14.5 -11.5s-12.5 -4.5 -20.5 -4.5c-20 0 -39 2 -57 6s-36 8.5 -54 13.5s-36.167 9.66699 -54.5 14s-37.5 6.5 -57.5 6.5c-29.333 0 -62.333 -4.83301 -99 -14.5s-73.167 -22 -109.5 -37s-70.166 -31.833 -101.499 -50.5s-56 -37 -74 -55v-28h22v-154h31
v-148h-205v-23h240v-100c40 -36 87.833 -62.833 143.5 -80.5s115.834 -26.5 180.501 -26.5c14.667 0 30.167 0.666992 46.5 2s32.333 3.33301 48 6s30.334 5.66699 44.001 9s25.167 7 34.5 11l6 -47zM273.994 380.001v-47.001h221c36 0 60.333 -9.16699 73 -27.5
s19 -44.5 19 -78.5h14v263h-14c0 -23.333 -2.5 -42.166 -7.5 -56.499s-11.833 -25.5 -20.5 -33.5s-18.667 -13.333 -30 -16s-23.333 -4 -36 -4h-219z" />
    <glyph glyph-name="FL0454h" 
d="M997 191v24h-497v-24h497zM1096 647v23h-696v-23h696zM-54 0l454 1v23h-454v-24zM494 491h602v24h-602v-24zM706 339v24h-497v-24h497z" />
    <glyph glyph-name="FL0427h" horiz-adv-x="749" 
d="M315 707l-417 -0.00585938v-24h383v-51h-192v-14h18c21.333 0 38 -2.66699 50 -8s20.833 -11.833 26.5 -19.5s9.16699 -15.834 10.5 -24.501s2 -16.334 2 -23.001h84v-208c18.667 -11.333 39.334 -20.166 62.001 -26.499s46.667 -9.5 72 -9.5
c24.667 0 48.667 3.16699 72 9.5s44.333 15.166 63 26.499v-211c0 -22 -1.66699 -39.833 -5 -53.5s-9.16602 -24.167 -17.499 -31.5s-19.333 -12.333 -33 -15s-30.834 -4 -51.501 -4v-20h135c-2.66699 -9.33301 -4.33398 -16.666 -5.00098 -21.999
s-2.5 -9.16602 -5.5 -11.499s-8.5 -3.83301 -16.5 -4.5s-20.667 -1 -38 -1v-21h120v191h-26v54h235v24h-235v409h86c0 6.66699 0.666992 14.334 2 23.001s4.83301 16.834 10.5 24.501s14.5 14.167 26.5 19.5s28.667 8 50 8h18v14h-332v-14h18
c18.667 0 33.834 -2.16699 45.501 -6.5s20.667 -9.83301 27 -16.5s10.5 -14 12.5 -22s3.33301 -15.333 4 -22v-247c-6.66699 -3.33301 -16 -6.16602 -28 -8.49902s-24.667 -4.16602 -38 -5.49902s-26 -2.33301 -38 -3s-21 -1 -27 -1c-18 0 -34.833 3.5 -50.5 10.5
s-29.334 16.833 -41.001 29.5s-20.667 27.334 -27 44.001s-9.5 35 -9.5 55v61c0.666992 6.66699 2.5 13.334 5.5 20.001s7.66699 12.667 14 18s15 9.83301 26 13.5s25.167 5.5 42.5 5.5h18v14h-106v75z" />
    <glyph glyph-name="FL0426h" horiz-adv-x="1000" 
d="M674 -15c10 0 23.501 -1.33398 40.501 -4.00098s34 -10 51 -22s32 -30.167 45 -54.5s20.167 -58.166 21.5 -101.499h14l-8 234h-56c-5.33301 0 -10.5 0.333008 -15.5 1s-9.5 2.5 -13.5 5.5s-7.16699 7.83301 -9.5 14.5s-3.5 16 -3.5 28l-1 -2v367h323v26h-322v276h-190
l-1 -20h23c18.667 0 34.167 -1.66699 46.5 -5s22.333 -9 30 -17s13 -18.667 16 -32s4.5 -30 4.5 -50v-584h-331v463c0 20 1.5 36.667 4.5 50s8.16699 24 15.5 32s17.333 13.667 30 17s28.667 5 48 5h1v24h-309v-24h19c18.667 0 34.167 -1.66699 46.5 -5
s22.166 -9 29.499 -17s12.5 -18.667 15.5 -32s4.5 -30 4.5 -50v-223h-22v-118c0 -36 -7.16699 -60.667 -21.5 -74s-35.5 -20 -63.5 -20h-34v-23h141v-25c0 -28 -6 -49.833 -18 -65.5s-31 -25.167 -57 -28.5h-222v-23h512v22h-22c-30 0 -52 4 -66 12s-23.333 22.333 -28 43
h332z" />
    <glyph glyph-name="FL0429h" horiz-adv-x="1367" 
d="M1046 -42c10 0 23.499 -1.33594 40.499 -4.00293s34 -10 51 -22s32 -30.167 45 -54.5s20.167 -58.166 21.5 -101.499h16l-9 224h7v24h-34v21h-23c-16 0 -29.667 4.5 -41 13.5l-28 22.5c-2 10.667 -3 23.667 -3 39v358c0 16 5.33301 28.833 16 38.5s25 16.834 43 21.501
s38.333 7.66699 61 9s46 2 70 2h172v25h-385c0 18.667 1.16699 35 3.5 49s7 25.5 14 34.5s16.667 15.667 29 20s28.5 6.5 48.5 6.5h17v23h-193v-356h-57v-228c0 -15.333 -0.666992 -27.666 -2 -36.999s-4 -16.333 -8 -21s-10.167 -7.66699 -18.5 -9s-19.5 -2 -33.5 -2h-156
v36h-124v-36h-104c-14 0 -25.167 0.666992 -33.5 2s-14.5 4.33301 -18.5 9s-6.66699 11.667 -8 21s-2 21.666 -2 36.999v228h-57v356h-193v-23h17c20 0 36.167 -2.16699 48.5 -6.5s22 -11 29 -20s11.667 -20.5 14 -34.5s3.5 -30.333 3.5 -49h-165v-25l17 1
c14 0 28.333 -1.66699 43 -5s28 -8.16602 40 -14.499s22 -13.833 30 -22.5s12 -18.667 12 -30v-358c0 -15.333 -1 -28.333 -3 -39l-28 -22.5c-11.333 -9 -25 -13.5 -41 -13.5h-23v-21h-264v-24h334c-7.33301 -6 -16.666 -10.167 -27.999 -12.5s-25.333 -3.5 -42 -3.5h-23
v-26h405c-9.33301 -4 -21.333 -7 -36 -9v-15h-148v-24h505v23h-21c-24 0 -46 1.33301 -66 4s-36.333 9.66699 -49 21h315zM709.999 481.997c0 20 1.50195 36.667 4.50195 50s8.16699 24 15.5 32s17 13.667 29 17s27.333 5 46 5h12v16h144v24h-254v-19h-243v-20h26
c19.333 0 35.166 -1.66699 47.499 -5s22.166 -8.83301 29.499 -16.5s12.333 -18.167 15 -31.5s4 -30 4 -50v-298h124v296z" />
    <glyph glyph-name="FL0428h" horiz-adv-x="1367" 
d="M867 -90l0.000976562 22.998h-21c-24 0 -46 1.33301 -66 4s-36.333 9.66699 -49 21h315l68 42h104v24h-34v21h-23c-16 0 -29.667 4.5 -41 13.5l-28 22.5c-2 10.667 -3 23.667 -3 39v358c0 16 5.33301 28.833 16 38.5s25 16.834 43 21.501s38.333 7.66699 61 9s46 2 70 2
h172v25h-385c0 18.667 1.16699 35 3.5 49s7 25.5 14 34.5s16.667 15.667 29 20s28.5 6.5 48.5 6.5h17v23h-193v-356h-57v-228c0 -15.333 -0.666992 -27.666 -2 -36.999s-4 -16.333 -8 -21s-10.167 -7.66699 -18.5 -9s-19.5 -2 -33.5 -2h-156v428c0 20 1.5 36.667 4.5 50
s8.16699 24 15.5 32s17 13.667 29 17s27.333 5 46 5h12v16h144v24h-254v-19h-243v-20h26c19.333 0 35.166 -1.66699 47.499 -5s22.166 -8.83301 29.499 -16.5s12.333 -18.167 15 -31.5s4 -30 4 -50v-430h-104c-14 0 -25.167 0.666992 -33.5 2s-14.5 4.33301 -18.5 9
s-6.66699 11.667 -8 21s-2 21.666 -2 36.999v228h-57v356h-193v-23h17c20 0 36.167 -2.16699 48.5 -6.5s22 -11 29 -20s11.667 -20.5 14 -34.5s3.5 -30.333 3.5 -49h-165v-25l17 1c14 0 28.333 -1.66699 43 -5s28 -8.16602 40 -14.499s22 -13.833 30 -22.5
s12 -18.667 12 -30v-358c0 -15.333 -1 -28.333 -3 -39l-28 -22.5c-11.333 -9 -25 -13.5 -41 -13.5h-23v-21h-264v-24h334c-7.33301 -6 -16.666 -10.167 -27.999 -12.5s-25.333 -3.5 -42 -3.5h-23v-26h405c-9.33301 -4 -21.333 -7 -36 -9v-15h-148v-24h505z" />
    <glyph glyph-name="FL0424h" horiz-adv-x="876" 
d="M435 725c24 0 47.9951 -3.00098 71.9951 -9.00098h-3v-19h-243v-20h26c25.333 0 45 -3 59 -9s23.667 -16.667 29 -32c-20 -0.666992 -44.833 -3 -74.5 -7s-60 -11.5 -91 -22.5s-60.667 -26.5 -89 -46.5s-51.166 -47 -68.499 -81h46v-291h-26
c16.667 -22 37.334 -40.167 62.001 -54.5s50.667 -26 78 -35s55 -15.333 83 -19s54 -5.5 78 -5.5c-6 -11.333 -14.5 -19.333 -25.5 -24s-24.5 -8.33398 -40.5 -11.001v-15h-368v-24h725v23h-21c-18.667 0 -36.167 0.666992 -52.5 2s-30.666 4.83301 -42.999 10.5
s-22.166 14.334 -29.499 26.001s-11 27.5 -11 47.5v4h5c50 0 96.833 8.33301 140.5 25s81.834 41 114.501 73s58.5 71.167 77.5 117.5s28.5 98.833 28.5 157.5l-72 -19v6c0 40.667 -7.5 80.167 -22.5 118.5s-40.5 71.833 -76.5 100.5h226v24h-263
c-28 15.333 -60.833 27.333 -98.5 36s-81.5 13.334 -131.5 14.001v-41zM382.995 573.999l0.00195312 -395.001c-38 14.667 -70.333 34.834 -97 60.501s-48.334 53.5 -65.001 83.5l-23 -15c24 -48 51.833 -85.667 83.5 -113s65.5 -47.666 101.5 -60.999v-18
c-24 0 -49.667 3.5 -77 10.5s-52.5 19.167 -75.5 36.5s-42 40.5 -57 69.5s-22.5 65.5 -22.5 109.5c0 45.333 7 84 21 116s32 58.167 54 78.5s46.667 35.166 74 44.499s54.666 14 81.999 14c0.666992 -3.33301 1 -7 1 -11v-10zM506.997 571.998
c0 37.333 5.5 63.499 16.5 78.499s32.167 23.167 63.5 24.5c21.333 -17.333 39.5 -39.666 54.5 -66.999s24.5 -60.333 28.5 -99h75l-14 -52l-61 -23c-3.33301 -30 -10.5 -55.667 -21.5 -77s-24.167 -39 -39.5 -53s-32 -25 -50 -33s-35.333 -14 -52 -18v140l-77 -20l27 136
h50v63zM506.997 206.997c28 2.66699 56.168 7.83301 84.501 15.5s55.166 18.167 80.499 31.5c-18.667 -26.667 -41.5 -48.667 -68.5 -66s-59.167 -27 -96.5 -29v48z" />
    <glyph glyph-name="FL0457h" 
d="M1098 366v24h-497v-24h497zM619 556v23h-696v-23h696zM647 -2l454 1v23h-454v-24zM-80 369h602v24h-602v-24zM639 172v24h-497v-24h497z" />
    <glyph glyph-name="FL0423h" horiz-adv-x="903" 
d="M954 0l0.00195312 23.0049h-402c-18 0 -33 1.33301 -45 4s-21.833 7.5 -29.5 14.5s-13.334 16.167 -17.001 27.5s-5.5 25.666 -5.5 42.999h25v186h-48l68 90v75l-73 -71l-84.5 121.5c-20.333 29.667 -35.333 52.167 -45 67.5s-15.667 25.666 -18 30.999
s-3.5 9.66602 -3.5 12.999c0 5.33301 2.16699 9.83301 6.5 13.5s10.166 6.5 17.499 8.5s15.666 3.5 24.999 4.5s19 1.5 29 1.5v24h-503v-24h222c8.66699 -0.666992 16.5 -2.66699 23.5 -6s14.167 -8.33301 21.5 -15s15.5 -15.334 24.5 -26.001l32.5 -39l159 -229h42v-167
h-16v-281h141v23h-23c-35.333 0 -60.166 6.16699 -74.499 18.5s-21.833 35.166 -22.5 68.499h573zM950.002 685.005l0.000976562 22.999h-403v-25c33.333 0 60.833 -1.16699 82.5 -3.5s32.5 -9.83301 32.5 -22.5l-135 -167h2v-67l141 169
c12.667 15.333 24.667 28.833 36 40.5s22.666 21.334 33.999 29.001s23 13.5 35 17.5s25.333 6 40 6h135z" />
    <glyph glyph-name="FL041Bh" horiz-adv-x="828" 
d="M550 415l52.9951 -0.00488281v72h25v85c0 20 1.5 36.667 4.5 50s8.16699 24 15.5 32s17 13.667 29 17s27.333 5 46 5h12v16h84v24h-194v-19h-324v19l-116 11v-14c14.667 0 28 -1.16699 40 -3.5s22.333 -6.5 31 -12.5h-314v-21h333c2 -5.33301 3.66699 -10.666 5 -15.999
s2 -11.666 2 -18.999v-290c0 -62 -2.83301 -112.167 -8.5 -150.5s-13 -68 -22 -89s-18.667 -35 -29 -42s-20.166 -10.5 -29.499 -10.5c-7.33301 0 -14.166 2.16699 -20.499 6.5l-18.5 12.5c-6 4 -13 8.16699 -21 12.5s-17 6.5 -27 6.5c-17.333 0 -30.333 -6.16699 -39 -18.5
s-13 -24.833 -13 -37.5c0 -8 1.5 -15.833 4.5 -23.5s8 -14.667 15 -21s16 -11.5 27 -15.5s24.5 -6 40.5 -6c30 0 55.5 6.5 76.5 19.5s38.333 30.5 52 52.5s24.5 47.5 32.5 76.5s13.833 59.667 17.5 92s6 65.333 7 99s1.5 65.834 1.5 96.501v265h81
c19.333 0 35.166 -1.5 47.499 -4.5s22 -8.5 29 -16.5s11.833 -18.5 14.5 -31.5s4 -29.5 4 -49.5v-447c0 -16 -1.66699 -29.333 -5 -40s-8.16602 -19.167 -14.499 -25.5s-14.166 -11.166 -23.499 -14.499s-20.333 -6 -33 -8v-15h-72v-24h529v23h-121
c-18.667 0 -36.167 0.666992 -52.5 2s-30.666 4.83301 -42.999 10.5s-22.166 14.334 -29.499 26.001s-11 27.5 -11 47.5v69h-78v237z" />
    <glyph glyph-name="FL0414h" horiz-adv-x="828" 
d="M743 -136l63.998 -0.00390625v111h78v48h-121c-18.667 0 -36.167 0.666992 -52.5 2s-30.666 4.83301 -42.999 10.5s-22.166 14.334 -29.499 26.001s-11 27.5 -11 47.5v69h-78v237h53v72h25v85c0 20 1.5 36.667 4.5 50s8.16699 24 15.5 32s17 13.667 29 17s27.333 5 46 5
h12v16h84v24h-194v-19h-324v19l-116 11v-14c14.667 0 28 -1.16699 40 -3.5s22.333 -6.5 31 -12.5h-314v-21h333c2 -5.33301 3.66699 -10.666 5 -15.999s2 -11.666 2 -18.999v-290c0 -43.333 -3.5 -81.5 -10.5 -114.5s-18.167 -62.333 -33.5 -88s-35.333 -48.5 -60 -68.5
s-54.667 -38.667 -90 -56h-142v-49h65l-12 -180h14c3.33301 34.667 11 63.334 23 86.001s26 40.667 42 54s32.833 22.833 50.5 28.5s34.167 9.5 49.5 11.5h565v-111zM327.998 410.996l-0.000976562 264.999h81c19.333 0 35.166 -1.5 47.499 -4.5s22 -8.5 29 -16.5
s11.833 -18.5 14.5 -31.5s4 -29.5 4 -49.5v-447c0 -16 -1.66699 -29.333 -5 -40s-8.16602 -19.167 -14.499 -25.5s-14.166 -11.166 -23.499 -14.499s-20.333 -6 -33 -8v-15h-176c18 20.667 32 46 42 76s17.5 62.333 22.5 97s8.16699 70.5 9.5 107.5s2 72.5 2 106.5z" />
    <glyph glyph-name="FL0417h" horiz-adv-x="950" 
d="M641 476c4 14 6.00391 29.6699 6.00391 47.0029c0 15.333 -2.33301 30.166 -7 44.499s-11.334 27.833 -20.001 40.5c13.333 0 28.666 -3 45.999 -9s34.666 -20.667 51.999 -44v124h-206c-21.333 5.33301 -44 8 -68 8c-14.667 0 -27.834 -0.666992 -39.501 -2
s-22.5 -3.33301 -32.5 -6h-11v58h-408v-24h272c16 0 28.5 -3.33301 37.5 -10s16.833 -14.667 23.5 -24h-45v2h-14l21 -24c-5.33301 -4 -10.666 -10.833 -15.999 -20.5s-10.333 -20.167 -15 -31.5s-8.5 -21.833 -11.5 -31.5s-4.5 -16.5 -4.5 -20.5
c0 -21.333 6.66699 -45.333 20 -72h14c1.33301 16 5.83301 35.333 13.5 58s21.167 42.667 40.5 60c10.667 9.33301 24 17.666 40 24.999h135c23.333 -10 41.666 -24.833 54.999 -44.5s20 -43.167 20 -70.5c0 -24 -4 -46.833 -12 -68.5s-21.667 -40.167 -41 -55.5h-36l11 -15
c-14 -6.66699 -29.333 -11.334 -46 -14.001v-13h45v-47h134v25c17.333 -6 32.333 -15.167 45 -27.5s23.5 -26.5 32.5 -42.5s16.167 -33.167 21.5 -51.5s9.66602 -36.166 12.999 -53.499h-95c-2.66699 -20.667 -8.16699 -36.667 -16.5 -48s-19 -19.833 -32 -25.5
s-28.5 -9.16699 -46.5 -10.5s-38 -2 -60 -2c-5.33301 0 -14.166 2 -26.499 6s-26 8.83301 -41 14.5l-46 18c-15.667 6.33301 -29.5 12.166 -41.5 17.499v-92h-352v-24h352v-38h43v38h180c56 0 101 10.5 135 31.5s58.667 46.5 74 76.5v77h266v24h-266v75
c-3.33301 4 -8.16602 9.33301 -14.499 16s-13.5 13.667 -21.5 21s-16.333 14.333 -25 21s-16.334 11.667 -23.001 15c7.33301 1.33301 17.833 5.5 31.5 12.5s26.167 14.167 37.5 21.5v85h-77z" />
    <glyph glyph-name="FL2116h" 
d="M-54 0l467.002 0.000976562v27h-30c-18.667 0 -34.167 1.66699 -46.5 5s-22.166 9 -29.499 17s-12.5 18.667 -15.5 32s-4.5 30 -4.5 50v390l147 -147h-64l381 -380v194h346v23h-118c10 5.33301 19.167 12.166 27.5 20.499s16.166 17.5 23.499 27.5v169h24v158
c-14 21.333 -31 38.333 -51 51s-41.667 19 -65 19c-16.667 0 -32.834 -3.5 -48.501 -10.5s-29.834 -16.667 -42.501 -29s-23.667 -26.833 -33 -43.5s-16 -34.667 -20 -54h42v-82h-24v-191c12 -14 25.667 -25.667 41 -35h-125v84h-25v-100l-139 141h77l-312 311h-202v-25
c11.333 0 23.5 -0.666992 36.5 -2s25 -3.5 36 -6.5s20 -6.66699 27 -11s10.5 -9.83301 10.5 -16.5v-447c0 -34 -6.66699 -56.833 -20 -68.5s-35 -17.5 -65 -17.5h-38v-30h-168v-23zM751.002 583.001c0 18.667 1.49902 33.332 4.49902 43.999s7.83301 18.334 14.5 23.001
s15.334 7.5 26.001 8.5s24 1.5 40 1.5h260v24h-426v-208h32v-140h49v247zM940.001 526.999c26 0 42.666 -30 49.999 -90h-30c-2 -11.333 -4.5 -23.833 -7.5 -37.5s-6.5 -26.167 -10.5 -37.5s-8.33301 -20.833 -13 -28.5s-9.66699 -11.5 -15 -11.5s-10.333 3.33301 -15 10
s-9 15.167 -13 25.5s-7.5 21.833 -10.5 34.5s-5.5 24.667 -7.5 36h22c4.66699 66 21.334 99 50.001 99zM916 224.999c-24 0 -39.667 24.667 -47 74c14 -6 29 -9 45 -9c15.333 0 32 3.66699 50 11c-6.66699 -50.667 -22.667 -76 -48 -76zM940 558.999
c-15.333 0 -32 -3.66699 -50 -11c8 50.667 24 76 48 76s40 -25 48 -75c-14 6.66699 -29.333 10 -46 10z" />
    <glyph glyph-name="FL404" horiz-adv-x="946" 
d="M668 309l-161.002 288.001h-64v-30h-494v-23h382l-197 -402c-17.333 -36 -35.333 -64.333 -54 -85s-39.667 -31.334 -63 -32.001v-25h157v18c-12.667 0 -21.334 2.16699 -26.001 6.5s-7 9.83301 -7 16.5c0 5.33301 0.833008 10.666 2.5 15.999
s3.83398 10.666 6.50098 15.999l62 118h310c10.667 -24 19.334 -44.167 26.001 -60.5s11.667 -29.666 15 -39.999s5.66602 -18.333 6.99902 -24s2 -10.167 2 -13.5c0 -12 -4.66699 -20.667 -14 -26s-28.666 -8.33301 -57.999 -9v-18h499v24
c-12 0.666992 -30.667 1.83398 -56 3.50098s-52.666 4 -81.999 7s-58.5 6.83301 -87.5 11.5s-53.167 11 -72.5 19l-118 244h85zM503.998 221.001h-274l130 275z" />
    <glyph glyph-name="FL405" horiz-adv-x="950" 
d="M337 385v238.999h210c48 0 82.833 -6.5 104.5 -19.5s32.5 -32.5 32.5 -58.5h34v133h-357v58h-408v-24h272c16 0 28.5 -3.33301 37.5 -10s16.833 -14.667 23.5 -24h-51v-29c21.333 0 37 -0.166992 47 -0.5s17.333 -1.16602 22 -2.49902v-113h-19v-191h45v-153h-53v-112h24
v-54h-352v-24h352v-38h43v38h180c56 0 100.833 10.5 134.5 31.5s58.5 46.5 74.5 76.5v77h266v24h-266v75c-12 19.333 -28.167 35.5 -48.5 48.5s-43 23.333 -68 31s-51.833 13.167 -80.5 16.5s-57.667 5 -87 5h-112zM464 328.999l85.0029 -0.000976562
c25.333 0 47.166 -5.66699 65.499 -17s33.666 -25.666 45.999 -42.999s22.166 -37 29.499 -59s12.666 -43.333 15.999 -64h-95c-2.66699 -20.667 -8.16699 -36.667 -16.5 -48s-19 -19.833 -32 -25.5s-28.5 -9.16699 -46.5 -10.5s-38 -2 -60 -2c-16 0 -31.667 0.333008 -47 1
s-28.666 2.66699 -39.999 6v229h95v33z" />
    <glyph glyph-name="FL406" horiz-adv-x="950" 
d="M361 679v57.999h-408v-24h272c16 0 28.5 -3.33301 37.5 -10s16.833 -14.667 23.5 -24h-51v-29c21.333 0 37 -0.166992 47 -0.5s17.333 -1.16602 22 -2.49902v-113h-19v-191h45v-153h-53v-112h24v-54h-352v-24h352v-38h43v38h180c56 0 100.833 10.5 134.5 31.5
s58.5 46.5 74.5 76.5v77h266v24h-266v75c-3.33301 4 -8.16602 9.33301 -14.499 16s-13.5 13.667 -21.5 21s-16.333 14.333 -25 21s-16.334 11.667 -23.001 15c7.33301 1.33301 17.833 5.5 31.5 12.5s26.167 14.167 37.5 21.5v288h-357zM464 328.999l85.0029 -0.000976562
c25.333 0 47.166 -5.66699 65.499 -17s33.666 -25.666 45.999 -42.999s22.166 -37 29.499 -59s12.666 -43.333 15.999 -64h-95c-2.66699 -20.667 -8.16699 -36.667 -16.5 -48s-19 -19.833 -32 -25.5s-28.5 -9.16699 -46.5 -10.5s-38 -2 -60 -2c-16 0 -31.667 0.333008 -47 1
s-28.666 2.66699 -39.999 6v229h95v33zM337.003 384.998v239h210c48 0 82.5 -13.167 103.5 -39.5s32.167 -62.5 33.5 -108.5h-84c-10 -30 -28 -52.667 -54 -68s-58.333 -23 -97 -23h-112z" />
    <glyph glyph-name="FL407" horiz-adv-x="897" 
d="M438 350l0.000976562 265.001h113c18 0 34.167 -1.16699 48.5 -3.5s27 -7.5 38 -15.5s20.667 -19.167 29 -33.5s15.5 -33.5 21.5 -57.5h26v149c9.33301 -6.66699 16.5 -16.334 21.5 -29.001s7.5 -29.667 7.5 -51h24v144h-91v-48h-732v-24h120
c10 0 18.167 -2.66699 24.5 -8s11.166 -11.5 14.499 -18.5s5.66602 -14.167 6.99902 -21.5s2 -13.333 2 -18h231v-371h-394v-24h394v-101c-2 -13.333 -5.16699 -23.833 -9.5 -31.5s-10.333 -13.5 -18 -17.5s-17.167 -6.5 -28.5 -7.5s-24.666 -1.5 -39.999 -1.5h-27v-26h141
v-188h221v31h-64c-32 0 -55 5.16699 -69 15.5s-22.333 29.833 -25 58.5v262l14 1v170z" />
    <glyph glyph-name="FL408" horiz-adv-x="828" 
d="M743 -136l63.998 -0.00390625v111h78v48h-121c-18.667 0 -36.167 0.666992 -52.5 2s-30.666 4.83301 -42.999 10.5s-22.166 14.334 -29.499 26.001s-11 27.5 -11 47.5v69h-78v237h53v72h25v85c0 20 1.5 36.667 4.5 50s8.16699 24 15.5 32s17 13.667 29 17s27.333 5 46 5
h12v16h84v24h-194v-19h-324v19l-116 11v-14c14.667 0 28 -1.16699 40 -3.5s22.333 -6.5 31 -12.5h-314v-21h333c2 -5.33301 3.66699 -10.666 5 -15.999s2 -11.666 2 -18.999v-290c0 -43.333 -3.5 -81.5 -10.5 -114.5s-18.167 -62.333 -33.5 -88s-35.333 -48.5 -60 -68.5
s-54.667 -38.667 -90 -56h-142v-49h65l-12 -180h14c3.33301 34.667 11 63.334 23 86.001s26 40.667 42 54s32.833 22.833 50.5 28.5s34.167 9.5 49.5 11.5h565v-111zM327.998 410.996l-0.000976562 264.999h81c19.333 0 35.166 -1.5 47.499 -4.5s22 -8.5 29 -16.5
s11.833 -18.5 14.5 -31.5s4 -29.5 4 -49.5v-447c0 -16 -1.66699 -29.333 -5 -40s-8.16602 -19.167 -14.499 -25.5s-14.166 -11.166 -23.499 -14.499s-20.333 -6 -33 -8v-15h-176c18 20.667 32 46 42 76s17.5 62.333 22.5 97s8.16699 70.5 9.5 107.5s2 72.5 2 106.5z" />
    <glyph glyph-name="FL0197" horiz-adv-x="997" 
d="M-57 -1h399.001v14h136v-36h261v52h312v23h-312v1h-300c-12.667 0 -22.667 0.833008 -30 2.5s-13 4.83398 -17 9.50098s-6.66699 11.167 -8 19.5s-2 19.5 -2 33.5v182h133v-29h157v110h-22c0 -13.333 -2.16699 -23.833 -6.5 -31.5s-11 -13.5 -20 -17.5
s-20.5 -6.5 -34.5 -7.5s-31 -1.5 -51 -1.5v31h-156v281h140v-32h67c14.667 0 28 -1.33301 40 -4s23 -7.66699 33 -15s19.167 -17.666 27.5 -30.999s16.166 -30.666 23.499 -51.999h21v156h-123v50h-661v-23h214v-1c20 0 36.667 -2.33301 50 -7s23.833 -11.834 31.5 -21.501
s13 -22.167 16 -37.5s4.5 -34 4.5 -56v-435c0 -21.333 -1.5 -38.833 -4.5 -52.5s-8.5 -24.334 -16.5 -32.001s-18.5 -12.834 -31.5 -15.501s-29.5 -4 -49.5 -4h-221v-23z" />
    <glyph glyph-name="FL409" horiz-adv-x="1499" 
d="M-9 598l-0.00195312 -24.998h58c25.333 -2.66699 52.833 -8.5 82.5 -17.5s60.5 -27.167 92.5 -54.5l262 -260l-172.5 -173c-47 -45.333 -85.833 -81.333 -116.5 -108s-54.334 -45.5 -71.001 -56.5s-28.334 -16.833 -35.001 -17.5v-32h221v4h179v24h-179v16
c-47.333 0 -71 4.33301 -71 13c0 5.33301 7.33301 13.333 22 24h121l1 20c-28.667 0 -48.667 2 -60 6s-17 8.66699 -17 14c0 4 2.33301 8.33301 7 13l264 259v-118c0 -20 -1.5 -36.667 -4.5 -50s-8.16699 -24 -15.5 -32s-17.166 -13.667 -29.499 -17s-27.833 -5 -46.5 -5
h-16v-25h188l3 2c0 -20.667 -1 -37.834 -3 -51.501s-5.33301 -24.667 -10 -33s-11.167 -14.166 -19.5 -17.499s-18.5 -5 -30.5 -5h-10v-32h257v32c-15.333 0 -27.666 1.66699 -36.999 5s-16.833 9.16602 -22.5 17.499s-9.5 19.333 -11.5 33s-3 30.834 -3 51.501v112h-99v45
h63v169l103.5 -97l70.5 -67l44.5 -43c11 -10.667 19.167 -18.834 24.5 -24.501l11 -11.5l5 -5l19 -30c0 -9.33301 -4.66699 -15.833 -14 -19.5s-27.666 -5.5 -54.999 -5.5v-25h108c2.66699 -4.66699 4 -9.66699 4 -15c0 -9.33301 -3 -16 -9 -20s-18 -6 -36 -6v-32h246v32
c-11.333 1.33301 -22.5 5.33301 -33.5 12s-23.167 16.667 -36.5 30h373v25h-288c-25.333 2.66699 -52.833 8.5 -82.5 17.5s-60.5 27.167 -92.5 54.5l-262 260l172.5 173c47 45.333 85.833 81.333 116.5 108s54.334 45.5 71.001 56.5s28.334 16.833 35.001 17.5v32h-221v-4
h-659v-24h659v-16c47.333 0 71 -4.33301 71 -13c0 -5.33301 -7.33301 -13.333 -22 -24h-121l-1 -20c28.667 0 48.667 -2 60 -6s17 -8.66699 17 -14c0 -4 -2.33301 -8.33301 -7 -13l-271 -266v217c0 24 3.16699 42 9.5 54s19.5 18 39.5 18h15v32h-134v-104h-120v-2h-194v-25
h194c28.667 0 48.167 -7.83301 58.5 -23.5s15.5 -44.834 15.5 -87.501v-31h-37v-116l-100.5 94.5l-69 65.5l-43 41.5l-23.5 24l-11 11.5l-5 5l-19 30c0 9.33301 4.66699 15.833 14 19.5s27.666 5.5 54.999 5.5v25h-108c-2.66699 4.66699 -4 9.66699 -4 15
c0 9.33301 3 16 9 20s18 6 36 6v32h-246v-32c11.333 -1.33301 22.5 -5.33301 33.5 -12s23.167 -16.667 36.5 -30h-143z" />
    <glyph glyph-name="FL0199" horiz-adv-x="950" 
d="M641 476c4 14 6.00391 29.6699 6.00391 47.0029c0 15.333 -2.33301 30.166 -7 44.499s-11.334 27.833 -20.001 40.5c13.333 0 28.666 -3 45.999 -9s34.666 -20.667 51.999 -44v124h-206c-21.333 5.33301 -44 8 -68 8c-14.667 0 -27.834 -0.666992 -39.501 -2
s-22.5 -3.33301 -32.5 -6h-11v58h-408v-24h272c16 0 28.5 -3.33301 37.5 -10s16.833 -14.667 23.5 -24h-45v2h-14l21 -24c-5.33301 -4 -10.666 -10.833 -15.999 -20.5s-10.333 -20.167 -15 -31.5s-8.5 -21.833 -11.5 -31.5s-4.5 -16.5 -4.5 -20.5
c0 -21.333 6.66699 -45.333 20 -72h14c1.33301 16 5.83301 35.333 13.5 58s21.167 42.667 40.5 60c10.667 9.33301 24 17.666 40 24.999h135c23.333 -10 41.666 -24.833 54.999 -44.5s20 -43.167 20 -70.5c0 -24 -4 -46.833 -12 -68.5s-21.667 -40.167 -41 -55.5h-36l11 -15
c-14 -6.66699 -29.333 -11.334 -46 -14.001v-13h45v-47h134v25c17.333 -6 32.333 -15.167 45 -27.5s23.5 -26.5 32.5 -42.5s16.167 -33.167 21.5 -51.5s9.66602 -36.166 12.999 -53.499h-95c-2.66699 -20.667 -8.16699 -36.667 -16.5 -48s-19 -19.833 -32 -25.5
s-28.5 -9.16699 -46.5 -10.5s-38 -2 -60 -2c-5.33301 0 -14.166 2 -26.499 6s-26 8.83301 -41 14.5l-46 18c-15.667 6.33301 -29.5 12.166 -41.5 17.499v-92h-352v-24h352v-38h43v38h180c56 0 101 10.5 135 31.5s58.667 46.5 74 76.5v77h266v24h-266v75
c-3.33301 4 -8.16602 9.33301 -14.499 16s-13.5 13.667 -21.5 21s-16.333 14.333 -25 21s-16.334 11.667 -23.001 15c7.33301 1.33301 17.833 5.5 31.5 12.5s26.167 14.167 37.5 21.5v85h-77z" />
    <glyph glyph-name="FL410" horiz-adv-x="1000" 
d="M739 451h323.001v26h-322v276h-190l-1 -20h23c18.667 0 34.167 -1.66699 46.5 -5s22.333 -9 30 -17s13 -18.667 16 -32s4.5 -30 4.5 -50v-70l-331 -212v161c0 20 1.5 36.667 4.5 50s8.16699 24 15.5 32s17.333 13.667 30 17s28.667 5 48 5h1v24h-309v-24h19
c18.667 0 34.167 -1.66699 46.5 -5s22.166 -9 29.499 -17s12.5 -18.667 15.5 -32s4.5 -30 4.5 -50v-223h-22v-118c0 -36 -7.16699 -60.667 -21.5 -74s-35.5 -20 -63.5 -20h-34v-23h141v-25c0 -28 -6 -49.833 -18 -65.5s-31 -25.167 -57 -28.5h-222v-23h512v22h-22
c-19.333 0 -35.333 1.66699 -48 5s-22.667 8.83301 -30 16.5s-12.5 18.167 -15.5 31.5s-4.5 30 -4.5 50v254l331 219v-522h70v467z" />
    <glyph glyph-name="FL411" horiz-adv-x="1000" 
d="M739 451h323.001v26h-322v276h-190l-1 -20h23c18.667 0 34.167 -1.66699 46.5 -5s22.333 -9 30 -17s13 -18.667 16 -32s4.5 -30 4.5 -50v-70l-331 -212v161c0 20 1.5 36.667 4.5 50s8.16699 24 15.5 32s17.333 13.667 30 17s28.667 5 48 5h1v24h-309v-24h19
c18.667 0 34.167 -1.66699 46.5 -5s22.166 -9 29.499 -17s12.5 -18.667 15.5 -32s4.5 -30 4.5 -50v-223h-22v-118c0 -36 -7.16699 -60.667 -21.5 -74s-35.5 -20 -63.5 -20h-34v-23h141v-25c0 -28 -6 -49.833 -18 -65.5s-31 -25.167 -57 -28.5h-222v-23h512v22h-22
c-19.333 0 -35.333 1.66699 -48 5s-22.667 8.83301 -30 16.5s-12.5 18.167 -15.5 31.5s-4.5 30 -4.5 50v254l331 219v-522h70v467zM653.001 900c-2.66699 -28 -10.6689 -49.832 -24.002 -65.499s-31.666 -23.5 -54.999 -23.5c-10 0 -21.833 1.83301 -35.5 5.5
s-27.834 8.33398 -42.501 14.001s-29.5 12 -44.5 19l-41.5 19.5v-89h-144c-13.333 -14 -24.166 -32.167 -32.499 -54.5s-12.5 -49.833 -12.5 -82.5h33c4.66699 30 13.334 52 26.001 66s30.667 21 54 21c16 0 34.5 -3.83301 55.5 -11.5s42.833 -16.5 65.5 -26.5v65h180
c18 17.333 31 37.666 39 60.999s12 50.666 12 81.999h-33z" />
    </font>
</defs>
</svg>
